<?xml version="1.0" standalone="no"?>
<!DOCTYPE svg PUBLIC "-//W3C//DTD SVG 1.1//EN" "http://www.w3.org/Graphics/SVG/1.1/DTD/svg11.dtd" >
<svg xmlns="http://www.w3.org/2000/svg" xmlns:xlink="http://www.w3.org/1999/xlink" version="1.1">
<metadata>
Created by FontForge 20170731 at Thu Apr 25 18:25:49 2019
 By Aleksey,,,
Copyright (c) 2019 VMware, Inc.	
</metadata>
<defs>
<font id="ClarityCity-Medium" horiz-adv-x="645" >
  <font-face 
    font-family="Clarity City Medium"
    font-weight="500"
    font-stretch="normal"
    units-per-em="1000"
    panose-1="0 0 6 0 0 0 0 0 0 0"
    ascent="795"
    descent="-205"
    x-height="517"
    cap-height="687"
    bbox="-187 -280 1168 969"
    underline-thickness="20"
    underline-position="-153"
    unicode-range="U+0020-2212"
  />
<missing-glyph horiz-adv-x="500" 
d="M410 -205h-317v1000h317v-1000zM168 728v-33h65v-37h-66v-33h166v33h-66v37h66v33h-165zM167 599v-104h166v34h-66v70h-100zM233 529h-33v36h33v-36zM167 468v-33h66v-37h-66v-33h100v70h66v33h-166zM300 408v-66h-133v-34h166v100h-33zM233 286v-56h34v23h33v-47h-100
v80h-33v-113h166v113h-100zM167 113v-113h166v113h-166zM300 33h-100v47h100v-47zM167 -23v-33h70l-70 -47v-33h166v33h-102l70 47h32v33h-166z" />
    <glyph glyph-name=".notdef" horiz-adv-x="500" 
d="M410 -205h-317v1000h317v-1000zM168 728v-33h65v-37h-66v-33h166v33h-66v37h66v33h-165zM167 599v-104h166v34h-66v70h-100zM233 529h-33v36h33v-36zM167 468v-33h66v-37h-66v-33h100v70h66v33h-166zM300 408v-66h-133v-34h166v100h-33zM233 286v-56h34v23h33v-47h-100
v80h-33v-113h166v113h-100zM167 113v-113h166v113h-166zM300 33h-100v47h100v-47zM167 -23v-33h70l-70 -47v-33h166v33h-102l70 47h32v33h-166z" />
    <glyph glyph-name=".null" horiz-adv-x="0" 
 />
    <glyph glyph-name="nonmarkingreturn" horiz-adv-x="333" 
 />
    <glyph glyph-name="space" unicode=" " horiz-adv-x="274" 
 />
    <glyph glyph-name="exclam" unicode="!" horiz-adv-x="321" 
d="M103 687h116l-24 -478h-68zM113 8q-20 20 -20 48q0 26 20 45.5t48 19.5q27 0 46 -19.5t19 -45.5q0 -28 -19 -48t-46 -20q-28 0 -48 20z" />
    <glyph glyph-name="quotedbl" unicode="&#x22;" horiz-adv-x="480" 
d="M110 443q-26 132 -26 181q0 23 16.5 40t39.5 17t39.5 -17t16.5 -40q0 -33 -8.5 -83.5t-23.5 -123.5h-49zM310 443q-26 132 -26 181q0 23 16.5 40t39.5 17t39.5 -17t16.5 -40q0 -33 -8.5 -83.5t-23.5 -123.5h-49z" />
    <glyph glyph-name="numbersign" unicode="#" horiz-adv-x="692" 
d="M517 438l-48 -190h111l-19 -75h-110l-44 -173h-80l44 173h-139l-44 -173h-79l44 173h-108l19 75h107l48 190h-109l19 75h109l44 174h79l-44 -174h139l44 174h80l-44 -174h110l-18 -75h-111zM437 438h-139l-48 -190h139z" />
    <glyph glyph-name="dollar" unicode="$" horiz-adv-x="669" 
d="M542 55.5q-56 -55.5 -157 -64.5v-65h-85v65q-138 15 -234 108l60 75q79 -75 174 -92v223q-105 27 -157 69t-52 124q0 53 26.5 96.5t74 70.5t108.5 33v61h85v-64q107 -15 195 -93l-58 -76q-62 58 -137 76v-213q105 -26 159 -70t54 -126t-56 -137.5zM219 449.5
q25 -21.5 81 -38.5v197q-47 -7 -76.5 -35.5t-29.5 -65.5q0 -36 25 -57.5zM467 116q29 29 29 67t-26.5 61t-84.5 40v-204q53 7 82 36z" />
    <glyph glyph-name="percent" unicode="%" horiz-adv-x="852" 
d="M138.5 370q-37.5 23 -58 62t-20.5 86q0 49 21 89t58.5 63t84.5 23q48 0 85 -23t57.5 -62.5t20.5 -87.5q0 -49 -21 -88.5t-58 -62t-85 -22.5q-47 0 -84.5 23zM619 687h89l-473 -687h-89zM287 441.5q25 30.5 25 77.5t-25 78t-64 31q-38 0 -63 -30.5t-25 -78.5
q0 -46 25.5 -77t63.5 -31t63 30.5zM543.5 12.5q-37.5 22.5 -58.5 62t-21 88.5q0 47 21 87t58.5 63t84.5 23q48 0 85 -23t57.5 -62.5t20.5 -86.5q0 -49 -21 -88.5t-58 -62.5t-84 -23t-84.5 22.5zM692.5 85.5q24.5 30.5 24.5 77.5t-25.5 78t-63.5 31q-39 0 -64 -31t-25 -77
q0 -47 25 -78t64 -31q40 0 64.5 30.5z" />
    <glyph glyph-name="ampersand" unicode="&#x26;" horiz-adv-x="713" 
d="M572 -10q-34 34 -84 86q-91 -88 -207 -88q-63 0 -113 24t-79 68t-29 104q0 67 37.5 115t117.5 83q-29 41 -42 75.5t-13 72.5q0 46 23.5 83.5t65 59.5t92.5 22q49 0 88.5 -22t62 -59.5t22.5 -82.5q0 -60 -39.5 -98t-124.5 -74q70 -80 140 -154q44 65 74 145l79 -36
q-45 -97 -96 -169l113 -115zM277 592.5q-26 -23.5 -26 -62.5q0 -26 12.5 -53t38.5 -60q66 26 93 50.5t27 62.5q0 36 -22.5 61t-57.5 25q-39 0 -65 -23.5zM431 135q-99 103 -169 186q-103 -51 -103 -133q0 -54 37.5 -86t92.5 -32q72 0 142 65z" />
    <glyph glyph-name="quotesingle" unicode="'" horiz-adv-x="280" 
d="M110 443q-26 132 -26 181q0 23 16.5 40t39.5 17t39.5 -17t16.5 -40q0 -33 -8.5 -83.5t-23.5 -123.5h-49z" />
    <glyph glyph-name="parenleft" unicode="(" horiz-adv-x="341" 
d="M105.5 23.5q-55.5 111.5 -55.5 241.5t55 241.5t159 193.5l51 -54q-83 -85 -123 -175.5t-40 -205.5t40 -205.5t123 -174.5l-51 -55q-103 82 -158.5 193.5z" />
    <glyph glyph-name="parenright" unicode=")" horiz-adv-x="341" 
d="M26 -115q83 85 123.5 175.5t40.5 204.5q0 115 -40.5 205t-123.5 176l51 54q104 -82 159 -193.5t55 -241.5t-55.5 -241.5t-158.5 -193.5z" />
    <glyph glyph-name="asterisk" unicode="*" horiz-adv-x="460" 
d="M208.5 373.5q-8.5 7.5 -8.5 18.5q0 26 10 76q6 34 8 46q-10 -7 -19 -15t-18 -15q-38 -34 -59 -46q-6 -3 -12 -3q-17 0 -26 15q-4 7 -4 15q0 15 13 23q23 13 70 30q34 12 43 16q-9 4 -43 16q-47 17 -70 30q-13 8 -13 23q0 13 9 21.5t21 8.5q6 0 12 -3q21 -12 59 -46
q9 -7 18 -15t19 -15q-2 12 -8 46q-10 50 -10 76q0 11 8.5 18.5t21.5 7.5q12 0 20.5 -7.5t8.5 -18.5q0 -26 -10 -76q-6 -34 -8 -46q10 7 19 15t18 15q38 34 59 46q6 3 12 3q17 0 26 -15q4 -7 4 -16q0 -14 -12 -22q-27 -15 -70 -29q-9 -4 -20.5 -8t-23.5 -9q12 -5 23.5 -9
t20.5 -8q43 -14 70 -29q12 -7 12 -23q0 -8 -4 -15q-10 -16 -26 -16q-4 0 -12 4q-21 12 -59 46q-9 7 -18 15t-19 15q2 -12 8 -46q10 -50 10 -76q0 -11 -8.5 -18.5t-20.5 -7.5q-13 0 -21.5 7.5z" />
    <glyph glyph-name="plus" unicode="+" horiz-adv-x="595" 
d="M531 289h-187v-188h-92v188h-188v89h188v190h92v-190h187v-89z" />
    <glyph glyph-name="comma" unicode="," horiz-adv-x="318" 
d="M101 -105q43 46 55 93q-27 0 -46 19.5t-19 47.5q0 27 19 46.5t47 19.5q33 0 53 -26.5t20 -68.5q0 -35 -19.5 -71.5t-67.5 -91.5z" />
    <glyph glyph-name="hyphen" unicode="-" horiz-adv-x="425" 
d="M81 318h264v-90h-264v90z" />
    <glyph glyph-name="period" unicode="." horiz-adv-x="330" 
d="M118 8q-20 20 -20 48q0 26 20 45.5t48 19.5q27 0 46 -19.5t19 -45.5q0 -28 -19 -48t-46 -20q-28 0 -48 20z" />
    <glyph glyph-name="slash" unicode="/" horiz-adv-x="461" 
d="M351 743h108l-349 -817h-108z" />
    <glyph glyph-name="zero" unicode="0" horiz-adv-x="698" 
d="M198 33.5q-67 45.5 -104.5 126.5t-37.5 184t37.5 183.5t104.5 126t152 45.5q84 0 150.5 -45.5t104 -126t37.5 -183.5t-37.5 -184t-103.5 -126.5t-151 -45.5t-152 45.5zM448 114.5q43 33.5 67 93.5t24 136t-24 135.5t-67 93t-98 33.5t-98.5 -33.5t-68 -93t-24.5 -135.5
t24.5 -136t68 -93.5t98.5 -33.5t98 33.5z" />
    <glyph glyph-name="one" unicode="1" horiz-adv-x="381" 
d="M182 567l-119 -76l-42 73l181 123h81v-687h-101v567z" />
    <glyph glyph-name="two" unicode="2" horiz-adv-x="580" 
d="M36 83l252 208q68 57 97.5 104t29.5 94q0 54 -38 86.5t-92 32.5t-97 -26t-81 -76l-68 60q96 133 250 133q64 0 116.5 -26t83 -73.5t30.5 -108.5q0 -69 -37 -129t-125 -132l-161 -136h329v-94h-489v83z" />
    <glyph glyph-name="three" unicode="3" horiz-adv-x="594" 
d="M137.5 20q-66.5 32 -108.5 85l65 67q36 -43 85 -68t107 -25q66 0 106 32t40 84q0 53 -42.5 80.5t-119.5 26.5h-75v90l75 -1q67 0 107.5 28t40.5 79q0 48 -40 79t-100 31q-51 0 -93 -23.5t-80 -68.5l-63 62q93 121 243 121q69 0 122.5 -24t83 -66.5t29.5 -96.5
q0 -60 -36.5 -101t-94.5 -59q60 -14 103 -55.5t43 -108.5q0 -58 -31 -103.5t-87 -71t-129 -25.5q-84 0 -150.5 32z" />
    <glyph glyph-name="four" unicode="4" horiz-adv-x="608" 
d="M380 158h-341l-11 81l333 448h120v-440h99v-89h-99v-158h-101v158zM380 247v325l-241 -325h241z" />
    <glyph glyph-name="five" unicode="5" horiz-adv-x="603" 
d="M159 16.5q-63 28.5 -109 79.5l63 72q86 -91 189 -91q66 0 108 39t42 98t-42 95.5t-109 36.5q-80 0 -146 -50l-71 32l10 359h422v-94h-326l-6 -204q66 44 142 44q63 0 114.5 -25.5t82 -74.5t30.5 -115q0 -68 -32 -120.5t-89.5 -81t-131.5 -28.5q-78 0 -141 28.5z" />
    <glyph glyph-name="six" unicode="6" horiz-adv-x="626" 
d="M464.5 408q52.5 -26 83.5 -74.5t31 -114.5q0 -65 -32 -118t-89 -83t-128 -30q-137 0 -204 94.5t-67 250.5q0 103 37.5 186.5t104 131.5t148.5 48q113 0 200 -79l-52 -78q-35 32 -70 49t-79 17q-51 0 -93 -34.5t-66.5 -94.5t-26.5 -135q31 43 80.5 66.5t105.5 23.5
q64 0 116.5 -26zM405.5 94q33.5 20 52 52.5t18.5 67.5q0 61 -43.5 98t-107.5 37q-57 0 -99 -30t-56 -80q13 -78 52 -121.5t105 -43.5q45 0 78.5 20z" />
    <glyph glyph-name="seven" unicode="7" horiz-adv-x="534" 
d="M386 593h-362v94h481v-76l-290 -611h-116z" />
    <glyph glyph-name="eight" unicode="8" horiz-adv-x="629" 
d="M182 12q-59 24 -93 67.5t-34 101.5q0 61 40.5 106.5t105.5 67.5q-60 24 -94 64t-34 96t33.5 98t89 64t118.5 22q65 0 120.5 -22.5t88.5 -64.5t33 -97q0 -58 -35.5 -98t-92.5 -62q65 -23 105 -68.5t40 -105.5q0 -58 -34.5 -102t-93.5 -67.5t-131 -23.5q-73 0 -132 24z
M411 426q44 30 44 78q0 45 -40.5 75.5t-100.5 30.5t-100 -30t-40 -76q0 -49 43.5 -78.5t96.5 -32.5q53 3 97 33zM426 108.5q45 31.5 45 81.5q0 34 -24 61t-60.5 42t-72.5 16q-35 -1 -71.5 -16t-61 -42t-24.5 -61q0 -50 45 -81.5t112 -31.5t112 31.5z" />
    <glyph glyph-name="nine" unicode="9" horiz-adv-x="626" 
d="M500 604.5q67 -94.5 67 -250.5q0 -103 -37.5 -186.5t-104 -131.5t-148.5 -48q-113 0 -200 79l52 78q35 -32 70 -49t79 -17q51 0 93 34.5t66.5 94.5t26.5 135q-31 -43 -80.5 -66.5t-105.5 -23.5q-64 0 -116.5 26t-83.5 74.5t-31 114.5q0 65 32 118t89 83t128 30
q137 0 204 -94.5zM400 368q42 30 56 80q-13 78 -52 121.5t-105 43.5q-45 0 -78.5 -20t-52 -52.5t-18.5 -67.5q0 -61 43.5 -98t107.5 -37q57 0 99 30z" />
    <glyph glyph-name="colon" unicode=":" horiz-adv-x="314" 
d="M110 405q-20 20 -20 48q0 26 20 45.5t48 19.5q26 0 45.5 -19.5t19.5 -45.5q0 -28 -19.5 -48t-45.5 -20q-28 0 -48 20zM110 8q-20 20 -20 48q0 26 20 45.5t48 19.5q26 0 45.5 -19.5t19.5 -45.5q0 -28 -19.5 -48t-45.5 -20q-28 0 -48 20z" />
    <glyph glyph-name="semicolon" unicode=";" horiz-adv-x="314" 
d="M100 -105q43 46 55 93q-27 0 -46 19.5t-19 47.5q0 27 19 46.5t47 19.5q33 0 53 -26.5t20 -68.5q0 -35 -19.5 -71.5t-67.5 -91.5zM110 405q-20 20 -20 48q0 26 20 45.5t48 19.5q27 0 46 -19.5t19 -45.5q0 -28 -19 -48t-46 -20q-28 0 -48 20z" />
    <glyph glyph-name="less" unicode="&#x3c;" horiz-adv-x="595" 
d="M58 305v77l459 219v-86l-371 -171l371 -171v-87z" />
    <glyph glyph-name="equal" unicode="=" horiz-adv-x="712" 
d="M122 491h467v-89h-467v89zM122 268h467v-89h-467v89z" />
    <glyph glyph-name="greater" unicode="&#x3e;" horiz-adv-x="595" 
d="M77 173l371 171l-371 171v86l459 -219v-77l-459 -219v87z" />
    <glyph glyph-name="question" unicode="?" horiz-adv-x="527" 
d="M190 387q82 6 134 38.5t52 76.5q0 43 -34.5 74.5t-89.5 31.5q-86 0 -156 -84l-62 62q92 113 229 113q63 0 112 -24.5t76 -67.5t27 -95q0 -44 -24.5 -84.5t-68.5 -69.5t-99 -41v-110h-96v180zM189.5 8q-19.5 20 -19.5 48q0 26 19.5 45.5t47.5 19.5q27 0 46 -19.5t19 -45.5
q0 -28 -19 -48t-46 -20q-28 0 -47.5 20z" />
    <glyph glyph-name="at" unicode="@" horiz-adv-x="928" 
d="M260 -65q-88 51 -139.5 137t-51.5 187q0 111 57 207t153 152.5t208 56.5q102 0 188 -48t136.5 -129.5t50.5 -175.5q0 -79 -27 -134.5t-70 -83t-91 -27.5q-47 0 -77.5 22t-40.5 61q-29 -37 -69.5 -60t-87.5 -23q-48 0 -86 22t-59.5 62t-21.5 92q0 67 33 124.5t86.5 91.5
t111.5 34q48 0 82 -21.5t53 -56.5l12 63l85 -6l-24 -126q-28 -135 -28 -161q0 -30 16.5 -46t45.5 -16t56.5 20.5t45 63t17.5 105.5q0 85 -45.5 157.5t-123.5 115.5t-170 43q-101 0 -188 -51.5t-138 -138.5t-51 -188q0 -92 46.5 -170t126 -124t172.5 -46q61 0 111.5 14.5
t103.5 46.5l19 -28q-57 -36 -113 -52.5t-123 -16.5q-103 0 -191 51zM527.5 195q40.5 45 47.5 115q1 6 1 19q0 47 -25 74t-73 27q-42 0 -78 -23.5t-57 -63t-21 -84.5q0 -49 28 -79t75 -30q62 0 102.5 45z" />
    <glyph glyph-name="A" unicode="A" horiz-adv-x="752" 
d="M554 143h-356l-61 -143h-112l295 687h112l295 -687h-112zM516 231l-140 326l-140 -326h280z" />
    <glyph glyph-name="B" unicode="B" horiz-adv-x="709" 
d="M102 687h326q57 0 101 -22t69 -61t25 -88q0 -52 -24.5 -88.5t-72.5 -63.5q60 -30 92.5 -75.5t32.5 -101.5q0 -54 -27 -96.5t-75 -66.5t-109 -24h-338v687zM402 401q52 0 85 27.5t33 70.5t-33 71t-85 28h-199v-197h199zM418 89q57 0 93.5 31.5t36.5 81.5t-36.5 81.5
t-93.5 31.5h-215v-226h215z" />
    <glyph glyph-name="C" unicode="C" horiz-adv-x="698" 
d="M233 36.5q-82 48.5 -131 130.5t-49 177t49 176.5t131 130t176 48.5q73 0 139 -28.5t115 -79.5l-71 -68q-36 39 -83.5 61t-99.5 22q-67 0 -125.5 -36t-93 -96t-34.5 -130t34.5 -130.5t93 -96.5t125.5 -36q52 0 99.5 22t83.5 61l71 -68q-50 -51 -116 -79.5t-138 -28.5
q-94 0 -176 48.5z" />
    <glyph glyph-name="D" unicode="D" horiz-adv-x="771" 
d="M102 687h237q110 0 196 -44t134.5 -122t48.5 -177t-48.5 -177.5t-134.5 -122.5t-196 -44h-237v687zM345 92q78 0 139.5 32t96 89.5t34.5 130.5t-34.5 130t-96 89t-139.5 32h-142v-503h142z" />
    <glyph glyph-name="E" unicode="E" horiz-adv-x="663" 
d="M204 593v-196h364v-94h-364v-209h403v-94h-505v687h505v-94h-403z" />
    <glyph glyph-name="F" unicode="F" 
d="M204 593v-200h364v-94h-364v-299h-102v687h505v-94h-403z" />
    <glyph glyph-name="G" unicode="G" horiz-adv-x="751" 
d="M396 370h285v-274q-49 -49 -123 -78.5t-148 -29.5q-95 0 -177 48.5t-131 130.5t-49 177t49 176.5t131 130t177 48.5q74 0 148 -29t123 -79l-71 -68q-35 38 -90.5 60.5t-109.5 22.5q-68 0 -126.5 -36t-93 -96t-34.5 -130t34.5 -130.5t93 -96.5t126.5 -36q44 0 89.5 15
t81.5 42v144h-185v88z" />
    <glyph glyph-name="H" unicode="H" horiz-adv-x="780" 
d="M678 687v-687h-101v303h-374v-303h-101v687h101v-290h374v290h101z" />
    <glyph glyph-name="I" unicode="I" horiz-adv-x="305" 
d="M102 687h101v-687h-101v687z" />
    <glyph glyph-name="J" unicode="J" horiz-adv-x="554" 
d="M116 20q-61 32 -93 82l70 69q20 -40 59.5 -65.5t82.5 -25.5q56 0 91.5 41.5t35.5 106.5v459h102v-463q0 -68 -28.5 -122t-79.5 -84t-116 -30q-63 0 -124 32z" />
    <glyph glyph-name="K" unicode="K" horiz-adv-x="698" 
d="M102 687h101v-358l325 358h128l-282 -309l301 -378h-127l-244 308l-101 -107v-201h-101v687z" />
    <glyph glyph-name="L" unicode="L" horiz-adv-x="594" 
d="M567 94v-94h-465v687h101v-593h364z" />
    <glyph glyph-name="M" unicode="M" horiz-adv-x="888" 
d="M102 687h101l241 -449l241 449h101v-687h-101v489l-241 -449l-241 449v-489h-101v687z" />
    <glyph glyph-name="N" unicode="N" horiz-adv-x="800" 
d="M102 687h101l394 -521v521h102v-687h-102l-394 521v-521h-101v687z" />
    <glyph glyph-name="O" unicode="O" horiz-adv-x="818" 
d="M233 36.5q-82 48.5 -131 130.5t-49 177t49 176.5t131 130t176 48.5q95 0 177 -48.5t130.5 -130t48.5 -176.5t-48.5 -177t-130.5 -130.5t-177 -48.5q-94 0 -176 48.5zM534.5 117q58.5 36 93 96.5t34.5 130.5t-34.5 130t-93 96t-125.5 36t-125.5 -36t-93 -96t-34.5 -130
t34.5 -130.5t93 -96.5t125.5 -36t125.5 36z" />
    <glyph glyph-name="P" unicode="P" horiz-adv-x="688" 
d="M102 687h289q71 0 129.5 -28.5t92 -80t33.5 -115.5t-33.5 -115.5t-92 -80t-129.5 -28.5h-188v-239h-101v687zM376 333q75 0 121 35t46 95t-46 95t-121 35h-173v-260h173z" />
    <glyph glyph-name="Q" unicode="Q" horiz-adv-x="829" 
d="M745.5 230q-19.5 -55 -55.5 -102l70 -60l-58 -68l-75 65q-46 -37 -102 -57t-116 -20q-94 0 -176 48.5t-131 130.5t-49 177t49 176.5t131 130t176 48.5q95 0 177 -48.5t130.5 -130t48.5 -176.5q0 -59 -19.5 -114zM553 129l-100 87l58 68l104 -90q47 67 47 150
q0 70 -34.5 130t-93 96t-125.5 36t-125.5 -36t-93 -96t-34.5 -130t34.5 -130.5t93 -96.5t125.5 -36q78 0 144 48z" />
    <glyph glyph-name="R" unicode="R" horiz-adv-x="695" 
d="M590.5 319q-55.5 -60 -143.5 -75l171 -244h-116l-168 239h-131v-239h-101v687h289q71 0 129.5 -28.5t92 -80t33.5 -115.5q0 -84 -55.5 -144zM203 333h173q75 0 121 35t46 95t-46 95t-121 35h-173v-260z" />
    <glyph glyph-name="S" unicode="S" horiz-adv-x="625" 
d="M43 99l60 75q101 -96 226 -96q68 0 106 30.5t38 74.5q0 46 -39.5 70.5t-132.5 45.5q-78 18 -127.5 41t-77.5 61t-28 97q0 57 31 103t85.5 72t122.5 26q75 0 136.5 -25t113.5 -72l-58 -76q-44 40 -94.5 62t-102.5 22q-37 0 -67 -14t-47 -38t-17 -51q0 -31 19 -51
t54.5 -33.5t98.5 -28.5q115 -27 173.5 -71t58.5 -130q0 -59 -29 -105t-85.5 -72.5t-135.5 -26.5q-169 0 -282 110z" />
    <glyph glyph-name="T" unicode="T" horiz-adv-x="606" 
d="M253 593h-226v94h552v-94h-225v-593h-101v593z" />
    <glyph glyph-name="U" unicode="U" horiz-adv-x="759" 
d="M227.5 26.5q-67.5 38.5 -105 107t-37.5 155.5v398h101v-396q0 -61 24.5 -109t69 -75t100.5 -27t100 27t68.5 75t24.5 109v396h102v-398q0 -87 -38 -155.5t-105 -107t-152 -38.5t-152.5 38.5z" />
    <glyph glyph-name="V" unicode="V" horiz-adv-x="753" 
d="M728 687l-296 -687h-111l-296 687h112l240 -558l239 558h112z" />
    <glyph glyph-name="W" unicode="W" horiz-adv-x="1077" 
d="M30 687h112l169 -524l172 524h111l172 -524l169 524h112l-226 -687h-101l-181 547l-182 -547h-101z" />
    <glyph glyph-name="X" unicode="X" horiz-adv-x="695" 
d="M408 344l259 -344h-122l-198 263l-199 -263h-120l259 343l-259 344h122l198 -263l199 263h120z" />
    <glyph glyph-name="Y" unicode="Y" horiz-adv-x="693" 
d="M295 269l-275 418h122l205 -322l208 322h117l-273 -418v-269h-104v269z" />
    <glyph glyph-name="Z" unicode="Z" horiz-adv-x="629" 
d="M45 79l396 514h-389v94h528v-79l-397 -514h401v-94h-539v79z" />
    <glyph glyph-name="bracketleft" unicode="[" horiz-adv-x="376" 
d="M98 725h248v-70h-166v-709h166v-70h-248v849z" />
    <glyph glyph-name="backslash" unicode="\" horiz-adv-x="461" 
d="M2 743h108l349 -817h-108z" />
    <glyph glyph-name="bracketright" unicode="]" horiz-adv-x="376" 
d="M30 -54h166v709h-166v70h248v-849h-248v70z" />
    <glyph glyph-name="asciicircum" unicode="^" horiz-adv-x="508" 
d="M218 687h73l157 -274h-78l-116 207l-117 -207h-77z" />
    <glyph glyph-name="underscore" unicode="_" horiz-adv-x="757" 
d="M81 -72h596v-73h-596v73z" />
    <glyph glyph-name="grave" unicode="`" horiz-adv-x="271" 
d="M27 704l97 20l119 -148h-72z" />
    <glyph glyph-name="a" unicode="a" horiz-adv-x="563" 
d="M436 470q57 -59 57 -157v-313h-97v70q-28 -39 -75 -60.5t-97 -21.5q-83 0 -137 45t-54 120q0 50 27.5 89.5t75 61t104.5 21.5q74 0 156 -28v16q0 57 -31 95.5t-102 38.5q-61 0 -145 -43l-37 73q104 52 196 52q102 0 159 -59zM340 91.5q44 25.5 56 70.5v69q-66 20 -141 20
q-53 0 -90 -27t-37 -68t32.5 -65.5t83.5 -24.5q52 0 96 25.5z" />
    <glyph glyph-name="b" unicode="b" horiz-adv-x="647" 
d="M487 494.5q54 -34.5 85 -96t31 -139.5t-31 -140t-85 -96.5t-121 -34.5q-60 0 -108 27t-78 77v-92h-99v699h99v-274q30 50 78 77t108 27q67 0 121 -34.5zM425 97.5q37 23.5 57.5 66t20.5 95.5t-20.5 95t-57.5 65.5t-83 23.5t-82.5 -23.5t-57 -65.5t-20.5 -95t20.5 -95.5
t57 -66t82.5 -23.5t83 23.5z" />
    <glyph glyph-name="c" unicode="c" horiz-adv-x="527" 
d="M175.5 25q-62.5 37 -100 99.5t-37.5 134.5t37.5 134t100.5 99t135 37q55 0 103.5 -21t87.5 -59l-67 -62q-24 26 -56.5 41t-67.5 15q-46 0 -86 -25t-63.5 -67.5t-23.5 -91.5q0 -50 23.5 -92.5t63.5 -67.5t86 -25q36 0 69 15.5t58 42.5l67 -61q-39 -39 -88.5 -61
t-105.5 -22q-73 0 -135.5 37z" />
    <glyph glyph-name="d" unicode="d" 
d="M564 699v-699h-99v88q-31 -47 -78 -73.5t-105 -26.5q-68 0 -122 34.5t-85 96.5t-31 140t31 139.5t85 96t122 34.5q58 0 105 -26.5t78 -73.5v270h99zM387.5 97.5q36.5 23.5 57 66t20.5 95.5t-20.5 95t-57 65.5t-82.5 23.5t-83 -23.5t-57.5 -65.5t-20.5 -95t20.5 -95.5
t57.5 -66t83 -23.5t82.5 23.5z" />
    <glyph glyph-name="e" unicode="e" horiz-adv-x="586" 
d="M391.5 87q43.5 17 67.5 42l58 -61q-33 -36 -92.5 -58t-116.5 -22q-71 0 -132.5 35t-98 97.5t-36.5 139.5q0 76 35 137.5t94.5 96.5t130.5 35q78 0 134.5 -37t86 -105t29.5 -160h-413q9 -70 54.5 -113.5t113.5 -43.5q42 0 85.5 17zM195.5 407q-45.5 -40 -56.5 -107h316
q-8 65 -47.5 106t-104.5 41q-62 0 -107.5 -40z" />
    <glyph glyph-name="f" unicode="f" horiz-adv-x="334" 
d="M199 517h122v-84h-122v-433h-97v433h-78v84h78v62q0 62 38 101.5t98 39.5q28 0 55 -10t48 -27l-36 -66q-8 8 -22.5 13.5t-30.5 5.5q-22 0 -37.5 -17.5t-15.5 -44.5v-57z" />
    <glyph glyph-name="g" unicode="g" horiz-adv-x="637" 
d="M556 517v-462q0 -66 -33.5 -117.5t-93 -80.5t-135.5 -29q-63 0 -120.5 19t-95.5 50l39 74q28 -27 71.5 -42t91.5 -15q83 0 130 38t47 105v75q-31 -45 -78 -69.5t-104 -24.5q-68 0 -121.5 31.5t-84 87.5t-30.5 127t30.5 127t84 87t121.5 31q57 0 104.5 -25t77.5 -69v82h99
zM413 168.5q44 44.5 44 115.5q0 70 -44 114.5t-114 44.5q-68 0 -112.5 -44.5t-44.5 -114.5t44.5 -115t112.5 -45q70 0 114 44.5z" />
    <glyph glyph-name="h" unicode="h" horiz-adv-x="608" 
d="M445 504q44 -25 68.5 -70.5t24.5 -104.5v-329h-96v312q0 58 -33 94.5t-86 36.5q-39 0 -72 -16.5t-52 -44.5t-19 -61v-321h-99v699h99v-258q23 39 67.5 63.5t97.5 24.5q56 0 100 -25z" />
    <glyph glyph-name="i" unicode="i" horiz-adv-x="261" 
d="M81 517h99v-517h-99v517zM88.5 621q-17.5 18 -17.5 42t17.5 41.5t42.5 17.5q24 0 41.5 -17.5t17.5 -41.5t-17.5 -42t-41.5 -18q-25 0 -42.5 18z" />
    <glyph glyph-name="j" unicode="j" horiz-adv-x="250" 
d="M-10.5 -173q-24.5 5 -41.5 13l13 77q27 -10 61 -10q24 0 39 17.5t15 44.5v548h98v-553q0 -62 -38.5 -102t-98.5 -40q-23 0 -47.5 5zM82.5 621q-17.5 18 -17.5 42t17.5 41.5t42.5 17.5q24 0 41.5 -17.5t17.5 -41.5t-17.5 -42t-41.5 -18q-25 0 -42.5 18z" />
    <glyph glyph-name="k" unicode="k" horiz-adv-x="563" 
d="M81 699h99v-447l253 265h120l-223 -234l213 -283h-118l-162 217l-83 -84v-133h-99v699z" />
    <glyph glyph-name="l" unicode="l" horiz-adv-x="261" 
d="M81 699h99v-699h-99v699z" />
    <glyph glyph-name="m" unicode="m" horiz-adv-x="916" 
d="M755.5 503.5q42.5 -25.5 66.5 -71t24 -103.5v-329h-96v314q0 57 -31 93t-79 36q-56 0 -91.5 -33.5t-35.5 -86.5v-323h-97v314q0 57 -30.5 93t-78.5 36q-56 0 -91.5 -33.5t-35.5 -86.5v-323h-99v517h99v-74q20 40 58.5 63t88.5 23q61 0 107 -33t66 -90q12 55 56 89t104 34
q53 0 95.5 -25.5z" />
    <glyph glyph-name="n" unicode="n" horiz-adv-x="608" 
d="M445 504q44 -25 68.5 -70.5t24.5 -104.5v-329h-96v312q0 58 -33 94.5t-86 36.5q-39 0 -72 -16.5t-52 -44.5t-19 -61v-321h-99v517h99v-76q23 39 67.5 63.5t97.5 24.5q56 0 100 -25z" />
    <glyph glyph-name="o" unicode="o" horiz-adv-x="622" 
d="M175.5 24.5q-62.5 36.5 -99.5 99t-37 135.5t37 135t99.5 98.5t135.5 36.5t135.5 -36.5t99.5 -98.5t37 -135t-37 -135.5t-99.5 -99t-135.5 -36.5t-135.5 36.5zM397.5 99q39.5 25 63 67.5t23.5 92.5t-23.5 92.5t-63 67t-86.5 24.5t-86.5 -24.5t-63 -67t-23.5 -92.5
t23.5 -92.5t63 -67.5t86.5 -25t86.5 25z" />
    <glyph glyph-name="p" unicode="p" 
d="M485 494.5q54 -34.5 85 -96t31 -139.5t-31 -140t-85 -96.5t-122 -34.5q-58 0 -105.5 26.5t-77.5 74.5v-261h-99v689h99v-88q31 47 78 73.5t105 26.5q68 0 122 -34.5zM423 97.5q37 23.5 57.5 66t20.5 95.5t-20.5 95t-57.5 65.5t-83 23.5t-82.5 -23.5t-57 -65.5t-20.5 -95
t20.5 -95.5t57 -66t82.5 -23.5t83 23.5z" />
    <glyph glyph-name="q" unicode="q" horiz-adv-x="648" 
d="M566 517v-689h-98v265q-30 -50 -78 -77.5t-108 -27.5q-68 0 -122 34.5t-85 96.5t-31 140t31 139.5t85 96t122 34.5q60 0 108 -27.5t78 -77.5v93h98zM387.5 97.5q36.5 23.5 57 66t20.5 95.5t-20.5 95t-57 65.5t-82.5 23.5t-83 -23.5t-57.5 -65.5t-20.5 -95t20.5 -95.5
t57.5 -66t83 -23.5t82.5 23.5z" />
    <glyph glyph-name="r" unicode="r" horiz-adv-x="407" 
d="M254.5 498.5q50.5 30.5 117.5 30.5v-86q-56 0 -100 -21t-68 -59.5t-24 -87.5v-275h-99v517h99v-101q24 52 74.5 82.5z" />
    <glyph glyph-name="s" unicode="s" horiz-adv-x="486" 
d="M135 8q-58 20 -104 57l45 68q43 -32 88 -48.5t88 -16.5q46 0 73.5 19t27.5 51q0 33 -29 49.5t-91 33.5q-95 27 -136.5 59t-41.5 92q0 71 52.5 114t135.5 43q49 0 99 -16t92 -44l-41 -70q-80 50 -150 50q-41 0 -67.5 -17.5t-26.5 -48.5q0 -20 12 -32t36 -21.5t75 -25.5
q56 -17 91.5 -32.5t59.5 -45.5t24 -78q0 -73 -54.5 -116.5t-141.5 -43.5q-58 0 -116 20z" />
    <glyph glyph-name="t" unicode="t" horiz-adv-x="361" 
d="M339 25q-21 -17 -48.5 -27t-55.5 -10q-60 0 -98 39.5t-38 101.5v304h-77v84h77v142h97v-142h122v-84h-122v-297q0 -27 16 -44.5t38 -17.5q16 0 30 5.5t22 13.5z" />
    <glyph glyph-name="u" unicode="u" horiz-adv-x="609" 
d="M527 517v-517h-99v74q-24 -39 -68 -62.5t-97 -23.5q-56 0 -100 25t-68.5 70.5t-24.5 104.5v329h97v-312q0 -58 33 -94.5t86 -36.5q39 0 71.5 16.5t51.5 44.5t19 61v321h99z" />
    <glyph glyph-name="v" unicode="v" horiz-adv-x="554" 
d="M11 517h106l161 -402l158 402h107l-218 -517h-93z" />
    <glyph glyph-name="w" unicode="w" horiz-adv-x="810" 
d="M16 517h101l118 -385l128 385h84l128 -385l119 385h101l-175 -517h-91l-123 384l-125 -384h-91z" />
    <glyph glyph-name="x" unicode="x" horiz-adv-x="528" 
d="M405 0l-141 190l-142 -190h-110l197 264l-189 253h112l132 -178l133 178h110l-188 -252l197 -265h-111z" />
    <glyph glyph-name="y" unicode="y" horiz-adv-x="554" 
d="M50 -158l22 76q29 -16 63 -16q25 0 42 9t29 31l26 55l-222 520h106l166 -408l157 408h103l-228 -564q-27 -68 -68 -100t-98 -33q-56 0 -98 22z" />
    <glyph glyph-name="z" unicode="z" horiz-adv-x="492" 
d="M34 74l290 354h-284v89h415l-1 -74l-290 -354h293v-89h-423v74z" />
    <glyph glyph-name="braceleft" unicode="{" horiz-adv-x="368" 
d="M206 -137.5q-46 20.5 -66 55t-20 89.5v134q0 49 -22.5 70.5t-74.5 21.5v66q53 0 75 21.5t22 70.5v133q0 55 20 90t66 55t126 28l7 -65q-59 -9 -88 -20.5t-39.5 -32.5t-10.5 -61l1 -138q0 -46 -19 -73.5t-56 -40.5q38 -14 56.5 -41.5t18.5 -73.5l-1 -137q0 -40 11 -61
t40 -33t87 -21l-7 -65q-80 8 -126 28.5z" />
    <glyph glyph-name="bar" unicode="|" horiz-adv-x="319" 
d="M122 743h74v-817h-74v817z" />
    <glyph glyph-name="braceright" unicode="}" horiz-adv-x="368" 
d="M28 -101q59 9 87.5 21t39.5 33t11 61l-1 137q0 46 18.5 73.5t57.5 41.5q-38 13 -57 40.5t-19 73.5l1 138q0 40 -10.5 61t-39.5 32.5t-88 20.5l8 65q79 -8 125.5 -28t66.5 -55t20 -90l-1 -133q0 -49 22 -70.5t75 -21.5v-66q-52 0 -74.5 -21.5t-22.5 -70.5l1 -134
q0 -54 -20 -89t-66 -55.5t-126 -28.5z" />
    <glyph glyph-name="asciitilde" unicode="~" horiz-adv-x="534" 
d="M294.5 306.5q-16.5 8.5 -40.5 26.5q-17 13 -28.5 19.5t-22.5 6.5q-19 0 -30.5 -15t-17.5 -48l-55 9q17 123 101 123q21 0 38 -9t41 -26q17 -13 28.5 -19.5t22.5 -6.5q19 0 30.5 15t17.5 48l54 -8q-15 -124 -101 -124q-21 0 -37.5 8.5z" />
    <glyph glyph-name="exclamdown" unicode="&#xa1;" horiz-adv-x="321" 
d="M208 509q20 -20 20 -48q0 -26 -20 -45.5t-48 -19.5q-26 0 -45.5 19.5t-19.5 45.5q0 28 19.5 48t45.5 20q28 0 48 -20zM218 -170h-116l24 478h69z" />
    <glyph glyph-name="cent" unicode="&#xa2;" horiz-adv-x="607" 
d="M470.5 17q-40.5 -21 -86.5 -27v-64h-84v67q-62 11 -113.5 49.5t-81 95.5t-29.5 121t30 120.5t81 95t113 49.5v65h84v-62q88 -12 156 -78l-67 -62q-38 42 -89 52v-361q53 12 92 54l67 -61q-32 -33 -72.5 -54zM211 148.5q35 -49.5 89 -66.5v353q-54 -17 -89 -66t-35 -110
t35 -110.5z" />
    <glyph glyph-name="sterling" unicode="&#xa3;" horiz-adv-x="679" 
d="M616 88v-88h-537v46l72 42v171h-65v71h65v133q0 68 28.5 122t79 84t115.5 30q69 0 130 -32t87 -82l-70 -69q-14 40 -53.5 65.5t-88.5 25.5q-56 0 -91.5 -41.5t-35.5 -106.5v-129h189v-71h-189v-171h364z" />
    <glyph glyph-name="yen" unicode="&#xa5;" horiz-adv-x="765" 
d="M472 327h159v-71h-197v-75h197v-71h-197v-110h-104v110h-195v71h195v75h-195v71h157l-237 360h122l205 -322l208 322h118z" />
    <glyph glyph-name="dieresis" unicode="&#xa8;" horiz-adv-x="443" 
d="M84 608.5q-16 15.5 -16 38.5q0 21 16 37.5t39 16.5q22 0 38 -16.5t16 -37.5q0 -22 -16 -38t-38 -16q-23 0 -39 15.5zM283 609q-16 16 -16 38q0 21 16 37.5t38 16.5t38 -16.5t16 -37.5q0 -22 -15.5 -38t-38.5 -16q-22 0 -38 16z" />
    <glyph glyph-name="copyright" unicode="&#xa9;" horiz-adv-x="933" 
d="M268.5 -62.5q-91.5 53.5 -145 144.5t-53.5 198t53.5 197.5t145 144t198.5 53.5t198 -53.5t144.5 -144t53.5 -197.5t-53.5 -198t-144.5 -144.5t-198 -53.5t-198.5 53.5zM646 -30.5q82 48.5 130.5 131t48.5 179.5q0 96 -48.5 178.5t-130.5 131t-179 48.5t-180 -48.5
t-131.5 -131t-48.5 -178.5q0 -97 48.5 -179.5t131.5 -131t180 -48.5t179 48.5zM333.5 46q-62.5 37 -100 99.5t-37.5 134.5t37.5 134t100 99t135.5 37q55 0 103.5 -21t86.5 -59l-67 -62q-23 26 -55.5 41t-67.5 15q-46 0 -86 -25t-63.5 -67.5t-23.5 -91.5q0 -50 23.5 -92.5
t63.5 -67.5t86 -25q36 0 69 15.5t57 42.5l67 -61q-38 -39 -87.5 -61t-105.5 -22q-73 0 -135.5 37z" />
    <glyph glyph-name="guillemotleft" unicode="&#xab;" horiz-adv-x="536" 
d="M33 252l162 199l88 -19l-145 -179l145 -182l-88 -20zM243 252l162 199l88 -19l-145 -179l145 -182l-88 -20z" />
    <glyph glyph-name="registered" unicode="&#xae;" horiz-adv-x="650" 
d="M448.5 642q56.5 -33 90 -89.5t33.5 -122.5t-33.5 -122.5t-90 -90t-122.5 -33.5q-67 0 -123.5 33.5t-90 90t-33.5 122.5t33.5 122.5t90 89.5t123.5 33q66 0 122.5 -33zM430.5 249q47.5 28 75.5 76t28 105q0 56 -28 104t-76 76t-104 28q-57 0 -105 -28t-76.5 -76
t-28.5 -104q0 -57 28.5 -105t76.5 -76t105 -28t104.5 28zM440.5 415.5q-17.5 -25.5 -47.5 -36.5l70 -100h-79l-64 91h-40v-91h-77v300h140q51 0 83 -29t32 -75q0 -34 -17.5 -59.5zM280 447h56q17 0 28 8t11 20q0 13 -11 20.5t-28 7.5h-56v-56z" />
    <glyph glyph-name="macron" unicode="&#xaf;" horiz-adv-x="483" 
d="M81 655h321v-65h-321v65z" />
    <glyph glyph-name="acute" unicode="&#xb4;" horiz-adv-x="274" 
d="M147 724l96 -20l-144 -128h-71z" />
    <glyph glyph-name="paragraph" unicode="&#xb6;" horiz-adv-x="687" 
d="M292 292q-70 0 -122.5 24.5t-81.5 69t-29 102.5t28 103t78 70t114 25h286v-736h-77v664h-119v-664h-77v342z" />
    <glyph glyph-name="periodcentered" unicode="&#xb7;" horiz-adv-x="323" 
d="M118 230q-18 18 -18 44t18 43.5t44 17.5q25 0 43 -17.5t18 -43.5t-18 -44t-43 -18q-26 0 -44 18z" />
    <glyph glyph-name="cedilla" unicode="&#xb8;" horiz-adv-x="289" 
d="M215 -63q20 -19 20 -48q0 -37 -29 -60t-72 -23q-26 0 -50 8t-41 21l22 47q27 -23 63 -23q20 0 34 10t14 25q0 14 -9.5 23t-27.5 9t-33 -10l-18 18l33 77h59l-23 -55h7q31 0 51 -19z" />
    <glyph glyph-name="guillemotright" unicode="&#xbb;" horiz-adv-x="535" 
d="M42 71l145 182l-145 179l88 19l162 -199l-162 -201zM252 71l145 182l-145 179l88 19l162 -199l-162 -201z" />
    <glyph glyph-name="questiondown" unicode="&#xbf;" horiz-adv-x="527" 
d="M338 509q20 -20 20 -48q0 -26 -20 -45.5t-48 -19.5q-27 0 -46 19.5t-19 45.5q0 28 19 48t46 20q28 0 48 -20zM338 130q-82 -6 -134 -38.5t-52 -76.5q0 -43 34 -74.5t89 -31.5q47 0 85 22t71 62l62 -62q-92 -113 -229 -113q-63 0 -112 24.5t-76 67.5t-27 95
q0 44 24.5 84.5t68.5 69.5t100 41v110h96v-180z" />
    <glyph glyph-name="Agrave" unicode="&#xc0;" horiz-adv-x="752" 
d="M554 143h-356l-61 -143h-112l295 687h112l295 -687h-112zM516 231l-140 326l-140 -326h280zM197 874l97 20l119 -148h-72z" />
    <glyph glyph-name="Aacute" unicode="&#xc1;" horiz-adv-x="752" 
d="M554 143h-356l-61 -143h-112l295 687h112l295 -687h-112zM516 231l-140 326l-140 -326h280zM460 894l96 -20l-144 -128h-71z" />
    <glyph glyph-name="Acircumflex" unicode="&#xc2;" horiz-adv-x="752" 
d="M554 143h-356l-61 -143h-112l295 687h112l295 -687h-112zM516 231l-140 326l-140 -326h280zM333 886h87l103 -140h-69l-78 82l-77 -82h-68z" />
    <glyph glyph-name="Atilde" unicode="&#xc3;" horiz-adv-x="752" 
d="M554 143h-356l-61 -143h-112l295 687h112l295 -687h-112zM516 231l-140 326l-140 -326h280zM403.5 752.5q-16.5 8.5 -40.5 26.5q-17 13 -28.5 19.5t-22.5 6.5q-19 0 -30.5 -15t-17.5 -48l-55 9q17 123 101 123q21 0 38 -9t41 -26q17 -13 28.5 -19.5t22.5 -6.5
q19 0 30.5 15t17.5 48l54 -8q-15 -124 -101 -124q-21 0 -37.5 8.5z" />
    <glyph glyph-name="Adieresis" unicode="&#xc4;" horiz-adv-x="752" 
d="M554 143h-356l-61 -143h-112l295 687h112l295 -687h-112zM516 231l-140 326l-140 -326h280zM239 778.5q-16 15.5 -16 38.5q0 21 16 37.5t39 16.5q22 0 38 -16.5t16 -37.5q0 -22 -16 -38t-38 -16q-23 0 -39 15.5zM438 779q-16 16 -16 38q0 21 16 37.5t38 16.5t38 -16.5
t16 -37.5q0 -22 -15.5 -38t-38.5 -16q-22 0 -38 16z" />
    <glyph glyph-name="Aring" unicode="&#xc5;" horiz-adv-x="752" 
d="M554 143h-356l-61 -143h-112l295 687h112l295 -687h-112zM516 231l-140 326l-140 -326h280zM301 787.5q-31 31.5 -31 75.5t31 75t75 31t75.5 -31t31.5 -75t-31.5 -75.5t-75.5 -31.5t-75 31.5zM416 823q17 17 17 40t-17 40t-40 17t-40 -17t-17 -40t17 -40t40 -17t40 17z
" />
    <glyph glyph-name="AE" unicode="&#xc6;" horiz-adv-x="1042" 
d="M418 687h568v-94h-403v-196h364v-94h-364v-209h403v-94h-505v143h-260l-82 -143h-117zM481 231v362l-209 -362h209z" />
    <glyph glyph-name="Ccedilla" unicode="&#xc7;" horiz-adv-x="698" 
d="M508.5 103q47.5 22 83.5 61l71 -68q-46 -47 -105 -75t-125 -32l-14 -33h7q31 0 51 -19t20 -48q0 -37 -29 -60t-72 -23q-26 0 -50 8t-41 21l22 47q27 -23 63 -23q20 0 34 10t14 25q0 14 -9.5 23t-27.5 9t-33 -10l-18 18l24 56q-87 9 -161 59t-117 128t-43 167
q0 95 49 176.5t131 130t176 48.5q73 0 139 -28.5t115 -79.5l-71 -68q-36 39 -83.5 61t-99.5 22q-67 0 -125.5 -36t-93 -96t-34.5 -130t34.5 -130.5t93 -96.5t125.5 -36q52 0 99.5 22z" />
    <glyph glyph-name="Egrave" unicode="&#xc8;" horiz-adv-x="663" 
d="M204 593v-196h364v-94h-364v-209h403v-94h-505v687h505v-94h-403zM175 874l97 20l119 -148h-72z" />
    <glyph glyph-name="Eacute" unicode="&#xc9;" horiz-adv-x="663" 
d="M204 593v-196h364v-94h-364v-209h403v-94h-505v687h505v-94h-403zM438 894l96 -20l-144 -128h-71z" />
    <glyph glyph-name="Ecircumflex" unicode="&#xca;" horiz-adv-x="663" 
d="M204 593v-196h364v-94h-364v-209h403v-94h-505v687h505v-94h-403zM311 886h87l103 -140h-69l-78 82l-77 -82h-68z" />
    <glyph glyph-name="Edieresis" unicode="&#xcb;" horiz-adv-x="663" 
d="M204 593v-196h364v-94h-364v-209h403v-94h-505v687h505v-94h-403zM217 778.5q-16 15.5 -16 38.5q0 21 16 37.5t39 16.5q22 0 38 -16.5t16 -37.5q0 -22 -16 -38t-38 -16q-23 0 -39 15.5zM416 779q-16 16 -16 38q0 21 16 37.5t38 16.5t38 -16.5t16 -37.5q0 -22 -15.5 -38
t-38.5 -16q-22 0 -38 16z" />
    <glyph glyph-name="Igrave" unicode="&#xcc;" horiz-adv-x="305" 
d="M102 687h101v-687h-101v687zM-27 874l97 20l119 -148h-72z" />
    <glyph glyph-name="Iacute" unicode="&#xcd;" horiz-adv-x="305" 
d="M102 687h101v-687h-101v687zM236 894l96 -20l-144 -128h-71z" />
    <glyph glyph-name="Icircumflex" unicode="&#xce;" horiz-adv-x="305" 
d="M102 687h101v-687h-101v687zM109 886h87l103 -140h-69l-78 82l-77 -82h-68z" />
    <glyph glyph-name="Idieresis" unicode="&#xcf;" horiz-adv-x="305" 
d="M102 687h101v-687h-101v687zM15 778.5q-16 15.5 -16 38.5q0 21 16 37.5t39 16.5q22 0 38 -16.5t16 -37.5q0 -22 -16 -38t-38 -16q-23 0 -39 15.5zM214 779q-16 16 -16 38q0 21 16 37.5t38 16.5t38 -16.5t16 -37.5q0 -22 -15.5 -38t-38.5 -16q-22 0 -38 16z" />
    <glyph glyph-name="Eth" unicode="&#xd0;" horiz-adv-x="797" 
d="M561.5 643q86.5 -44 135 -122t48.5 -177t-48.5 -177.5t-135 -122.5t-196.5 -44h-237v302h-85v94h85v291h237q110 0 196.5 -44zM511 124q61 32 95.5 89.5t34.5 130.5t-34.5 130t-96 89t-139.5 32h-142v-199h173l-1 -94h-172v-210h142q79 0 140 32z" />
    <glyph glyph-name="Ntilde" unicode="&#xd1;" horiz-adv-x="800" 
d="M102 687h101l394 -521v521h102v-687h-102l-394 521v-521h-101v687zM427.5 752.5q-16.5 8.5 -40.5 26.5q-17 13 -28.5 19.5t-22.5 6.5q-19 0 -30.5 -15t-17.5 -48l-55 9q17 123 101 123q21 0 38 -9t41 -26q17 -13 28.5 -19.5t22.5 -6.5q19 0 30.5 15t17.5 48l54 -8
q-15 -124 -101 -124q-21 0 -37.5 8.5z" />
    <glyph glyph-name="Ograve" unicode="&#xd2;" horiz-adv-x="818" 
d="M233 36.5q-82 48.5 -131 130.5t-49 177t49 176.5t131 130t176 48.5q95 0 177 -48.5t130.5 -130t48.5 -176.5t-48.5 -177t-130.5 -130.5t-177 -48.5q-94 0 -176 48.5zM534.5 117q58.5 36 93 96.5t34.5 130.5t-34.5 130t-93 96t-125.5 36t-125.5 -36t-93 -96t-34.5 -130
t34.5 -130.5t93 -96.5t125.5 -36t125.5 36zM230 874l97 20l119 -148h-72z" />
    <glyph glyph-name="Oacute" unicode="&#xd3;" horiz-adv-x="818" 
d="M233 36.5q-82 48.5 -131 130.5t-49 177t49 176.5t131 130t176 48.5q95 0 177 -48.5t130.5 -130t48.5 -176.5t-48.5 -177t-130.5 -130.5t-177 -48.5q-94 0 -176 48.5zM534.5 117q58.5 36 93 96.5t34.5 130.5t-34.5 130t-93 96t-125.5 36t-125.5 -36t-93 -96t-34.5 -130
t34.5 -130.5t93 -96.5t125.5 -36t125.5 36zM493 894l96 -20l-144 -128h-71z" />
    <glyph glyph-name="Ocircumflex" unicode="&#xd4;" horiz-adv-x="818" 
d="M233 36.5q-82 48.5 -131 130.5t-49 177t49 176.5t131 130t176 48.5q95 0 177 -48.5t130.5 -130t48.5 -176.5t-48.5 -177t-130.5 -130.5t-177 -48.5q-94 0 -176 48.5zM534.5 117q58.5 36 93 96.5t34.5 130.5t-34.5 130t-93 96t-125.5 36t-125.5 -36t-93 -96t-34.5 -130
t34.5 -130.5t93 -96.5t125.5 -36t125.5 36zM366 886h87l103 -140h-69l-78 82l-77 -82h-68z" />
    <glyph glyph-name="Otilde" unicode="&#xd5;" horiz-adv-x="818" 
d="M233 36.5q-82 48.5 -131 130.5t-49 177t49 176.5t131 130t176 48.5q95 0 177 -48.5t130.5 -130t48.5 -176.5t-48.5 -177t-130.5 -130.5t-177 -48.5q-94 0 -176 48.5zM534.5 117q58.5 36 93 96.5t34.5 130.5t-34.5 130t-93 96t-125.5 36t-125.5 -36t-93 -96t-34.5 -130
t34.5 -130.5t93 -96.5t125.5 -36t125.5 36zM436.5 752.5q-16.5 8.5 -40.5 26.5q-17 13 -28.5 19.5t-22.5 6.5q-19 0 -30.5 -15t-17.5 -48l-55 9q17 123 101 123q21 0 38 -9t41 -26q17 -13 28.5 -19.5t22.5 -6.5q19 0 30.5 15t17.5 48l54 -8q-15 -124 -101 -124
q-21 0 -37.5 8.5z" />
    <glyph glyph-name="Odieresis" unicode="&#xd6;" horiz-adv-x="818" 
d="M233 36.5q-82 48.5 -131 130.5t-49 177t49 176.5t131 130t176 48.5q95 0 177 -48.5t130.5 -130t48.5 -176.5t-48.5 -177t-130.5 -130.5t-177 -48.5q-94 0 -176 48.5zM534.5 117q58.5 36 93 96.5t34.5 130.5t-34.5 130t-93 96t-125.5 36t-125.5 -36t-93 -96t-34.5 -130
t34.5 -130.5t93 -96.5t125.5 -36t125.5 36zM271 778.5q-16 15.5 -16 38.5q0 21 16 37.5t39 16.5q22 0 38 -16.5t16 -37.5q0 -22 -16 -38t-38 -16q-23 0 -39 15.5zM470 779q-16 16 -16 38q0 21 16 37.5t38 16.5t38 -16.5t16 -37.5q0 -22 -15.5 -38t-38.5 -16q-22 0 -38 16z
" />
    <glyph glyph-name="multiply" unicode="&#xd7;" horiz-adv-x="539" 
d="M402 137l-133 133l-133 -132l-63 62l133 133l-134 134l65 65l134 -134l132 133l63 -64l-132 -132l133 -133z" />
    <glyph glyph-name="Oslash" unicode="&#xd8;" horiz-adv-x="832" 
d="M746 475q26 -63 26 -131q0 -95 -48.5 -177t-130 -130.5t-176.5 -48.5q-55 0 -107.5 17.5t-97.5 49.5l-47 -55h-100l91 105q-45 48 -70.5 110t-25.5 129q0 95 49 176.5t131 130t177 48.5q54 0 105 -16.5t94 -46.5l44 51h100l-87 -100q47 -49 73 -112zM179 256
q15 -42 42 -76l332 383q-64 43 -136 43q-67 0 -125.5 -36t-93 -96t-34.5 -130q0 -46 15 -88zM542 117q58 36 92.5 96.5t34.5 130.5q0 46 -16 89.5t-44 78.5l-334 -385q65 -46 142 -46q67 0 125 36z" />
    <glyph glyph-name="Ugrave" unicode="&#xd9;" horiz-adv-x="759" 
d="M227.5 26.5q-67.5 38.5 -105 107t-37.5 155.5v398h101v-396q0 -61 24.5 -109t69 -75t100.5 -27t100 27t68.5 75t24.5 109v396h102v-398q0 -87 -38 -155.5t-105 -107t-152 -38.5t-152.5 38.5zM200 874l97 20l119 -148h-72z" />
    <glyph glyph-name="Uacute" unicode="&#xda;" horiz-adv-x="759" 
d="M227.5 26.5q-67.5 38.5 -105 107t-37.5 155.5v398h101v-396q0 -61 24.5 -109t69 -75t100.5 -27t100 27t68.5 75t24.5 109v396h102v-398q0 -87 -38 -155.5t-105 -107t-152 -38.5t-152.5 38.5zM463 894l96 -20l-144 -128h-71z" />
    <glyph glyph-name="Ucircumflex" unicode="&#xdb;" horiz-adv-x="759" 
d="M227.5 26.5q-67.5 38.5 -105 107t-37.5 155.5v398h101v-396q0 -61 24.5 -109t69 -75t100.5 -27t100 27t68.5 75t24.5 109v396h102v-398q0 -87 -38 -155.5t-105 -107t-152 -38.5t-152.5 38.5zM336 886h87l103 -140h-69l-78 82l-77 -82h-68z" />
    <glyph glyph-name="Udieresis" unicode="&#xdc;" horiz-adv-x="759" 
d="M227.5 26.5q-67.5 38.5 -105 107t-37.5 155.5v398h101v-396q0 -61 24.5 -109t69 -75t100.5 -27t100 27t68.5 75t24.5 109v396h102v-398q0 -87 -38 -155.5t-105 -107t-152 -38.5t-152.5 38.5zM242 778.5q-16 15.5 -16 38.5q0 21 16 37.5t39 16.5q22 0 38 -16.5t16 -37.5
q0 -22 -16 -38t-38 -16q-23 0 -39 15.5zM441 779q-16 16 -16 38q0 21 16 37.5t38 16.5t38 -16.5t16 -37.5q0 -22 -15.5 -38t-38.5 -16q-22 0 -38 16z" />
    <glyph glyph-name="Yacute" unicode="&#xdd;" horiz-adv-x="693" 
d="M295 269l-275 418h122l205 -322l208 322h117l-273 -418v-269h-104v269zM430 894l96 -20l-144 -128h-71z" />
    <glyph glyph-name="Thorn" unicode="&#xde;" horiz-adv-x="696" 
d="M94 687h102v-117h187q72 0 130 -28.5t91.5 -80t33.5 -115.5q0 -65 -33.5 -116t-91.5 -79.5t-130 -28.5h-188v-122h-101v687zM369 216q75 0 120.5 35t45.5 95t-45.5 94.5t-120.5 34.5h-174v-259h174z" />
    <glyph glyph-name="germandbls" unicode="&#xdf;" horiz-adv-x="593" 
d="M81 524q0 54 28.5 96.5t78.5 66t114 23.5q63 0 113 -23.5t78 -66t28 -96.5q0 -118 -95 -160q123 -47 123 -177q0 -54 -27 -96.5t-75 -66.5t-109 -24h-82v89h60q57 0 93.5 31.5t36.5 81.5t-36.5 81.5t-93.5 31.5h-60v86h44q51 0 84.5 31t33.5 75q0 47 -33 77t-85 30
t-85 -31t-33 -80v-503h-101v524z" />
    <glyph glyph-name="agrave" unicode="&#xe0;" horiz-adv-x="563" 
d="M436 470q57 -59 57 -157v-313h-97v70q-28 -39 -75 -60.5t-97 -21.5q-83 0 -137 45t-54 120q0 50 27.5 89.5t75 61t104.5 21.5q74 0 156 -28v16q0 57 -31 95.5t-102 38.5q-61 0 -145 -43l-37 73q104 52 196 52q102 0 159 -59zM340 91.5q44 25.5 56 70.5v69q-66 20 -141 20
q-53 0 -90 -27t-37 -68t32.5 -65.5t83.5 -24.5q52 0 96 25.5zM98 704l97 20l119 -148h-72z" />
    <glyph glyph-name="aacute" unicode="&#xe1;" horiz-adv-x="563" 
d="M436 470q57 -59 57 -157v-313h-97v70q-28 -39 -75 -60.5t-97 -21.5q-83 0 -137 45t-54 120q0 50 27.5 89.5t75 61t104.5 21.5q74 0 156 -28v16q0 57 -31 95.5t-102 38.5q-61 0 -145 -43l-37 73q104 52 196 52q102 0 159 -59zM340 91.5q44 25.5 56 70.5v69q-66 20 -141 20
q-53 0 -90 -27t-37 -68t32.5 -65.5t83.5 -24.5q52 0 96 25.5zM361 724l96 -20l-144 -128h-71z" />
    <glyph glyph-name="acircumflex" unicode="&#xe2;" horiz-adv-x="563" 
d="M436 470q57 -59 57 -157v-313h-97v70q-28 -39 -75 -60.5t-97 -21.5q-83 0 -137 45t-54 120q0 50 27.5 89.5t75 61t104.5 21.5q74 0 156 -28v16q0 57 -31 95.5t-102 38.5q-61 0 -145 -43l-37 73q104 52 196 52q102 0 159 -59zM340 91.5q44 25.5 56 70.5v69q-66 20 -141 20
q-53 0 -90 -27t-37 -68t32.5 -65.5t83.5 -24.5q52 0 96 25.5zM234 716h87l103 -140h-69l-78 82l-77 -82h-68z" />
    <glyph glyph-name="atilde" unicode="&#xe3;" horiz-adv-x="563" 
d="M436 470q57 -59 57 -157v-313h-97v70q-28 -39 -75 -60.5t-97 -21.5q-83 0 -137 45t-54 120q0 50 27.5 89.5t75 61t104.5 21.5q74 0 156 -28v16q0 57 -31 95.5t-102 38.5q-61 0 -145 -43l-37 73q104 52 196 52q102 0 159 -59zM340 91.5q44 25.5 56 70.5v69q-66 20 -141 20
q-53 0 -90 -27t-37 -68t32.5 -65.5t83.5 -24.5q52 0 96 25.5zM304.5 582.5q-16.5 8.5 -40.5 26.5q-17 13 -28.5 19.5t-22.5 6.5q-19 0 -30.5 -15t-17.5 -48l-55 9q17 123 101 123q21 0 38 -9t41 -26q17 -13 28.5 -19.5t22.5 -6.5q19 0 30.5 15t17.5 48l54 -8
q-15 -124 -101 -124q-21 0 -37.5 8.5z" />
    <glyph glyph-name="adieresis" unicode="&#xe4;" horiz-adv-x="563" 
d="M436 470q57 -59 57 -157v-313h-97v70q-28 -39 -75 -60.5t-97 -21.5q-83 0 -137 45t-54 120q0 50 27.5 89.5t75 61t104.5 21.5q74 0 156 -28v16q0 57 -31 95.5t-102 38.5q-61 0 -145 -43l-37 73q104 52 196 52q102 0 159 -59zM340 91.5q44 25.5 56 70.5v69q-66 20 -141 20
q-53 0 -90 -27t-37 -68t32.5 -65.5t83.5 -24.5q52 0 96 25.5zM140 608.5q-16 15.5 -16 38.5q0 21 16 37.5t39 16.5q22 0 38 -16.5t16 -37.5q0 -22 -16 -38t-38 -16q-23 0 -39 15.5zM339 609q-16 16 -16 38q0 21 16 37.5t38 16.5t38 -16.5t16 -37.5q0 -22 -15.5 -38
t-38.5 -16q-22 0 -38 16z" />
    <glyph glyph-name="aring" unicode="&#xe5;" horiz-adv-x="563" 
d="M436 470q57 -59 57 -157v-313h-97v70q-28 -39 -75 -60.5t-97 -21.5q-83 0 -137 45t-54 120q0 50 27.5 89.5t75 61t104.5 21.5q74 0 156 -28v16q0 57 -31 95.5t-102 38.5q-61 0 -145 -43l-37 73q104 52 196 52q102 0 159 -59zM340 91.5q44 25.5 56 70.5v69q-66 20 -141 20
q-53 0 -90 -27t-37 -68t32.5 -65.5t83.5 -24.5q52 0 96 25.5zM202 617.5q-31 31.5 -31 75.5t31 75t75 31t75.5 -31t31.5 -75t-31.5 -75.5t-75.5 -31.5t-75 31.5zM317 653q17 17 17 40t-17 40t-40 17t-40 -17t-17 -40t17 -40t40 -17t40 17z" />
    <glyph glyph-name="ae" unicode="&#xe6;" horiz-adv-x="942" 
d="M747 86.5q43 16.5 67 42.5l58 -61q-33 -36 -92.5 -58t-116.5 -22q-64 0 -120 28.5t-93 78.5q-32 -49 -88.5 -78t-123.5 -29q-95 0 -150 44t-55 121q0 50 28 89.5t75.5 61t103.5 21.5q76 0 157 -29v17q0 56 -31.5 95t-102.5 39q-61 0 -145 -43l-36 73q103 52 192 52
q65 0 111.5 -24.5t71.5 -69.5q36 44 88 69t111 25q78 0 134.5 -37t86 -105t29.5 -160h-412q9 -69 54.5 -113t112.5 -44q43 0 86 16.5zM551.5 407q-45.5 -40 -56.5 -107h315q-8 65 -47 106t-104 41q-62 0 -107.5 -40zM324.5 83.5q33.5 17.5 53 47t19.5 64.5v36
q-65 20 -142 20q-53 0 -89.5 -27t-36.5 -68q0 -42 33 -66t90 -24q39 0 72.5 17.5z" />
    <glyph glyph-name="ccedilla" unicode="&#xe7;" horiz-adv-x="527" 
d="M423 12.5q-46 -21.5 -98 -24.5l-14 -32h7q31 0 51 -19t20 -48q0 -37 -29 -60t-72 -23q-26 0 -50 8t-41 21l22 47q27 -23 63 -23q20 0 34 10t14 25q0 14 -9.5 23t-27.5 9t-33 -10l-18 18l25 58q-63 10 -115.5 48.5t-83 96t-30.5 122.5q0 72 37.5 134t100.5 99t135 37
q55 0 103.5 -21t87.5 -59l-67 -62q-24 26 -56.5 41t-67.5 15q-46 0 -86 -25t-63.5 -67.5t-23.5 -91.5q0 -50 23.5 -92.5t63.5 -67.5t86 -25q36 0 69 15.5t58 42.5l67 -61q-36 -37 -82 -58.5z" />
    <glyph glyph-name="egrave" unicode="&#xe8;" horiz-adv-x="586" 
d="M391.5 87q43.5 17 67.5 42l58 -61q-33 -36 -92.5 -58t-116.5 -22q-71 0 -132.5 35t-98 97.5t-36.5 139.5q0 76 35 137.5t94.5 96.5t130.5 35q78 0 134.5 -37t86 -105t29.5 -160h-413q9 -70 54.5 -113.5t113.5 -43.5q42 0 85.5 17zM195.5 407q-45.5 -40 -56.5 -107h316
q-8 65 -47.5 106t-104.5 41q-62 0 -107.5 -40zM121 704l97 20l119 -148h-72z" />
    <glyph glyph-name="eacute" unicode="&#xe9;" horiz-adv-x="586" 
d="M391.5 87q43.5 17 67.5 42l58 -61q-33 -36 -92.5 -58t-116.5 -22q-71 0 -132.5 35t-98 97.5t-36.5 139.5q0 76 35 137.5t94.5 96.5t130.5 35q78 0 134.5 -37t86 -105t29.5 -160h-413q9 -70 54.5 -113.5t113.5 -43.5q42 0 85.5 17zM195.5 407q-45.5 -40 -56.5 -107h316
q-8 65 -47.5 106t-104.5 41q-62 0 -107.5 -40zM384 724l96 -20l-144 -128h-71z" />
    <glyph glyph-name="ecircumflex" unicode="&#xea;" horiz-adv-x="586" 
d="M391.5 87q43.5 17 67.5 42l58 -61q-33 -36 -92.5 -58t-116.5 -22q-71 0 -132.5 35t-98 97.5t-36.5 139.5q0 76 35 137.5t94.5 96.5t130.5 35q78 0 134.5 -37t86 -105t29.5 -160h-413q9 -70 54.5 -113.5t113.5 -43.5q42 0 85.5 17zM195.5 407q-45.5 -40 -56.5 -107h316
q-8 65 -47.5 106t-104.5 41q-62 0 -107.5 -40zM257 716h87l103 -140h-69l-78 82l-77 -82h-68z" />
    <glyph glyph-name="edieresis" unicode="&#xeb;" horiz-adv-x="586" 
d="M391.5 87q43.5 17 67.5 42l58 -61q-33 -36 -92.5 -58t-116.5 -22q-71 0 -132.5 35t-98 97.5t-36.5 139.5q0 76 35 137.5t94.5 96.5t130.5 35q78 0 134.5 -37t86 -105t29.5 -160h-413q9 -70 54.5 -113.5t113.5 -43.5q42 0 85.5 17zM195.5 407q-45.5 -40 -56.5 -107h316
q-8 65 -47.5 106t-104.5 41q-62 0 -107.5 -40zM163 608.5q-16 15.5 -16 38.5q0 21 16 37.5t39 16.5q22 0 38 -16.5t16 -37.5q0 -22 -16 -38t-38 -16q-23 0 -39 15.5zM362 609q-16 16 -16 38q0 21 16 37.5t38 16.5t38 -16.5t16 -37.5q0 -22 -15.5 -38t-38.5 -16q-22 0 -38 16
z" />
    <glyph glyph-name="igrave" unicode="&#xec;" horiz-adv-x="261" 
d="M81 517h99v-517h-99v517zM-48 704l97 20l119 -148h-72z" />
    <glyph glyph-name="iacute" unicode="&#xed;" horiz-adv-x="261" 
d="M81 517h99v-517h-99v517zM215 724l96 -20l-144 -128h-71z" />
    <glyph glyph-name="icircumflex" unicode="&#xee;" horiz-adv-x="261" 
d="M81 517h99v-517h-99v517zM88 716h87l103 -140h-69l-78 82l-77 -82h-68z" />
    <glyph glyph-name="idieresis" unicode="&#xef;" horiz-adv-x="261" 
d="M81 517h99v-517h-99v517zM-7 608.5q-16 15.5 -16 38.5q0 21 16 37.5t39 16.5q22 0 38 -16.5t16 -37.5q0 -22 -16 -38t-38 -16q-23 0 -39 15.5zM192 609q-16 16 -16 38q0 21 16 37.5t38 16.5t38 -16.5t16 -37.5q0 -22 -15.5 -38t-38.5 -16q-22 0 -38 16z" />
    <glyph glyph-name="eth" unicode="&#xf0;" horiz-adv-x="607" 
d="M517 447.5q43 -79.5 43 -174.5q0 -83 -33 -147.5t-92 -101t-134 -36.5t-134.5 33.5t-93 93t-33.5 134.5q0 72 29.5 128.5t82 88t119.5 31.5q95 0 162 -78q-39 76 -130 155l-117 -52l-29 67l81 37l-77 54l94 39l69 -55l96 43l30 -67l-66 -29q90 -84 133 -163.5z
M415.5 122.5q44.5 47.5 44.5 122.5q0 47 -20 85t-56.5 60.5t-84.5 22.5q-70 0 -115 -46.5t-45 -120.5q0 -49 20.5 -88t57.5 -61t84 -22q70 0 114.5 47.5z" />
    <glyph glyph-name="ntilde" unicode="&#xf1;" horiz-adv-x="608" 
d="M445 504q44 -25 68.5 -70.5t24.5 -104.5v-329h-96v312q0 58 -33 94.5t-86 36.5q-39 0 -72 -16.5t-52 -44.5t-19 -61v-321h-99v517h99v-76q23 39 67.5 63.5t97.5 24.5q56 0 100 -25zM335.5 582.5q-16.5 8.5 -40.5 26.5q-17 13 -28.5 19.5t-22.5 6.5q-19 0 -30.5 -15
t-17.5 -48l-55 9q17 123 101 123q21 0 38 -9t41 -26q17 -13 28.5 -19.5t22.5 -6.5q19 0 30.5 15t17.5 48l54 -8q-15 -124 -101 -124q-21 0 -37.5 8.5z" />
    <glyph glyph-name="ograve" unicode="&#xf2;" horiz-adv-x="622" 
d="M175.5 24.5q-62.5 36.5 -99.5 99t-37 135.5t37 135t99.5 98.5t135.5 36.5t135.5 -36.5t99.5 -98.5t37 -135t-37 -135.5t-99.5 -99t-135.5 -36.5t-135.5 36.5zM397.5 99q39.5 25 63 67.5t23.5 92.5t-23.5 92.5t-63 67t-86.5 24.5t-86.5 -24.5t-63 -67t-23.5 -92.5
t23.5 -92.5t63 -67.5t86.5 -25t86.5 25zM132 704l97 20l119 -148h-72z" />
    <glyph glyph-name="oacute" unicode="&#xf3;" horiz-adv-x="622" 
d="M175.5 24.5q-62.5 36.5 -99.5 99t-37 135.5t37 135t99.5 98.5t135.5 36.5t135.5 -36.5t99.5 -98.5t37 -135t-37 -135.5t-99.5 -99t-135.5 -36.5t-135.5 36.5zM397.5 99q39.5 25 63 67.5t23.5 92.5t-23.5 92.5t-63 67t-86.5 24.5t-86.5 -24.5t-63 -67t-23.5 -92.5
t23.5 -92.5t63 -67.5t86.5 -25t86.5 25zM395 724l96 -20l-144 -128h-71z" />
    <glyph glyph-name="ocircumflex" unicode="&#xf4;" horiz-adv-x="622" 
d="M175.5 24.5q-62.5 36.5 -99.5 99t-37 135.5t37 135t99.5 98.5t135.5 36.5t135.5 -36.5t99.5 -98.5t37 -135t-37 -135.5t-99.5 -99t-135.5 -36.5t-135.5 36.5zM397.5 99q39.5 25 63 67.5t23.5 92.5t-23.5 92.5t-63 67t-86.5 24.5t-86.5 -24.5t-63 -67t-23.5 -92.5
t23.5 -92.5t63 -67.5t86.5 -25t86.5 25zM268 716h87l103 -140h-69l-78 82l-77 -82h-68z" />
    <glyph glyph-name="otilde" unicode="&#xf5;" horiz-adv-x="622" 
d="M175.5 24.5q-62.5 36.5 -99.5 99t-37 135.5t37 135t99.5 98.5t135.5 36.5t135.5 -36.5t99.5 -98.5t37 -135t-37 -135.5t-99.5 -99t-135.5 -36.5t-135.5 36.5zM397.5 99q39.5 25 63 67.5t23.5 92.5t-23.5 92.5t-63 67t-86.5 24.5t-86.5 -24.5t-63 -67t-23.5 -92.5
t23.5 -92.5t63 -67.5t86.5 -25t86.5 25zM338.5 582.5q-16.5 8.5 -40.5 26.5q-17 13 -28.5 19.5t-22.5 6.5q-19 0 -30.5 -15t-17.5 -48l-55 9q17 123 101 123q21 0 38 -9t41 -26q17 -13 28.5 -19.5t22.5 -6.5q19 0 30.5 15t17.5 48l54 -8q-15 -124 -101 -124q-21 0 -37.5 8.5
z" />
    <glyph glyph-name="odieresis" unicode="&#xf6;" horiz-adv-x="622" 
d="M175.5 24.5q-62.5 36.5 -99.5 99t-37 135.5t37 135t99.5 98.5t135.5 36.5t135.5 -36.5t99.5 -98.5t37 -135t-37 -135.5t-99.5 -99t-135.5 -36.5t-135.5 36.5zM397.5 99q39.5 25 63 67.5t23.5 92.5t-23.5 92.5t-63 67t-86.5 24.5t-86.5 -24.5t-63 -67t-23.5 -92.5
t23.5 -92.5t63 -67.5t86.5 -25t86.5 25zM174 608.5q-16 15.5 -16 38.5q0 21 16 37.5t39 16.5q22 0 38 -16.5t16 -37.5q0 -22 -16 -38t-38 -16q-23 0 -39 15.5zM373 609q-16 16 -16 38q0 21 16 37.5t38 16.5t38 -16.5t16 -37.5q0 -22 -15.5 -38t-38.5 -16q-22 0 -38 16z" />
    <glyph glyph-name="divide" unicode="&#xf7;" horiz-adv-x="597" 
d="M254.5 461q-18.5 19 -18.5 45q0 25 18.5 43.5t45.5 18.5q25 0 43.5 -18.5t18.5 -43.5q0 -26 -18.5 -45t-43.5 -19q-27 0 -45.5 19zM65 379h467v-89h-467v89zM254.5 119q-18.5 19 -18.5 45q0 25 18.5 43.5t45.5 18.5q25 0 43.5 -18.5t18.5 -43.5q0 -26 -18.5 -45
t-43.5 -19q-27 0 -45.5 19z" />
    <glyph glyph-name="oslash" unicode="&#xf8;" horiz-adv-x="642" 
d="M523 436q32 -36 49.5 -81.5t17.5 -95.5q0 -73 -36.5 -135.5t-99 -99t-135.5 -36.5q-78 0 -144 41l-25 -29h-92l63 74q-35 37 -54.5 84.5t-19.5 100.5q0 73 36.5 135t99 98.5t136.5 36.5q82 0 152 -46l29 34h92zM183 146l229 268q-44 29 -93 29q-47 0 -86.5 -24.5t-63 -67
t-23.5 -92.5q0 -63 37 -113zM461 363l-227 -265q40 -24 85 -24q47 0 86.5 25t62.5 67.5t23 92.5q0 58 -30 104z" />
    <glyph glyph-name="ugrave" unicode="&#xf9;" horiz-adv-x="609" 
d="M527 517v-517h-99v74q-24 -39 -68 -62.5t-97 -23.5q-56 0 -100 25t-68.5 70.5t-24.5 104.5v329h97v-312q0 -58 33 -94.5t86 -36.5q39 0 71.5 16.5t51.5 44.5t19 61v321h99zM112 704l97 20l119 -148h-72z" />
    <glyph glyph-name="uacute" unicode="&#xfa;" horiz-adv-x="609" 
d="M527 517v-517h-99v74q-24 -39 -68 -62.5t-97 -23.5q-56 0 -100 25t-68.5 70.5t-24.5 104.5v329h97v-312q0 -58 33 -94.5t86 -36.5q39 0 71.5 16.5t51.5 44.5t19 61v321h99zM375 724l96 -20l-144 -128h-71z" />
    <glyph glyph-name="ucircumflex" unicode="&#xfb;" horiz-adv-x="609" 
d="M527 517v-517h-99v74q-24 -39 -68 -62.5t-97 -23.5q-56 0 -100 25t-68.5 70.5t-24.5 104.5v329h97v-312q0 -58 33 -94.5t86 -36.5q39 0 71.5 16.5t51.5 44.5t19 61v321h99zM248 716h87l103 -140h-69l-78 82l-77 -82h-68z" />
    <glyph glyph-name="udieresis" unicode="&#xfc;" horiz-adv-x="609" 
d="M527 517v-517h-99v74q-24 -39 -68 -62.5t-97 -23.5q-56 0 -100 25t-68.5 70.5t-24.5 104.5v329h97v-312q0 -58 33 -94.5t86 -36.5q39 0 71.5 16.5t51.5 44.5t19 61v321h99zM154 608.5q-16 15.5 -16 38.5q0 21 16 37.5t39 16.5q22 0 38 -16.5t16 -37.5q0 -22 -16 -38
t-38 -16q-23 0 -39 15.5zM353 609q-16 16 -16 38q0 21 16 37.5t38 16.5t38 -16.5t16 -37.5q0 -22 -15.5 -38t-38.5 -16q-22 0 -38 16z" />
    <glyph glyph-name="yacute" unicode="&#xfd;" horiz-adv-x="554" 
d="M50 -158l22 76q29 -16 63 -16q25 0 42 9t29 31l26 55l-222 520h106l166 -408l157 408h103l-228 -564q-27 -68 -68 -100t-98 -33q-56 0 -98 22zM365 724l96 -20l-144 -128h-71z" />
    <glyph glyph-name="thorn" unicode="&#xfe;" horiz-adv-x="646" 
d="M486 494.5q54 -34.5 85 -96t31 -139.5t-31 -140t-85 -96.5t-122 -34.5q-58 0 -105 26.5t-78 73.5v-260h-99v871h99v-270q31 47 78 73.5t105 26.5q68 0 122 -34.5zM424 97.5q37 23.5 57.5 66t20.5 95.5t-20.5 95t-57.5 65.5t-83 23.5t-82.5 -23.5t-57 -65.5t-20.5 -95
t20.5 -95.5t57 -66t82.5 -23.5t83 23.5z" />
    <glyph glyph-name="ydieresis" unicode="&#xff;" horiz-adv-x="554" 
d="M50 -158l22 76q29 -16 63 -16q25 0 42 9t29 31l26 55l-222 520h106l166 -408l157 408h103l-228 -564q-27 -68 -68 -100t-98 -33q-56 0 -98 22zM144 608.5q-16 15.5 -16 38.5q0 21 16 37.5t39 16.5q22 0 38 -16.5t16 -37.5q0 -22 -16 -38t-38 -16q-23 0 -39 15.5zM343 609
q-16 16 -16 38q0 21 16 37.5t38 16.5t38 -16.5t16 -37.5q0 -22 -15.5 -38t-38.5 -16q-22 0 -38 16z" />
    <glyph glyph-name="Amacron" unicode="&#x100;" horiz-adv-x="752" 
d="M554 143h-356l-61 -143h-112l295 687h112l295 -687h-112zM516 231l-140 326l-140 -326h280zM216 825h321v-65h-321v65z" />
    <glyph glyph-name="amacron" unicode="&#x101;" horiz-adv-x="563" 
d="M436 470q57 -59 57 -157v-313h-97v70q-28 -39 -75 -60.5t-97 -21.5q-83 0 -137 45t-54 120q0 50 27.5 89.5t75 61t104.5 21.5q74 0 156 -28v16q0 57 -31 95.5t-102 38.5q-61 0 -145 -43l-37 73q104 52 196 52q102 0 159 -59zM340 91.5q44 25.5 56 70.5v69q-66 20 -141 20
q-53 0 -90 -27t-37 -68t32.5 -65.5t83.5 -24.5q52 0 96 25.5zM117 655h321v-65h-321v65z" />
    <glyph glyph-name="Abreve" unicode="&#x102;" horiz-adv-x="752" 
d="M554 143h-356l-61 -143h-112l295 687h112l295 -687h-112zM516 231l-140 326l-140 -326h280zM296 772q-39 16 -71 46l53 53q20 -20 46.5 -31t51.5 -11q26 0 52.5 11t46.5 31l52 -53q-30 -30 -69.5 -46t-81.5 -16q-41 0 -80 16z" />
    <glyph glyph-name="abreve" unicode="&#x103;" horiz-adv-x="563" 
d="M436 470q57 -59 57 -157v-313h-97v70q-28 -39 -75 -60.5t-97 -21.5q-83 0 -137 45t-54 120q0 50 27.5 89.5t75 61t104.5 21.5q74 0 156 -28v16q0 57 -31 95.5t-102 38.5q-61 0 -145 -43l-37 73q104 52 196 52q102 0 159 -59zM340 91.5q44 25.5 56 70.5v69q-66 20 -141 20
q-53 0 -90 -27t-37 -68t32.5 -65.5t83.5 -24.5q52 0 96 25.5zM197 602q-39 16 -71 46l53 53q20 -20 46.5 -31t51.5 -11q26 0 52.5 11t46.5 31l52 -53q-30 -30 -69.5 -46t-81.5 -16q-41 0 -80 16z" />
    <glyph glyph-name="Aogonek" unicode="&#x104;" horiz-adv-x="752" 
d="M801 -143q-35 -30 -85 -30q-49 0 -79.5 29t-30.5 79q0 37 23 65h-14l-61 143h-356l-61 -143h-112l295 687h112l295 -687h1q-24 0 -39 -15t-15 -38q0 -24 14.5 -37.5t39.5 -13.5q28 0 43 17zM516 231l-140 326l-140 -326h280z" />
    <glyph glyph-name="aogonek" unicode="&#x105;" horiz-adv-x="563" 
d="M567 -143q-35 -30 -85 -30q-49 0 -79.5 29t-30.5 79q0 39 24 66v69q-28 -39 -75 -60.5t-97 -21.5q-83 0 -137 45t-54 120q0 50 27.5 89.5t75 61t104.5 21.5q74 0 156 -28v16q0 57 -31 95.5t-102 38.5q-61 0 -145 -43l-37 73q104 52 196 52q102 0 159 -59t57 -157v-313h1
q-24 0 -39 -15t-15 -38q0 -24 14.5 -37.5t39.5 -13.5q28 0 43 17zM340 91.5q44 25.5 56 70.5v69q-66 20 -141 20q-53 0 -90 -27t-37 -68t32.5 -65.5t83.5 -24.5q52 0 96 25.5z" />
    <glyph glyph-name="Cacute" unicode="&#x106;" horiz-adv-x="698" 
d="M233 36.5q-82 48.5 -131 130.5t-49 177t49 176.5t131 130t176 48.5q73 0 139 -28.5t115 -79.5l-71 -68q-36 39 -83.5 61t-99.5 22q-67 0 -125.5 -36t-93 -96t-34.5 -130t34.5 -130.5t93 -96.5t125.5 -36q52 0 99.5 22t83.5 61l71 -68q-50 -51 -116 -79.5t-138 -28.5
q-94 0 -176 48.5zM493 894l96 -20l-144 -128h-71z" />
    <glyph glyph-name="cacute" unicode="&#x107;" horiz-adv-x="527" 
d="M175.5 25q-62.5 37 -100 99.5t-37.5 134.5t37.5 134t100.5 99t135 37q55 0 103.5 -21t87.5 -59l-67 -62q-24 26 -56.5 41t-67.5 15q-46 0 -86 -25t-63.5 -67.5t-23.5 -91.5q0 -50 23.5 -92.5t63.5 -67.5t86 -25q36 0 69 15.5t58 42.5l67 -61q-39 -39 -88.5 -61
t-105.5 -22q-73 0 -135.5 37zM374 724l96 -20l-144 -128h-71z" />
    <glyph glyph-name="Ccaron" unicode="&#x10c;" horiz-adv-x="698" 
d="M233 36.5q-82 48.5 -131 130.5t-49 177t49 176.5t131 130t176 48.5q73 0 139 -28.5t115 -79.5l-71 -68q-36 39 -83.5 61t-99.5 22q-67 0 -125.5 -36t-93 -96t-34.5 -130t34.5 -130.5t93 -96.5t125.5 -36q52 0 99.5 22t83.5 61l71 -68q-50 -51 -116 -79.5t-138 -28.5
q-94 0 -176 48.5zM265 886h68l77 -82l78 82h69l-104 -140h-87z" />
    <glyph glyph-name="ccaron" unicode="&#x10d;" horiz-adv-x="527" 
d="M175.5 25q-62.5 37 -100 99.5t-37.5 134.5t37.5 134t100.5 99t135 37q55 0 103.5 -21t87.5 -59l-67 -62q-24 26 -56.5 41t-67.5 15q-46 0 -86 -25t-63.5 -67.5t-23.5 -91.5q0 -50 23.5 -92.5t63.5 -67.5t86 -25q36 0 69 15.5t58 42.5l67 -61q-39 -39 -88.5 -61
t-105.5 -22q-73 0 -135.5 37zM146 716h68l77 -82l78 82h69l-104 -140h-87z" />
    <glyph glyph-name="Dcaron" unicode="&#x10e;" horiz-adv-x="771" 
d="M102 687h237q110 0 196 -44t134.5 -122t48.5 -177t-48.5 -177.5t-134.5 -122.5t-196 -44h-237v687zM345 92q78 0 139.5 32t96 89.5t34.5 130.5t-34.5 130t-96 89t-139.5 32h-142v-503h142zM194 886h68l77 -82l78 82h69l-104 -140h-87z" />
    <glyph glyph-name="dcaron" unicode="&#x10f;" horiz-adv-x="712" 
d="M564 699v-699h-99v88q-31 -47 -78 -73.5t-105 -26.5q-68 0 -122 34.5t-85 96.5t-31 140t31 139.5t85 96t122 34.5q58 0 105 -26.5t78 -73.5v270h99zM387.5 97.5q36.5 23.5 57 66t20.5 95.5t-20.5 95t-57 65.5t-82.5 23.5t-83 -23.5t-57.5 -65.5t-20.5 -95t20.5 -95.5
t57.5 -66t83 -23.5t82.5 23.5zM652 514q36 37 45 78q-21 0 -36.5 15.5t-15.5 37.5t16 38t38 16q27 0 43 -21.5t16 -55.5q0 -28 -16 -57.5t-55 -75.5z" />
    <glyph glyph-name="Dcroat" unicode="&#x110;" horiz-adv-x="797" 
d="M561.5 643q86.5 -44 135 -122t48.5 -177t-48.5 -177.5t-135 -122.5t-196.5 -44h-237v302h-85v94h85v291h237q110 0 196.5 -44zM511 124q61 32 95.5 89.5t34.5 130.5t-34.5 130t-96 89t-139.5 32h-142v-199h173l-1 -94h-172v-210h142q79 0 140 32z" />
    <glyph glyph-name="dcroat" unicode="&#x111;" 
d="M632 581h-68v-581h-99v88q-31 -47 -78 -73.5t-105 -26.5q-68 0 -122 34.5t-85 96.5t-31 140t31 139.5t85 96t122 34.5q58 0 105 -26.5t78 -73.5v152h-159v58h159v60h99v-60h68v-58zM387.5 97.5q36.5 23.5 57 66t20.5 95.5t-20.5 95t-57 65.5t-82.5 23.5t-83 -23.5
t-57.5 -65.5t-20.5 -95t20.5 -95.5t57.5 -66t83 -23.5t82.5 23.5z" />
    <glyph glyph-name="Emacron" unicode="&#x112;" horiz-adv-x="663" 
d="M204 593v-196h364v-94h-364v-209h403v-94h-505v687h505v-94h-403zM194 825h321v-65h-321v65z" />
    <glyph glyph-name="emacron" unicode="&#x113;" horiz-adv-x="586" 
d="M391.5 87q43.5 17 67.5 42l58 -61q-33 -36 -92.5 -58t-116.5 -22q-71 0 -132.5 35t-98 97.5t-36.5 139.5q0 76 35 137.5t94.5 96.5t130.5 35q78 0 134.5 -37t86 -105t29.5 -160h-413q9 -70 54.5 -113.5t113.5 -43.5q42 0 85.5 17zM195.5 407q-45.5 -40 -56.5 -107h316
q-8 65 -47.5 106t-104.5 41q-62 0 -107.5 -40zM140 655h321v-65h-321v65z" />
    <glyph glyph-name="Edotaccent" unicode="&#x116;" horiz-adv-x="663" 
d="M204 593v-196h364v-94h-364v-209h403v-94h-505v687h505v-94h-403zM316 778.5q-16 15.5 -16 38.5q0 21 16 37.5t39 16.5q22 0 38 -16.5t16 -37.5q0 -22 -16 -38t-38 -16q-23 0 -39 15.5z" />
    <glyph glyph-name="edotaccent" unicode="&#x117;" horiz-adv-x="586" 
d="M391.5 87q43.5 17 67.5 42l58 -61q-33 -36 -92.5 -58t-116.5 -22q-71 0 -132.5 35t-98 97.5t-36.5 139.5q0 76 35 137.5t94.5 96.5t130.5 35q78 0 134.5 -37t86 -105t29.5 -160h-413q9 -70 54.5 -113.5t113.5 -43.5q42 0 85.5 17zM195.5 407q-45.5 -40 -56.5 -107h316
q-8 65 -47.5 106t-104.5 41q-62 0 -107.5 -40zM262 608.5q-16 15.5 -16 38.5q0 21 16 37.5t39 16.5q22 0 38 -16.5t16 -37.5q0 -22 -16 -38t-38 -16q-23 0 -39 15.5z" />
    <glyph glyph-name="Eogonek" unicode="&#x118;" horiz-adv-x="661" 
d="M204 593v-196h364v-94h-364v-209h403v-94h-102q-23 0 -38.5 -15t-15.5 -38q0 -24 14.5 -37.5t40.5 -13.5q28 0 43 17l30 -56q-36 -30 -86 -30q-49 0 -79 29t-30 79q0 37 23 65h-305v687h505v-94h-403z" />
    <glyph glyph-name="eogonek" unicode="&#x119;" horiz-adv-x="595" 
d="M492 -69l30 -55q-35 -30 -85 -30t-80 29t-30 79q0 18 6 35q-8 -1 -25 -1q-71 0 -132.5 35t-98 97.5t-36.5 139.5q0 76 35 137.5t94.5 96.5t130.5 35q78 0 134.5 -37t86 -105t29.5 -160h-413q9 -70 54.5 -113.5t113.5 -43.5q42 0 85.5 17t67.5 42l58 -61q-29 -30 -70 -48
l2 -1h-3q-14 -6 -34 -13q-17 -15 -17 -40q0 -24 14.5 -38t39.5 -14q28 0 43 17zM195.5 407q-45.5 -40 -56.5 -107h316q-8 65 -47.5 106t-104.5 41q-62 0 -107.5 -40z" />
    <glyph glyph-name="Ecaron" unicode="&#x11a;" horiz-adv-x="663" 
d="M204 593v-196h364v-94h-364v-209h403v-94h-505v687h505v-94h-403zM210 886h68l77 -82l78 82h69l-104 -140h-87z" />
    <glyph glyph-name="ecaron" unicode="&#x11b;" horiz-adv-x="586" 
d="M391.5 87q43.5 17 67.5 42l58 -61q-33 -36 -92.5 -58t-116.5 -22q-71 0 -132.5 35t-98 97.5t-36.5 139.5q0 76 35 137.5t94.5 96.5t130.5 35q78 0 134.5 -37t86 -105t29.5 -160h-413q9 -70 54.5 -113.5t113.5 -43.5q42 0 85.5 17zM195.5 407q-45.5 -40 -56.5 -107h316
q-8 65 -47.5 106t-104.5 41q-62 0 -107.5 -40zM156 716h68l77 -82l78 82h69l-104 -140h-87z" />
    <glyph glyph-name="Gbreve" unicode="&#x11e;" horiz-adv-x="751" 
d="M396 370h285v-274q-49 -49 -123 -78.5t-148 -29.5q-95 0 -177 48.5t-131 130.5t-49 177t49 176.5t131 130t177 48.5q74 0 148 -29t123 -79l-71 -68q-35 38 -90.5 60.5t-109.5 22.5q-68 0 -126.5 -36t-93 -96t-34.5 -130t34.5 -130.5t93 -96.5t126.5 -36q44 0 89.5 15
t81.5 42v144h-185v88zM330 772q-39 16 -71 46l53 53q20 -20 46.5 -31t51.5 -11q26 0 52.5 11t46.5 31l52 -53q-30 -30 -69.5 -46t-81.5 -16q-41 0 -80 16z" />
    <glyph glyph-name="gbreve" unicode="&#x11f;" horiz-adv-x="637" 
d="M556 517v-462q0 -66 -33.5 -117.5t-93 -80.5t-135.5 -29q-63 0 -120.5 19t-95.5 50l39 74q28 -27 71.5 -42t91.5 -15q83 0 130 38t47 105v75q-31 -45 -78 -69.5t-104 -24.5q-68 0 -121.5 31.5t-84 87.5t-30.5 127t30.5 127t84 87t121.5 31q57 0 104.5 -25t77.5 -69v82h99
zM413 168.5q44 44.5 44 115.5q0 70 -44 114.5t-114 44.5q-68 0 -112.5 -44.5t-44.5 -114.5t44.5 -115t112.5 -45q70 0 114 44.5zM222 602q-39 16 -71 46l53 53q20 -20 46.5 -31t51.5 -11q26 0 52.5 11t46.5 31l52 -53q-30 -30 -69.5 -46t-81.5 -16q-41 0 -80 16z" />
    <glyph glyph-name="uni0122" unicode="&#x122;" horiz-adv-x="751" 
d="M396 370h285v-274q-49 -49 -123 -78.5t-148 -29.5q-95 0 -177 48.5t-131 130.5t-49 177t49 176.5t131 130t177 48.5q74 0 148 -29t123 -79l-71 -68q-35 38 -90.5 60.5t-109.5 22.5q-68 0 -126.5 -36t-93 -96t-34.5 -130t34.5 -130.5t93 -96.5t126.5 -36q44 0 89.5 15
t81.5 42v144h-185v88zM363 -255q36 37 45 78q-21 0 -36.5 15.5t-15.5 37.5t16 38t38 16q27 0 43 -21.5t16 -55.5q0 -28 -16 -57.5t-55 -75.5z" />
    <glyph glyph-name="uni0123" unicode="&#x123;" horiz-adv-x="634" 
d="M257 615.5q-16 21.5 -16 55.5q0 28 15.5 57.5t54.5 75.5l35 -25q-36 -40 -45 -78q22 0 37 -15.5t15 -37.5t-15.5 -38t-37.5 -16q-27 0 -43 21.5zM556 517v-462q0 -66 -33.5 -117.5t-93 -80.5t-135.5 -29q-63 0 -120.5 19t-95.5 50l39 74q28 -27 71.5 -42t91.5 -15
q83 0 130 38t47 105v75q-31 -45 -78 -69.5t-104 -24.5q-68 0 -121.5 31.5t-84 87.5t-30.5 127t30.5 127t84 87t121.5 31q57 0 104.5 -25t77.5 -69v82h99zM413 168.5q44 44.5 44 115.5q0 70 -44 114.5t-114 44.5q-68 0 -112.5 -44.5t-44.5 -114.5t44.5 -115t112.5 -45
q70 0 114 44.5z" />
    <glyph glyph-name="Imacron" unicode="&#x12a;" horiz-adv-x="305" 
d="M102 687h101v-687h-101v687zM-8 825h321v-65h-321v65z" />
    <glyph glyph-name="imacron" unicode="&#x12b;" horiz-adv-x="261" 
d="M81 517h99v-517h-99v517zM-29 655h321v-65h-321v65z" />
    <glyph glyph-name="Iogonek" unicode="&#x12e;" horiz-adv-x="305" 
d="M276 -143q-35 -30 -85 -30q-49 0 -79.5 29t-30.5 79q0 37 23 65h-2v687h101v-687q-24 0 -39 -15t-15 -38q0 -24 14.5 -37.5t39.5 -13.5q28 0 43 17z" />
    <glyph glyph-name="iogonek" unicode="&#x12f;" horiz-adv-x="261" 
d="M93 608.5q-16 15.5 -16 38.5q0 21 16 37.5t39 16.5q22 0 38 -16.5t16 -37.5q0 -22 -16 -38t-38 -16q-23 0 -39 15.5zM253 -143q-35 -30 -85 -30q-49 0 -79.5 29t-30.5 79q0 37 23 65v517h99v-517q-24 0 -39 -15t-15 -38q0 -24 14.5 -37.5t39.5 -13.5q28 0 43 17z" />
    <glyph glyph-name="Idotaccent" unicode="&#x130;" horiz-adv-x="305" 
d="M102 687h101v-687h-101v687zM114 778.5q-16 15.5 -16 38.5q0 21 16 37.5t39 16.5q22 0 38 -16.5t16 -37.5q0 -22 -16 -38t-38 -16q-23 0 -39 15.5z" />
    <glyph glyph-name="dotlessi" unicode="&#x131;" horiz-adv-x="261" 
d="M81 517h99v-517h-99v517z" />
    <glyph glyph-name="uni0136" unicode="&#x136;" horiz-adv-x="698" 
d="M102 687h101v-358l325 358h128l-282 -309l301 -378h-127l-244 308l-101 -107v-201h-101v687zM342 -255q36 37 45 78q-21 0 -36.5 15.5t-15.5 37.5t16 38t38 16q27 0 43 -21.5t16 -55.5q0 -28 -16 -57.5t-55 -75.5z" />
    <glyph glyph-name="uni0137" unicode="&#x137;" horiz-adv-x="563" 
d="M81 699h99v-447l253 265h120l-223 -234l213 -283h-118l-162 217l-83 -84v-133h-99v699zM236 -255q36 37 45 78q-21 0 -36.5 15.5t-15.5 37.5t16 38t38 16q27 0 43 -21.5t16 -55.5q0 -28 -16 -57.5t-55 -75.5z" />
    <glyph glyph-name="Lacute" unicode="&#x139;" horiz-adv-x="594" 
d="M567 94v-94h-465v687h101v-593h364zM238 894l96 -20l-144 -128h-71z" />
    <glyph glyph-name="lacute" unicode="&#x13a;" horiz-adv-x="261" 
d="M81 699h99v-699h-99v699zM214 906l96 -20l-144 -128h-71z" />
    <glyph glyph-name="Lcaron" unicode="&#x13d;" horiz-adv-x="594" 
d="M567 94v-94h-465v687h101v-593h364zM279 514q36 37 45 78q-21 0 -36.5 15.5t-15.5 37.5t16 38t38 16q27 0 43 -21.5t16 -55.5q0 -28 -16 -57.5t-55 -75.5z" />
    <glyph glyph-name="lcaron" unicode="&#x13e;" horiz-adv-x="318" 
d="M81 699h99v-699h-99v699zM258 514q36 37 45 78q-21 0 -36.5 15.5t-15.5 37.5t16 38t38 16q27 0 43 -21.5t16 -55.5q0 -28 -16 -57.5t-55 -75.5z" />
    <glyph glyph-name="Lslash" unicode="&#x141;" horiz-adv-x="630" 
d="M603 94v-94h-465v276l-105 -53v93l105 53v318h101v-266l107 54v-93l-107 -54v-234h364z" />
    <glyph glyph-name="lslash" unicode="&#x142;" horiz-adv-x="317" 
d="M284 353l-72 -37v-316h-99v266l-85 -43v93l85 43v340h99v-289l72 37v-94z" />
    <glyph glyph-name="Nacute" unicode="&#x143;" horiz-adv-x="800" 
d="M102 687h101l394 -521v521h102v-687h-102l-394 521v-521h-101v687zM484 894l96 -20l-144 -128h-71z" />
    <glyph glyph-name="nacute" unicode="&#x144;" horiz-adv-x="608" 
d="M445 504q44 -25 68.5 -70.5t24.5 -104.5v-329h-96v312q0 58 -33 94.5t-86 36.5q-39 0 -72 -16.5t-52 -44.5t-19 -61v-321h-99v517h99v-76q23 39 67.5 63.5t97.5 24.5q56 0 100 -25zM392 724l96 -20l-144 -128h-71z" />
    <glyph glyph-name="uni0145" unicode="&#x145;" horiz-adv-x="800" 
d="M102 687h101l394 -521v521h102v-687h-102l-394 521v-521h-101v687zM353 -255q36 37 45 78q-21 0 -36.5 15.5t-15.5 37.5t16 38t38 16q27 0 43 -21.5t16 -55.5q0 -28 -16 -57.5t-55 -75.5z" />
    <glyph glyph-name="uni0146" unicode="&#x146;" horiz-adv-x="608" 
d="M445 504q44 -25 68.5 -70.5t24.5 -104.5v-329h-96v312q0 58 -33 94.5t-86 36.5q-39 0 -72 -16.5t-52 -44.5t-19 -61v-321h-99v517h99v-76q23 39 67.5 63.5t97.5 24.5q56 0 100 -25zM261 -255q36 37 45 78q-21 0 -36.5 15.5t-15.5 37.5t16 38t38 16q27 0 43 -21.5
t16 -55.5q0 -28 -16 -57.5t-55 -75.5z" />
    <glyph glyph-name="Ncaron" unicode="&#x147;" horiz-adv-x="800" 
d="M102 687h101l394 -521v521h102v-687h-102l-394 521v-521h-101v687zM256 886h68l77 -82l78 82h69l-104 -140h-87z" />
    <glyph glyph-name="ncaron" unicode="&#x148;" horiz-adv-x="608" 
d="M445 504q44 -25 68.5 -70.5t24.5 -104.5v-329h-96v312q0 58 -33 94.5t-86 36.5q-39 0 -72 -16.5t-52 -44.5t-19 -61v-321h-99v517h99v-76q23 39 67.5 63.5t97.5 24.5q56 0 100 -25zM164 716h68l77 -82l78 82h69l-104 -140h-87z" />
    <glyph glyph-name="Omacron" unicode="&#x14c;" horiz-adv-x="818" 
d="M233 36.5q-82 48.5 -131 130.5t-49 177t49 176.5t131 130t176 48.5q95 0 177 -48.5t130.5 -130t48.5 -176.5t-48.5 -177t-130.5 -130.5t-177 -48.5q-94 0 -176 48.5zM534.5 117q58.5 36 93 96.5t34.5 130.5t-34.5 130t-93 96t-125.5 36t-125.5 -36t-93 -96t-34.5 -130
t34.5 -130.5t93 -96.5t125.5 -36t125.5 36zM249 825h321v-65h-321v65z" />
    <glyph glyph-name="omacron" unicode="&#x14d;" horiz-adv-x="622" 
d="M175.5 24.5q-62.5 36.5 -99.5 99t-37 135.5t37 135t99.5 98.5t135.5 36.5t135.5 -36.5t99.5 -98.5t37 -135t-37 -135.5t-99.5 -99t-135.5 -36.5t-135.5 36.5zM397.5 99q39.5 25 63 67.5t23.5 92.5t-23.5 92.5t-63 67t-86.5 24.5t-86.5 -24.5t-63 -67t-23.5 -92.5
t23.5 -92.5t63 -67.5t86.5 -25t86.5 25zM151 655h321v-65h-321v65z" />
    <glyph glyph-name="Ohungarumlaut" unicode="&#x150;" horiz-adv-x="818" 
d="M233 36.5q-82 48.5 -131 130.5t-49 177t49 176.5t131 130t176 48.5q95 0 177 -48.5t130.5 -130t48.5 -176.5t-48.5 -177t-130.5 -130.5t-177 -48.5q-94 0 -176 48.5zM534.5 117q58.5 36 93 96.5t34.5 130.5t-34.5 130t-93 96t-125.5 36t-125.5 -36t-93 -96t-34.5 -130
t34.5 -130.5t93 -96.5t125.5 -36t125.5 36zM385 894l97 -20l-144 -129h-72zM597 892l96 -20l-144 -127h-71z" />
    <glyph glyph-name="ohungarumlaut" unicode="&#x151;" horiz-adv-x="622" 
d="M175.5 24.5q-62.5 36.5 -99.5 99t-37 135.5t37 135t99.5 98.5t135.5 36.5t135.5 -36.5t99.5 -98.5t37 -135t-37 -135.5t-99.5 -99t-135.5 -36.5t-135.5 36.5zM397.5 99q39.5 25 63 67.5t23.5 92.5t-23.5 92.5t-63 67t-86.5 24.5t-86.5 -24.5t-63 -67t-23.5 -92.5
t23.5 -92.5t63 -67.5t86.5 -25t86.5 25zM287 724l97 -20l-144 -129h-72zM499 722l96 -20l-144 -127h-71z" />
    <glyph glyph-name="OE" unicode="&#x152;" horiz-adv-x="1043" 
d="M101 511.5q49 80.5 130.5 128t176.5 47.5h579v-94h-403v-196h363v-94h-363v-209h403v-94h-579q-95 0 -177 44t-130.5 121t-48.5 171q0 95 49 175.5zM189.5 210.5q34.5 -55.5 92.5 -86.5t126 -31h74v501h-74q-67 0 -125.5 -35t-93 -94t-34.5 -129t34.5 -125.5z" />
    <glyph glyph-name="oe" unicode="&#x153;" horiz-adv-x="1041" 
d="M837.5 87q43.5 17 67.5 42l58 -61q-33 -36 -92.5 -58t-116.5 -22q-66 0 -124.5 31t-95.5 85q-38 -54 -96.5 -85t-126.5 -31q-73 0 -135.5 36.5t-99.5 99t-37 135.5t37 135t99.5 98.5t135.5 36.5q67 0 125.5 -30.5t96.5 -83.5q36 53 92 83.5t122 30.5q78 0 134.5 -37
t86 -105t29.5 -160h-413q9 -70 54.5 -113.5t113.5 -43.5q42 0 85.5 17zM641.5 407q-45.5 -40 -56.5 -107h316q-8 65 -47.5 106t-104.5 41q-62 0 -107.5 -40zM397.5 99q39.5 25 63 67.5t23.5 92.5t-23.5 92.5t-63 67t-86.5 24.5t-86.5 -24.5t-63 -67t-23.5 -92.5t23.5 -92.5
t63 -67.5t86.5 -25t86.5 25z" />
    <glyph glyph-name="Racute" unicode="&#x154;" horiz-adv-x="695" 
d="M590.5 319q-55.5 -60 -143.5 -75l171 -244h-116l-168 239h-131v-239h-101v687h289q71 0 129.5 -28.5t92 -80t33.5 -115.5q0 -84 -55.5 -144zM203 333h173q75 0 121 35t46 95t-46 95t-121 35h-173v-260zM419 894l96 -20l-144 -128h-71z" />
    <glyph glyph-name="racute" unicode="&#x155;" horiz-adv-x="407" 
d="M254.5 498.5q50.5 30.5 117.5 30.5v-86q-56 0 -100 -21t-68 -59.5t-24 -87.5v-275h-99v517h99v-101q24 52 74.5 82.5zM304 724l96 -20l-144 -128h-71z" />
    <glyph glyph-name="uni0156" unicode="&#x156;" horiz-adv-x="695" 
d="M590.5 319q-55.5 -60 -143.5 -75l171 -244h-116l-168 239h-131v-239h-101v687h289q71 0 129.5 -28.5t92 -80t33.5 -115.5q0 -84 -55.5 -144zM203 333h173q75 0 121 35t46 95t-46 95t-121 35h-173v-260zM290 -255q36 37 45 78q-21 0 -36.5 15.5t-15.5 37.5t16 38t38 16
q27 0 43 -21.5t16 -55.5q0 -28 -16 -57.5t-55 -75.5z" />
    <glyph glyph-name="uni0157" unicode="&#x157;" horiz-adv-x="407" 
d="M254.5 498.5q50.5 30.5 117.5 30.5v-86q-56 0 -100 -21t-68 -59.5t-24 -87.5v-275h-99v517h99v-101q24 52 74.5 82.5zM174 -255q36 37 45 78q-21 0 -36.5 15.5t-15.5 37.5t16 38t38 16q27 0 43 -21.5t16 -55.5q0 -28 -16 -57.5t-55 -75.5z" />
    <glyph glyph-name="Rcaron" unicode="&#x158;" horiz-adv-x="695" 
d="M590.5 319q-55.5 -60 -143.5 -75l171 -244h-116l-168 239h-131v-239h-101v687h289q71 0 129.5 -28.5t92 -80t33.5 -115.5q0 -84 -55.5 -144zM203 333h173q75 0 121 35t46 95t-46 95t-121 35h-173v-260zM191 886h68l77 -82l78 82h69l-104 -140h-87z" />
    <glyph glyph-name="rcaron" unicode="&#x159;" horiz-adv-x="407" 
d="M254.5 498.5q50.5 30.5 117.5 30.5v-86q-56 0 -100 -21t-68 -59.5t-24 -87.5v-275h-99v517h99v-101q24 52 74.5 82.5zM76 716h68l77 -82l78 82h69l-104 -140h-87z" />
    <glyph glyph-name="Sacute" unicode="&#x15a;" horiz-adv-x="625" 
d="M43 99l60 75q101 -96 226 -96q68 0 106 30.5t38 74.5q0 46 -39.5 70.5t-132.5 45.5q-78 18 -127.5 41t-77.5 61t-28 97q0 57 31 103t85.5 72t122.5 26q75 0 136.5 -25t113.5 -72l-58 -76q-44 40 -94.5 62t-102.5 22q-37 0 -67 -14t-47 -38t-17 -51q0 -31 19 -51
t54.5 -33.5t98.5 -28.5q115 -27 173.5 -71t58.5 -130q0 -59 -29 -105t-85.5 -72.5t-135.5 -26.5q-169 0 -282 110zM396 894l96 -20l-144 -128h-71z" />
    <glyph glyph-name="sacute" unicode="&#x15b;" horiz-adv-x="486" 
d="M135 8q-58 20 -104 57l45 68q43 -32 88 -48.5t88 -16.5q46 0 73.5 19t27.5 51q0 33 -29 49.5t-91 33.5q-95 27 -136.5 59t-41.5 92q0 71 52.5 114t135.5 43q49 0 99 -16t92 -44l-41 -70q-80 50 -150 50q-41 0 -67.5 -17.5t-26.5 -48.5q0 -20 12 -32t36 -21.5t75 -25.5
q56 -17 91.5 -32.5t59.5 -45.5t24 -78q0 -73 -54.5 -116.5t-141.5 -43.5q-58 0 -116 20zM327 724l96 -20l-144 -128h-71z" />
    <glyph glyph-name="Scedilla" unicode="&#x15e;" horiz-adv-x="625" 
d="M547.5 90.5q-27.5 -45.5 -81 -72.5t-128.5 -29l-14 -33h7q31 0 51 -19t20 -48q0 -37 -29 -60t-72 -23q-26 0 -50 8t-41 21l22 47q27 -23 63 -23q20 0 34 10t14 25q0 14 -9.5 23t-27.5 9t-33 -10l-18 18l24 57q-140 13 -236 108l60 75q101 -96 226 -96q68 0 106 30.5
t38 74.5q0 46 -39.5 70.5t-132.5 45.5q-78 18 -127.5 41t-77.5 61t-28 97q0 57 31 103t85.5 72t122.5 26q75 0 136.5 -25t113.5 -72l-58 -76q-44 40 -94.5 62t-102.5 22q-37 0 -67 -14t-47 -38t-17 -51q0 -31 19 -51t54.5 -33.5t98.5 -28.5q115 -27 173.5 -71t58.5 -130
q0 -57 -27.5 -102.5z" />
    <glyph glyph-name="scedilla" unicode="&#x15f;" horiz-adv-x="486" 
d="M396.5 35.5q-50.5 -43.5 -131.5 -47.5l-14 -32h7q31 0 51 -19t20 -48q0 -37 -29 -60t-72 -23q-26 0 -50 8t-41 21l22 47q27 -23 63 -23q20 0 34 10t14 25q0 14 -9.5 23t-27.5 9t-33 -10l-18 18l24 57q-47 6 -92.5 25t-82.5 49l45 68q43 -32 88 -48.5t88 -16.5
q46 0 73.5 19t27.5 51q0 33 -29 49.5t-91 33.5q-95 27 -136.5 59t-41.5 92q0 71 52.5 114t135.5 43q49 0 99 -16t92 -44l-41 -70q-80 50 -150 50q-41 0 -67.5 -17.5t-26.5 -48.5q0 -20 12 -32t36 -21.5t75 -25.5q56 -17 91.5 -32.5t59.5 -45.5t24 -78q0 -69 -50.5 -112.5z
" />
    <glyph glyph-name="Scaron" unicode="&#x160;" horiz-adv-x="625" 
d="M43 99l60 75q101 -96 226 -96q68 0 106 30.5t38 74.5q0 46 -39.5 70.5t-132.5 45.5q-78 18 -127.5 41t-77.5 61t-28 97q0 57 31 103t85.5 72t122.5 26q75 0 136.5 -25t113.5 -72l-58 -76q-44 40 -94.5 62t-102.5 22q-37 0 -67 -14t-47 -38t-17 -51q0 -31 19 -51
t54.5 -33.5t98.5 -28.5q115 -27 173.5 -71t58.5 -130q0 -59 -29 -105t-85.5 -72.5t-135.5 -26.5q-169 0 -282 110zM168 886h68l77 -82l78 82h69l-104 -140h-87z" />
    <glyph glyph-name="scaron" unicode="&#x161;" horiz-adv-x="486" 
d="M135 8q-58 20 -104 57l45 68q43 -32 88 -48.5t88 -16.5q46 0 73.5 19t27.5 51q0 33 -29 49.5t-91 33.5q-95 27 -136.5 59t-41.5 92q0 71 52.5 114t135.5 43q49 0 99 -16t92 -44l-41 -70q-80 50 -150 50q-41 0 -67.5 -17.5t-26.5 -48.5q0 -20 12 -32t36 -21.5t75 -25.5
q56 -17 91.5 -32.5t59.5 -45.5t24 -78q0 -73 -54.5 -116.5t-141.5 -43.5q-58 0 -116 20zM99 716h68l77 -82l78 82h69l-104 -140h-87z" />
    <glyph glyph-name="uni0162" unicode="&#x162;" horiz-adv-x="606" 
d="M331 0l-18 -44h7q31 0 51 -19t20 -48q0 -37 -29 -60t-72 -23q-26 0 -50 8t-41 21l22 47q27 -23 63 -23q20 0 34 10t14 25q0 14 -9.5 23t-27.5 9t-33 -10l-18 18l28 66h-19v593h-226v94h552v-94h-225v-593h-23z" />
    <glyph glyph-name="uni0163" unicode="&#x163;" horiz-adv-x="361" 
d="M305 -63q20 -19 20 -48q0 -37 -29 -60t-72 -23q-26 0 -50 8t-41 21l22 47q27 -23 63 -23q20 0 34 10t14 25q0 14 -9.5 23t-27.5 9t-33 -10l-18 18l25 57q-47 11 -75.5 48t-28.5 90v304h-77v84h77v142h97v-142h122v-84h-122v-297q0 -27 16 -44.5t38 -17.5q16 0 30 5.5
t22 13.5l37 -68q-31 -27 -78 -35l-14 -34h7q31 0 51 -19z" />
    <glyph glyph-name="Tcaron" unicode="&#x164;" horiz-adv-x="606" 
d="M253 593h-226v94h552v-94h-225v-593h-101v593zM159 886h68l77 -82l78 82h69l-104 -140h-87z" />
    <glyph glyph-name="tcaron" unicode="&#x165;" horiz-adv-x="472" 
d="M339 25q-21 -17 -48.5 -27t-55.5 -10q-60 0 -98 39.5t-38 101.5v304h-77v84h77v142h97v-142h122v-84h-122v-297q0 -27 16 -44.5t38 -17.5q16 0 30 5.5t22 13.5zM413 514q36 37 45 78q-21 0 -36.5 15.5t-15.5 37.5t16 38t38 16q27 0 43 -21.5t16 -55.5q0 -28 -16 -57.5
t-55 -75.5z" />
    <glyph glyph-name="Umacron" unicode="&#x16a;" horiz-adv-x="759" 
d="M227.5 26.5q-67.5 38.5 -105 107t-37.5 155.5v398h101v-396q0 -61 24.5 -109t69 -75t100.5 -27t100 27t68.5 75t24.5 109v396h102v-398q0 -87 -38 -155.5t-105 -107t-152 -38.5t-152.5 38.5zM219 825h321v-65h-321v65z" />
    <glyph glyph-name="umacron" unicode="&#x16b;" horiz-adv-x="609" 
d="M527 517v-517h-99v74q-24 -39 -68 -62.5t-97 -23.5q-56 0 -100 25t-68.5 70.5t-24.5 104.5v329h97v-312q0 -58 33 -94.5t86 -36.5q39 0 71.5 16.5t51.5 44.5t19 61v321h99zM131 655h321v-65h-321v65z" />
    <glyph glyph-name="Uring" unicode="&#x16e;" horiz-adv-x="759" 
d="M227.5 26.5q-67.5 38.5 -105 107t-37.5 155.5v398h101v-396q0 -61 24.5 -109t69 -75t100.5 -27t100 27t68.5 75t24.5 109v396h102v-398q0 -87 -38 -155.5t-105 -107t-152 -38.5t-152.5 38.5zM304 787.5q-31 31.5 -31 75.5t31 75t75 31t75.5 -31t31.5 -75t-31.5 -75.5
t-75.5 -31.5t-75 31.5zM419 823q17 17 17 40t-17 40t-40 17t-40 -17t-17 -40t17 -40t40 -17t40 17z" />
    <glyph glyph-name="uring" unicode="&#x16f;" horiz-adv-x="609" 
d="M527 517v-517h-99v74q-24 -39 -68 -62.5t-97 -23.5q-56 0 -100 25t-68.5 70.5t-24.5 104.5v329h97v-312q0 -58 33 -94.5t86 -36.5q39 0 71.5 16.5t51.5 44.5t19 61v321h99zM216 617.5q-31 31.5 -31 75.5t31 75t75 31t75.5 -31t31.5 -75t-31.5 -75.5t-75.5 -31.5t-75 31.5
zM331 653q17 17 17 40t-17 40t-40 17t-40 -17t-17 -40t17 -40t40 -17t40 17z" />
    <glyph glyph-name="Uhungarumlaut" unicode="&#x170;" horiz-adv-x="759" 
d="M227.5 26.5q-67.5 38.5 -105 107t-37.5 155.5v398h101v-396q0 -61 24.5 -109t69 -75t100.5 -27t100 27t68.5 75t24.5 109v396h102v-398q0 -87 -38 -155.5t-105 -107t-152 -38.5t-152.5 38.5zM356 894l97 -20l-144 -129h-72zM568 892l96 -20l-144 -127h-71z" />
    <glyph glyph-name="uhungarumlaut" unicode="&#x171;" horiz-adv-x="609" 
d="M527 517v-517h-99v74q-24 -39 -68 -62.5t-97 -23.5q-56 0 -100 25t-68.5 70.5t-24.5 104.5v329h97v-312q0 -58 33 -94.5t86 -36.5q39 0 71.5 16.5t51.5 44.5t19 61v321h99zM267 724l97 -20l-144 -129h-72zM479 722l96 -20l-144 -127h-71z" />
    <glyph glyph-name="Uogonek" unicode="&#x172;" horiz-adv-x="759" 
d="M675 687v-398q0 -87 -38 -155.5t-105 -107t-152 -38.5q-24 0 -39 -15t-15 -38q0 -24 14.5 -37.5t39.5 -13.5q28 0 43 17l30 -56q-35 -30 -85 -30q-49 0 -79.5 29t-30.5 79q0 23 9.5 43t25.5 33q-95 26 -151.5 104t-56.5 186v398h101v-396q0 -61 24.5 -109t69 -75
t100.5 -27t100 27t68.5 75t24.5 109v396h102z" />
    <glyph glyph-name="uogonek" unicode="&#x173;" horiz-adv-x="609" 
d="M580 -143q-35 -30 -85 -30q-49 0 -79.5 29t-30.5 79q0 26 12 48t31 34v57q-24 -39 -68 -62.5t-97 -23.5q-56 0 -100 25t-68.5 70.5t-24.5 104.5v329h97v-312q0 -58 33 -94.5t86 -36.5q39 0 71.5 16.5t51.5 44.5t19 61v321h99v-517h-20q-24 0 -39 -15t-15 -38
q0 -24 14.5 -37.5t39.5 -13.5q28 0 43 17z" />
    <glyph glyph-name="Wcircumflex" unicode="&#x174;" horiz-adv-x="1077" 
d="M30 687h112l169 -524l172 524h111l172 -524l169 524h112l-226 -687h-101l-181 547l-182 -547h-101zM496 886h87l103 -140h-69l-78 82l-77 -82h-68z" />
    <glyph glyph-name="wcircumflex" unicode="&#x175;" horiz-adv-x="810" 
d="M16 517h101l118 -385l128 385h84l128 -385l119 385h101l-175 -517h-91l-123 384l-125 -384h-91zM362 716h87l103 -140h-69l-78 82l-77 -82h-68z" />
    <glyph glyph-name="Ycircumflex" unicode="&#x176;" horiz-adv-x="693" 
d="M295 269l-275 418h122l205 -322l208 322h117l-273 -418v-269h-104v269zM303 886h87l103 -140h-69l-78 82l-77 -82h-68z" />
    <glyph glyph-name="ycircumflex" unicode="&#x177;" horiz-adv-x="554" 
d="M50 -158l22 76q29 -16 63 -16q25 0 42 9t29 31l26 55l-222 520h106l166 -408l157 408h103l-228 -564q-27 -68 -68 -100t-98 -33q-56 0 -98 22zM238 716h87l103 -140h-69l-78 82l-77 -82h-68z" />
    <glyph glyph-name="Ydieresis" unicode="&#x178;" horiz-adv-x="693" 
d="M295 269l-275 418h122l205 -322l208 322h117l-273 -418v-269h-104v269zM209 778.5q-16 15.5 -16 38.5q0 21 16 37.5t39 16.5q22 0 38 -16.5t16 -37.5q0 -22 -16 -38t-38 -16q-23 0 -39 15.5zM408 779q-16 16 -16 38q0 21 16 37.5t38 16.5t38 -16.5t16 -37.5
q0 -22 -15.5 -38t-38.5 -16q-22 0 -38 16z" />
    <glyph glyph-name="Zacute" unicode="&#x179;" horiz-adv-x="629" 
d="M45 79l396 514h-389v94h528v-79l-397 -514h401v-94h-539v79zM400 894l96 -20l-144 -128h-71z" />
    <glyph glyph-name="zacute" unicode="&#x17a;" horiz-adv-x="492" 
d="M34 74l290 354h-284v89h415l-1 -74l-290 -354h293v-89h-423v74zM335 724l96 -20l-144 -128h-71z" />
    <glyph glyph-name="Zdotaccent" unicode="&#x17b;" horiz-adv-x="629" 
d="M45 79l396 514h-389v94h528v-79l-397 -514h401v-94h-539v79zM278 778.5q-16 15.5 -16 38.5q0 21 16 37.5t39 16.5q22 0 38 -16.5t16 -37.5q0 -22 -16 -38t-38 -16q-23 0 -39 15.5z" />
    <glyph glyph-name="zdotaccent" unicode="&#x17c;" horiz-adv-x="492" 
d="M34 74l290 354h-284v89h415l-1 -74l-290 -354h293v-89h-423v74zM213 608.5q-16 15.5 -16 38.5q0 21 16 37.5t39 16.5q22 0 38 -16.5t16 -37.5q0 -22 -16 -38t-38 -16q-23 0 -39 15.5z" />
    <glyph glyph-name="Zcaron" unicode="&#x17d;" horiz-adv-x="629" 
d="M45 79l396 514h-389v94h528v-79l-397 -514h401v-94h-539v79zM172 886h68l77 -82l78 82h69l-104 -140h-87z" />
    <glyph glyph-name="zcaron" unicode="&#x17e;" horiz-adv-x="492" 
d="M34 74l290 354h-284v89h415l-1 -74l-290 -354h293v-89h-423v74zM107 716h68l77 -82l78 82h69l-104 -140h-87z" />
    <glyph glyph-name="uni0237" unicode="&#x237;" horiz-adv-x="250" 
d="M-10.5 -173q-24.5 5 -41.5 13l13 77q27 -10 61 -10q24 0 39 17.5t15 44.5v548h98v-553q0 -62 -38.5 -102t-98.5 -40q-23 0 -47.5 5z" />
    <glyph glyph-name="circumflex" unicode="&#x2c6;" horiz-adv-x="360" 
d="M136 716h87l103 -140h-69l-78 82l-77 -82h-68z" />
    <glyph glyph-name="caron" unicode="&#x2c7;" horiz-adv-x="360" 
d="M35 716h68l77 -82l78 82h69l-104 -140h-87z" />
    <glyph glyph-name="breve" unicode="&#x2d8;" horiz-adv-x="399" 
d="M118 602q-39 16 -71 46l53 53q20 -20 46.5 -31t51.5 -11q26 0 52.5 11t46.5 31l52 -53q-30 -30 -69.5 -46t-81.5 -16q-41 0 -80 16z" />
    <glyph glyph-name="dotaccent" unicode="&#x2d9;" horiz-adv-x="244" 
d="M84 608.5q-16 15.5 -16 38.5q0 21 16 37.5t39 16.5q22 0 38 -16.5t16 -37.5q0 -22 -16 -38t-38 -16q-23 0 -39 15.5z" />
    <glyph glyph-name="ring" unicode="&#x2da;" horiz-adv-x="330" 
d="M89 617.5q-31 31.5 -31 75.5t31 75t75 31t75.5 -31t31.5 -75t-31.5 -75.5t-75.5 -31.5t-75 31.5zM204 653q17 17 17 40t-17 40t-40 17t-40 -17t-17 -40t17 -40t40 -17t40 17z" />
    <glyph glyph-name="ogonek" unicode="&#x2db;" horiz-adv-x="291" 
d="M92.5 -144q-30.5 29 -30.5 79q0 29 15 53t38 35l69 -23q-24 0 -39 -15t-15 -38q0 -24 14.5 -37.5t39.5 -13.5q28 0 43 17l30 -56q-35 -30 -85 -30q-49 0 -79.5 29z" />
    <glyph glyph-name="tilde" unicode="&#x2dc;" horiz-adv-x="453" 
d="M254.5 582.5q-16.5 8.5 -40.5 26.5q-17 13 -28.5 19.5t-22.5 6.5q-19 0 -30.5 -15t-17.5 -48l-55 9q17 123 101 123q21 0 38 -9t41 -26q17 -13 28.5 -19.5t22.5 -6.5q19 0 30.5 15t17.5 48l54 -8q-15 -124 -101 -124q-21 0 -37.5 8.5z" />
    <glyph glyph-name="hungarumlaut" unicode="&#x2dd;" horiz-adv-x="485" 
d="M146 724l97 -20l-144 -129h-72zM358 722l96 -20l-144 -127h-71z" />
    <glyph glyph-name="uni0307" unicode="&#x307;" horiz-adv-x="0" 
d="M-169.5 621q-17.5 18 -17.5 42t17.5 41.5t42.5 17.5q24 0 41.5 -17.5t17.5 -41.5t-17.5 -42t-41.5 -18q-25 0 -42.5 18z" />
    <glyph glyph-name="uni0326" unicode="&#x326;" horiz-adv-x="0" 
d="M-165 -255q36 37 45 78q-21 0 -36.5 15.5t-15.5 37.5t16 38t38 16q27 0 43 -21.5t16 -55.5q0 -28 -16 -57.5t-55 -75.5z" />
    <glyph glyph-name="Wgrave" unicode="&#x1e80;" horiz-adv-x="1077" 
d="M30 687h112l169 -524l172 524h111l172 -524l169 524h112l-226 -687h-101l-181 547l-182 -547h-101zM360 874l97 20l119 -148h-72z" />
    <glyph glyph-name="wgrave" unicode="&#x1e81;" horiz-adv-x="810" 
d="M16 517h101l118 -385l128 385h84l128 -385l119 385h101l-175 -517h-91l-123 384l-125 -384h-91zM226 704l97 20l119 -148h-72z" />
    <glyph glyph-name="Wacute" unicode="&#x1e82;" horiz-adv-x="1077" 
d="M30 687h112l169 -524l172 524h111l172 -524l169 524h112l-226 -687h-101l-181 547l-182 -547h-101zM622 894l96 -20l-144 -128h-71z" />
    <glyph glyph-name="wacute" unicode="&#x1e83;" horiz-adv-x="810" 
d="M16 517h101l118 -385l128 385h84l128 -385l119 385h101l-175 -517h-91l-123 384l-125 -384h-91zM489 724l96 -20l-144 -128h-71z" />
    <glyph glyph-name="Wdieresis" unicode="&#x1e84;" horiz-adv-x="1077" 
d="M30 687h112l169 -524l172 524h111l172 -524l169 524h112l-226 -687h-101l-181 547l-182 -547h-101zM401 778.5q-16 15.5 -16 38.5q0 21 16 37.5t39 16.5q22 0 38 -16.5t16 -37.5q0 -22 -16 -38t-38 -16q-23 0 -39 15.5zM600 779q-16 16 -16 38q0 21 16 37.5t38 16.5
t38 -16.5t16 -37.5q0 -22 -15.5 -38t-38.5 -16q-22 0 -38 16z" />
    <glyph glyph-name="wdieresis" unicode="&#x1e85;" horiz-adv-x="810" 
d="M16 517h101l118 -385l128 385h84l128 -385l119 385h101l-175 -517h-91l-123 384l-125 -384h-91zM268 608.5q-16 15.5 -16 38.5q0 21 16 37.5t39 16.5q22 0 38 -16.5t16 -37.5q0 -22 -16 -38t-38 -16q-23 0 -39 15.5zM467 609q-16 16 -16 38q0 21 16 37.5t38 16.5
t38 -16.5t16 -37.5q0 -22 -15.5 -38t-38.5 -16q-22 0 -38 16z" />
    <glyph glyph-name="uni1EB8" unicode="&#x1eb8;" horiz-adv-x="666" 
d="M204 593v-196h364v-94h-364v-209h403v-94h-505v687h505v-94h-403zM308 -169.5q-16 15.5 -16 38.5q0 21 16 37.5t39 16.5q22 0 38 -16.5t16 -37.5q0 -22 -16 -38t-38 -16q-23 0 -39 15.5z" />
    <glyph glyph-name="uni1EB9" unicode="&#x1eb9;" horiz-adv-x="595" 
d="M391.5 87q43.5 17 67.5 42l58 -61q-33 -36 -92.5 -58t-116.5 -22q-71 0 -132.5 35t-98 97.5t-36.5 139.5q0 76 35 137.5t94.5 96.5t130.5 35q78 0 134.5 -37t86 -105t29.5 -160h-413q9 -70 54.5 -113.5t113.5 -43.5q42 0 85.5 17zM195.5 407q-45.5 -40 -56.5 -107h316
q-8 65 -47.5 106t-104.5 41q-62 0 -107.5 -40zM268 -169.5q-16 15.5 -16 38.5q0 21 16 37.5t39 16.5q22 0 38 -16.5t16 -37.5q0 -22 -16 -38t-38 -16q-23 0 -39 15.5z" />
    <glyph glyph-name="uni1EBC" unicode="&#x1ebc;" horiz-adv-x="663" 
d="M204 593v-196h364v-94h-364v-209h403v-94h-505v687h505v-94h-403zM381.5 752.5q-16.5 8.5 -40.5 26.5q-17 13 -28.5 19.5t-22.5 6.5q-19 0 -30.5 -15t-17.5 -48l-55 9q17 123 101 123q21 0 38 -9t41 -26q17 -13 28.5 -19.5t22.5 -6.5q19 0 30.5 15t17.5 48l54 -8
q-15 -124 -101 -124q-21 0 -37.5 8.5z" />
    <glyph glyph-name="uni1EBD" unicode="&#x1ebd;" horiz-adv-x="586" 
d="M391.5 87q43.5 17 67.5 42l58 -61q-33 -36 -92.5 -58t-116.5 -22q-71 0 -132.5 35t-98 97.5t-36.5 139.5q0 76 35 137.5t94.5 96.5t130.5 35q78 0 134.5 -37t86 -105t29.5 -160h-413q9 -70 54.5 -113.5t113.5 -43.5q42 0 85.5 17zM195.5 407q-45.5 -40 -56.5 -107h316
q-8 65 -47.5 106t-104.5 41q-62 0 -107.5 -40zM327.5 582.5q-16.5 8.5 -40.5 26.5q-17 13 -28.5 19.5t-22.5 6.5q-19 0 -30.5 -15t-17.5 -48l-55 9q17 123 101 123q21 0 38 -9t41 -26q17 -13 28.5 -19.5t22.5 -6.5q19 0 30.5 15t17.5 48l54 -8q-15 -124 -101 -124
q-21 0 -37.5 8.5z" />
    <glyph glyph-name="Ygrave" unicode="&#x1ef2;" horiz-adv-x="693" 
d="M295 269l-275 418h122l205 -322l208 322h117l-273 -418v-269h-104v269zM167 874l97 20l119 -148h-72z" />
    <glyph glyph-name="ygrave" unicode="&#x1ef3;" horiz-adv-x="554" 
d="M50 -158l22 76q29 -16 63 -16q25 0 42 9t29 31l26 55l-222 520h106l166 -408l157 408h103l-228 -564q-27 -68 -68 -100t-98 -33q-56 0 -98 22zM102 704l97 20l119 -148h-72z" />
    <glyph glyph-name="uni2002" unicode="&#x2002;" horiz-adv-x="500" 
 />
    <glyph glyph-name="uni2003" unicode="&#x2003;" horiz-adv-x="1000" 
 />
    <glyph glyph-name="uni2004" unicode="&#x2004;" horiz-adv-x="333" 
 />
    <glyph glyph-name="uni2005" unicode="&#x2005;" horiz-adv-x="250" 
 />
    <glyph glyph-name="uni2006" unicode="&#x2006;" horiz-adv-x="166" 
 />
    <glyph glyph-name="endash" unicode="&#x2013;" horiz-adv-x="631" 
d="M81 317h470v-88h-470v88z" />
    <glyph glyph-name="emdash" unicode="&#x2014;" horiz-adv-x="936" 
d="M81 317h775v-88h-775v88z" />
    <glyph glyph-name="quoteleft" unicode="&#x2018;" horiz-adv-x="287" 
d="M202 647q-42 -44 -55 -93q27 0 46 -20t19 -47t-19.5 -46.5t-47.5 -19.5q-33 0 -52.5 26.5t-19.5 68.5q0 35 19.5 71.5t67.5 91.5z" />
    <glyph glyph-name="quoteright" unicode="&#x2019;" horiz-adv-x="287" 
d="M85 455q43 46 55 93q-27 0 -46 19.5t-19 47.5q0 27 19 46.5t47 19.5q33 0 53 -26.5t20 -68.5q0 -35 -19.5 -71.5t-67.5 -91.5z" />
    <glyph glyph-name="quotedblleft" unicode="&#x201c;" horiz-adv-x="507" 
d="M202 647q-42 -44 -55 -93q27 0 46 -20t19 -47t-19.5 -46.5t-47.5 -19.5q-33 0 -52.5 26.5t-19.5 68.5q0 35 19.5 71.5t67.5 91.5zM422 647q-42 -44 -55 -93q27 0 46 -20t19 -47t-19.5 -46.5t-47.5 -19.5q-33 0 -52.5 26.5t-19.5 68.5q0 35 19.5 71.5t67.5 91.5z" />
    <glyph glyph-name="quotedblright" unicode="&#x201d;" horiz-adv-x="507" 
d="M85 455q43 46 55 93q-27 0 -46 19.5t-19 47.5q0 27 19 46.5t47 19.5q33 0 53 -26.5t20 -68.5q0 -35 -19.5 -71.5t-67.5 -91.5zM305 455q43 46 55 93q-27 0 -46 19.5t-19 47.5q0 27 19 46.5t47 19.5q33 0 53 -26.5t20 -68.5q0 -35 -19.5 -71.5t-67.5 -91.5z" />
    <glyph glyph-name="quotedblbase" unicode="&#x201e;" horiz-adv-x="507" 
d="M85 -105q43 46 55 93q-27 0 -46 19.5t-19 47.5q0 27 19 46.5t47 19.5q33 0 53 -26.5t20 -68.5q0 -35 -19.5 -71.5t-67.5 -91.5zM305 -105q43 46 55 93q-27 0 -46 19.5t-19 47.5q0 27 19 46.5t47 19.5q33 0 53 -26.5t20 -68.5q0 -35 -19.5 -71.5t-67.5 -91.5z" />
    <glyph glyph-name="bullet" unicode="&#x2022;" horiz-adv-x="427" 
d="M151 189q-29 17 -46 46t-17 63t17 62.5t46 45.5t63 17q33 0 62 -17t46 -46t17 -62q0 -34 -17 -63t-46 -46t-62 -17q-34 0 -63 17z" />
    <glyph glyph-name="ellipsis" unicode="&#x2026;" horiz-adv-x="770" 
d="M118 8q-20 20 -20 48q0 26 20 45.5t48 19.5q27 0 46 -19.5t19 -45.5q0 -28 -19 -48t-46 -20q-28 0 -48 20zM338 8q-20 20 -20 48q0 26 20 45.5t48 19.5q27 0 46 -19.5t19 -45.5q0 -28 -19 -48t-46 -20q-28 0 -48 20zM558 8q-20 20 -20 48q0 26 20 45.5t48 19.5
q27 0 46 -19.5t19 -45.5q0 -28 -19 -48t-46 -20q-28 0 -48 20z" />
    <glyph glyph-name="uni202F" unicode="&#x202f;" horiz-adv-x="274" 
 />
    <glyph glyph-name="perthousand" unicode="&#x2030;" horiz-adv-x="1228" 
d="M138.5 370q-37.5 23 -58 62t-20.5 86q0 49 21 89t58.5 63t84.5 23q48 0 85 -23t57.5 -62.5t20.5 -87.5q0 -49 -21 -88.5t-58 -62t-85 -22.5q-47 0 -84.5 23zM619 687h89l-473 -687h-89zM287 441.5q25 30.5 25 77.5t-25 78t-64 31q-38 0 -63 -30.5t-25 -78.5
q0 -46 25.5 -77t63.5 -31t63 30.5zM543.5 12.5q-37.5 22.5 -58.5 62t-21 88.5q0 47 21 87t58.5 63t84.5 23q48 0 85 -23t57.5 -62.5t20.5 -86.5q0 -49 -21 -88.5t-58 -62.5t-84 -23t-84.5 22.5zM920 12.5q-37 22.5 -58 62t-21 88.5q0 47 20.5 87t58 63t85.5 23t85 -23
t57.5 -62.5t20.5 -86.5q0 -49 -21 -89t-58.5 -62.5t-84.5 -22.5t-84 22.5zM692.5 85.5q24.5 30.5 24.5 77.5t-25.5 78t-63.5 31q-39 0 -64 -31t-25 -77q0 -47 25 -78t64 -31q40 0 64.5 30.5zM1068.5 85.5q24.5 30.5 24.5 77.5t-25.5 78t-63.5 31q-39 0 -63.5 -31t-24.5 -77
q0 -47 25 -78t64 -31t63.5 30.5z" />
    <glyph glyph-name="guilsinglleft" unicode="&#x2039;" horiz-adv-x="326" 
d="M33 252l162 199l88 -19l-145 -179l145 -182l-88 -20z" />
    <glyph glyph-name="guilsinglright" unicode="&#x203a;" horiz-adv-x="325" 
d="M42 71l145 182l-145 179l88 19l162 -199l-162 -201z" />
    <glyph glyph-name="Euro" unicode="&#x20ac;" horiz-adv-x="822" 
d="M605.5 103q47.5 22 83.5 61l71 -68q-50 -51 -116 -79.5t-138 -28.5q-76 0 -145.5 32.5t-120 89.5t-73.5 128h-91v69h76q-2 24 -2 37q0 30 4 53h-78v69h97q25 67 75.5 120t117 83t140.5 30q73 0 139 -28.5t115 -79.5l-71 -68q-36 39 -83.5 61t-99.5 22q-70 0 -130 -38.5
t-93 -101.5h283v-69h-308q-5 -28 -5 -53q0 -19 3 -37h310v-69h-291q30 -70 93 -113.5t138 -43.5q52 0 99.5 22z" />
    <glyph glyph-name="trademark" unicode="&#x2122;" horiz-adv-x="822" 
d="M157 502h-80v77h242v-77h-81v-223h-81v223zM364 579h81l87 -144l86 144h82v-300h-82v162l-86 -145l-87 145v-162h-81v300z" />
    <glyph glyph-name="minus" unicode="&#x2212;" horiz-adv-x="710" 
d="M122 378h467v-89h-467v89z" />
    <glyph glyph-name="a.alt" 
d="M564 517v-517h-99v88q-31 -47 -78 -73.5t-105 -26.5q-68 0 -122 34.5t-85 96.5t-31 140t31 139.5t85 96t122 34.5q58 0 105 -26.5t78 -73.5v88h99zM387.5 97.5q36.5 23.5 57 66t20.5 95.5t-20.5 95t-57 65.5t-82.5 23.5t-83 -23.5t-57.5 -65.5t-20.5 -95t20.5 -95.5
t57.5 -66t83 -23.5t82.5 23.5z" />
    <glyph glyph-name="aacute.alt" 
d="M564 517v-517h-99v88q-31 -47 -78 -73.5t-105 -26.5q-68 0 -122 34.5t-85 96.5t-31 140t31 139.5t85 96t122 34.5q58 0 105 -26.5t78 -73.5v88h99zM387.5 97.5q36.5 23.5 57 66t20.5 95.5t-20.5 95t-57 65.5t-82.5 23.5t-83 -23.5t-57.5 -65.5t-20.5 -95t20.5 -95.5
t57.5 -66t83 -23.5t82.5 23.5zM410 724l96 -20l-144 -128h-71z" />
    <glyph glyph-name="abreve.alt" 
d="M564 517v-517h-99v88q-31 -47 -78 -73.5t-105 -26.5q-68 0 -122 34.5t-85 96.5t-31 140t31 139.5t85 96t122 34.5q58 0 105 -26.5t78 -73.5v88h99zM387.5 97.5q36.5 23.5 57 66t20.5 95.5t-20.5 95t-57 65.5t-82.5 23.5t-83 -23.5t-57.5 -65.5t-20.5 -95t20.5 -95.5
t57.5 -66t83 -23.5t82.5 23.5zM246 602q-39 16 -71 46l53 53q20 -20 46.5 -31t51.5 -11q26 0 52.5 11t46.5 31l52 -53q-30 -30 -69.5 -46t-81.5 -16q-41 0 -80 16z" />
    <glyph glyph-name="acircumflex.alt" 
d="M564 517v-517h-99v88q-31 -47 -78 -73.5t-105 -26.5q-68 0 -122 34.5t-85 96.5t-31 140t31 139.5t85 96t122 34.5q58 0 105 -26.5t78 -73.5v88h99zM387.5 97.5q36.5 23.5 57 66t20.5 95.5t-20.5 95t-57 65.5t-82.5 23.5t-83 -23.5t-57.5 -65.5t-20.5 -95t20.5 -95.5
t57.5 -66t83 -23.5t82.5 23.5zM283 716h87l103 -140h-69l-78 82l-77 -82h-68z" />
    <glyph glyph-name="adieresis.alt" 
d="M564 517v-517h-99v88q-31 -47 -78 -73.5t-105 -26.5q-68 0 -122 34.5t-85 96.5t-31 140t31 139.5t85 96t122 34.5q58 0 105 -26.5t78 -73.5v88h99zM387.5 97.5q36.5 23.5 57 66t20.5 95.5t-20.5 95t-57 65.5t-82.5 23.5t-83 -23.5t-57.5 -65.5t-20.5 -95t20.5 -95.5
t57.5 -66t83 -23.5t82.5 23.5zM189 608.5q-16 15.5 -16 38.5q0 21 16 37.5t39 16.5q22 0 38 -16.5t16 -37.5q0 -22 -16 -38t-38 -16q-23 0 -39 15.5zM388 609q-16 16 -16 38q0 21 16 37.5t38 16.5t38 -16.5t16 -37.5q0 -22 -15.5 -38t-38.5 -16q-22 0 -38 16z" />
    <glyph glyph-name="agrave.alt" 
d="M564 517v-517h-99v88q-31 -47 -78 -73.5t-105 -26.5q-68 0 -122 34.5t-85 96.5t-31 140t31 139.5t85 96t122 34.5q58 0 105 -26.5t78 -73.5v88h99zM387.5 97.5q36.5 23.5 57 66t20.5 95.5t-20.5 95t-57 65.5t-82.5 23.5t-83 -23.5t-57.5 -65.5t-20.5 -95t20.5 -95.5
t57.5 -66t83 -23.5t82.5 23.5zM147 704l97 20l119 -148h-72z" />
    <glyph glyph-name="amacron.alt" 
d="M564 517v-517h-99v88q-31 -47 -78 -73.5t-105 -26.5q-68 0 -122 34.5t-85 96.5t-31 140t31 139.5t85 96t122 34.5q58 0 105 -26.5t78 -73.5v88h99zM387.5 97.5q36.5 23.5 57 66t20.5 95.5t-20.5 95t-57 65.5t-82.5 23.5t-83 -23.5t-57.5 -65.5t-20.5 -95t20.5 -95.5
t57.5 -66t83 -23.5t82.5 23.5zM166 655h321v-65h-321v65z" />
    <glyph glyph-name="aogonek.alt" 
d="M637 -143q-35 -30 -85 -30q-49 0 -79.5 29t-30.5 79q0 37 23 65v88q-31 -47 -78 -73.5t-105 -26.5q-68 0 -122 34.5t-85 96.5t-31 140t31 139.5t85 96t122 34.5q58 0 105 -26.5t78 -73.5v88h99v-517q-24 0 -39 -15t-15 -38q0 -24 14.5 -37.5t39.5 -13.5q28 0 43 17z
M387.5 97.5q36.5 23.5 57 66t20.5 95.5t-20.5 95t-57 65.5t-82.5 23.5t-83 -23.5t-57.5 -65.5t-20.5 -95t20.5 -95.5t57.5 -66t83 -23.5t82.5 23.5z" />
    <glyph glyph-name="aring.alt" 
d="M564 517v-517h-99v88q-31 -47 -78 -73.5t-105 -26.5q-68 0 -122 34.5t-85 96.5t-31 140t31 139.5t85 96t122 34.5q58 0 105 -26.5t78 -73.5v88h99zM387.5 97.5q36.5 23.5 57 66t20.5 95.5t-20.5 95t-57 65.5t-82.5 23.5t-83 -23.5t-57.5 -65.5t-20.5 -95t20.5 -95.5
t57.5 -66t83 -23.5t82.5 23.5zM251 617.5q-31 31.5 -31 75.5t31 75t75 31t75.5 -31t31.5 -75t-31.5 -75.5t-75.5 -31.5t-75 31.5zM366 653q17 17 17 40t-17 40t-40 17t-40 -17t-17 -40t17 -40t40 -17t40 17z" />
    <glyph glyph-name="atilde.alt" 
d="M564 517v-517h-99v88q-31 -47 -78 -73.5t-105 -26.5q-68 0 -122 34.5t-85 96.5t-31 140t31 139.5t85 96t122 34.5q58 0 105 -26.5t78 -73.5v88h99zM387.5 97.5q36.5 23.5 57 66t20.5 95.5t-20.5 95t-57 65.5t-82.5 23.5t-83 -23.5t-57.5 -65.5t-20.5 -95t20.5 -95.5
t57.5 -66t83 -23.5t82.5 23.5zM353.5 582.5q-16.5 8.5 -40.5 26.5q-17 13 -28.5 19.5t-22.5 6.5q-19 0 -30.5 -15t-17.5 -48l-55 9q17 123 101 123q21 0 38 -9t41 -26q17 -13 28.5 -19.5t22.5 -6.5q19 0 30.5 15t17.5 48l54 -8q-15 -124 -101 -124q-21 0 -37.5 8.5z" />
  </font>
</defs>
</svg>
