<?xml version="1.0" standalone="no"?>
<!DOCTYPE svg PUBLIC "-//W3C//DTD SVG 1.1//EN" "http://www.w3.org/Graphics/SVG/1.1/DTD/svg11.dtd" >
<svg xmlns="http://www.w3.org/2000/svg" xmlns:xlink="http://www.w3.org/1999/xlink" version="1.1">
<metadata>
Created by FontForge 20170731 at Thu Apr 25 18:25:51 2019
 By Aleksey,,,
Copyright (c) 2019 VMware, Inc.	
</metadata>
<defs>
<font id="ClarityCity-SemiBold" horiz-adv-x="616" >
  <font-face 
    font-family="Clarity City Semi Bold"
    font-weight="600"
    font-stretch="normal"
    units-per-em="1000"
    panose-1="0 0 7 0 0 0 0 0 0 0"
    ascent="795"
    descent="-205"
    x-height="517"
    cap-height="687"
    bbox="-200 -285 1189 974"
    underline-thickness="20"
    underline-position="-153"
    unicode-range="U+0020-2212"
  />
<missing-glyph horiz-adv-x="500" 
d="M410 -205h-317v1000h317v-1000zM168 728v-33h65v-37h-66v-33h166v33h-66v37h66v33h-165zM167 599v-104h166v34h-66v70h-100zM233 529h-33v36h33v-36zM167 468v-33h66v-37h-66v-33h100v70h66v33h-166zM300 408v-66h-133v-34h166v100h-33zM233 286v-56h34v23h33v-47h-100
v80h-33v-113h166v113h-100zM167 113v-113h166v113h-166zM300 33h-100v47h100v-47zM167 -23v-33h70l-70 -47v-33h166v33h-102l70 47h32v33h-166z" />
    <glyph glyph-name=".notdef" horiz-adv-x="500" 
d="M410 -205h-317v1000h317v-1000zM168 728v-33h65v-37h-66v-33h166v33h-66v37h66v33h-165zM167 599v-104h166v34h-66v70h-100zM233 529h-33v36h33v-36zM167 468v-33h66v-37h-66v-33h100v70h66v33h-166zM300 408v-66h-133v-34h166v100h-33zM233 286v-56h34v23h33v-47h-100
v80h-33v-113h166v113h-100zM167 113v-113h166v113h-166zM300 33h-100v47h100v-47zM167 -23v-33h70l-70 -47v-33h166v33h-102l70 47h32v33h-166z" />
    <glyph glyph-name=".null" horiz-adv-x="0" 
 />
    <glyph glyph-name="nonmarkingreturn" horiz-adv-x="333" 
 />
    <glyph glyph-name="space" unicode=" " horiz-adv-x="273" 
 />
    <glyph glyph-name="exclam" unicode="!" horiz-adv-x="325" 
d="M93 687h141l-29 -462h-84zM106 11.5q-23 23.5 -23 56.5q0 31 23.5 54t56.5 23q31 0 54 -23t23 -54q0 -33 -22.5 -56.5t-54.5 -23.5q-34 0 -57 23.5z" />
    <glyph glyph-name="quotedbl" unicode="&#x22;" horiz-adv-x="501" 
d="M85.5 530q-10.5 54 -10.5 90q0 27 19.5 47t46.5 20q26 0 46 -20t20 -47q0 -62 -40 -215h-53q-18 71 -28.5 125zM305.5 530q-10.5 54 -10.5 90q0 27 19.5 47t46.5 20q26 0 46 -20t20 -47q0 -62 -40 -215h-53q-18 71 -28.5 125z" />
    <glyph glyph-name="numbersign" unicode="#" horiz-adv-x="694" 
d="M524 429l-44 -173h105l-23 -90h-104l-42 -166h-93l42 166h-127l-42 -166h-94l42 166h-100l22 90h100l44 173h-102l22 90h103l42 168h94l-42 -168h127l42 168h93l-42 -168h103l-22 -90h-104zM431 429h-127l-44 -173h127z" />
    <glyph glyph-name="dollar" unicode="$" horiz-adv-x="680" 
d="M555 56.5q-58 -56.5 -162 -65.5v-65h-91v66q-142 15 -241 108l73 89q80 -71 168 -88v195q-70 18 -116 40.5t-71.5 60t-25.5 95.5q0 55 27 99.5t75.5 72t110.5 33.5v62h91v-64q112 -14 202 -92l-68 -91q-63 54 -134 72v-186q109 -26 164.5 -70.5t55.5 -128.5
q0 -86 -58 -142.5zM235.5 454.5q20.5 -18.5 66.5 -33.5v168q-39 -7 -63 -31t-24 -55q0 -30 20.5 -48.5zM463 129.5q25 24.5 25 57.5q0 32 -22.5 51t-72.5 34v-174q45 7 70 31.5z" />
    <glyph glyph-name="percent" unicode="%" horiz-adv-x="867" 
d="M137.5 368q-38.5 23 -59.5 62.5t-21 87.5q0 49 21.5 89t59.5 63t87 23t87 -23t59 -63t21 -88q0 -49 -21 -89t-59.5 -62.5t-87.5 -22.5q-48 0 -86.5 23zM621 687h102l-475 -687h-103zM283 447.5q23 27.5 23 70.5q0 44 -23.5 72t-58.5 28t-57.5 -27.5t-22.5 -72.5
q0 -43 23 -70.5t58 -27.5t58 27.5zM554 13q-38 23 -59 62.5t-21 88.5q0 48 21.5 88t59.5 63.5t87 23.5t87 -23.5t59 -63.5t21 -87q0 -49 -21.5 -89t-60 -63t-86.5 -23q-49 0 -87 23zM700 92.5q23 27.5 23 71.5q0 43 -23.5 71t-58.5 28q-36 0 -58.5 -27.5t-22.5 -70.5
q0 -44 23 -72t59 -28q35 0 58 27.5z" />
    <glyph glyph-name="ampersand" unicode="&#x26;" horiz-adv-x="720" 
d="M565 -13l-78 80q-90 -79 -203 -79q-65 0 -116 24t-80.5 68.5t-29.5 105.5q0 67 36 113.5t116 82.5q-29 40 -41 72.5t-12 70.5q0 46 24.5 85t68 62t95.5 23t94 -22.5t66 -61t24 -85.5q0 -57 -38 -94.5t-122 -75.5q41 -48 123 -135q41 61 70 135l92 -44q-47 -98 -95 -163
l110 -115zM289 582q-23 -22 -23 -57q0 -24 11.5 -48.5t35.5 -54.5q60 24 83.5 46t23.5 57q0 34 -20.5 56.5t-52.5 22.5q-35 0 -58 -22zM420 138q-87 91 -155 171q-43 -24 -64.5 -52.5t-21.5 -64.5q0 -49 34 -78t83 -29q61 0 124 53z" />
    <glyph glyph-name="quotesingle" unicode="'" horiz-adv-x="281" 
d="M85.5 530q-10.5 54 -10.5 90q0 27 19.5 47t46.5 20q26 0 46 -20t20 -47q0 -62 -40 -215h-53q-18 71 -28.5 125z" />
    <glyph glyph-name="parenleft" unicode="(" horiz-adv-x="354" 
d="M104 22q-57 112 -57 243t57 243t162 192l62 -66q-81 -83 -119.5 -170.5t-38.5 -198.5t38.5 -198t119.5 -170l-62 -67q-105 80 -162 192z" />
    <glyph glyph-name="parenright" unicode=")" horiz-adv-x="354" 
d="M26 -103q81 83 119.5 170t38.5 198t-38.5 198.5t-119.5 170.5l63 66q105 -80 162 -192t57 -243t-57 -243t-162 -192z" />
    <glyph glyph-name="asterisk" unicode="*" horiz-adv-x="457" 
d="M205 365q-10 9 -10 21q0 27 11 73q6 30 8 45q-2 -2 -38 -32q-3 -3 -20 -18t-34 -25q-5 -4 -14 -4q-20 0 -30 18q-5 8 -5 17q0 8 4 15.5t11 11.5q19 11 67 26q28 9 45 16q-14 6 -44 16q-45 13 -68 27q-7 4 -11 11t-4 15t5 18q5 8 13.5 13t16.5 5q6 0 14 -4q22 -12 56 -45
q24 -22 36 -31q-3 21 -9 46q-1 4 -6 28t-5 44q0 12 10 21t24 9t24 -9t10 -21q0 -20 -5 -44t-6 -28q-6 -25 -9 -46q2 2 38 32q3 3 20 18t34 25q5 4 15 4q9 0 17 -4.5t12 -13.5q5 -8 5 -17q0 -8 -4 -15.5t-11 -11.5q-17 -10 -39.5 -17.5t-27.5 -9.5q-24 -6 -45 -15
q20 -9 44 -15q48 -16 68 -28q7 -4 11 -11t4 -15t-5 -18q-4 -8 -13 -13t-17 -5q-6 0 -14 4q-17 10 -34 25t-20 18q-16 16 -38 33q3 -21 9 -46q1 -4 6 -28t5 -44q0 -12 -10 -21t-23 -9q-14 0 -24 9z" />
    <glyph glyph-name="plus" unicode="+" horiz-adv-x="599" 
d="M537 282h-183v-185h-109v185h-183v104h183v186h109v-186h183v-104z" />
    <glyph glyph-name="comma" unicode="," horiz-adv-x="323" 
d="M99 -106q45 46 58 94q-31 0 -54 23.5t-23 55.5t23 55t55 23q38 0 61 -30.5t23 -78.5q0 -41 -22.5 -82.5t-73.5 -95.5z" />
    <glyph glyph-name="hyphen" unicode="-" horiz-adv-x="419" 
d="M75 328h269v-107h-269v107z" />
    <glyph glyph-name="period" unicode="." horiz-adv-x="335" 
d="M112 11.5q-23 23.5 -23 56.5q0 31 23.5 54t56.5 23q31 0 54 -23t23 -54q0 -33 -22.5 -56.5t-54.5 -23.5q-34 0 -57 23.5z" />
    <glyph glyph-name="slash" unicode="/" horiz-adv-x="486" 
d="M351 743h131l-347 -817h-131z" />
    <glyph glyph-name="zero" unicode="0" horiz-adv-x="706" 
d="M197.5 33.5q-68.5 45.5 -107 126.5t-38.5 184t38.5 183.5t107 126t155.5 45.5t155.5 -45.5t107 -126t38.5 -183.5t-38.5 -184t-107 -126.5t-155.5 -45.5t-155.5 45.5zM442.5 133q39.5 31 61.5 86t22 125t-22 125t-61.5 85.5t-89.5 30.5t-90 -30.5t-62 -85.5t-22 -125
t22 -125t62 -86t90 -31t89.5 31z" />
    <glyph glyph-name="one" unicode="1" horiz-adv-x="406" 
d="M190 543l-118 -75l-50 88l193 131h100v-687h-125v543z" />
    <glyph glyph-name="two" unicode="2" horiz-adv-x="595" 
d="M38 102l253 202q64 51 91 93t27 85q0 47 -34.5 76t-82.5 29q-51 0 -92.5 -24.5t-81.5 -72.5l-81 75q102 134 259 134q68 0 122.5 -27t86 -76t31.5 -111q0 -69 -36.5 -128.5t-123.5 -126.5l-144 -116h311v-114h-505v102z" />
    <glyph glyph-name="three" unicode="3" horiz-adv-x="605" 
d="M140.5 19.5q-68.5 31.5 -112.5 84.5l76 82q36 -41 84 -64t103 -23q62 0 97.5 27.5t35.5 73.5t-37.5 69.5t-110.5 23.5l-77 -1v108h77q62 -1 98 23.5t36 68.5q0 42 -35.5 68.5t-91.5 26.5q-49 0 -90 -22t-78 -63l-74 76q96 121 252 121q72 0 127.5 -24t86 -66.5
t30.5 -96.5q0 -60 -36 -101t-94 -58q61 -14 103 -56t42 -107q0 -59 -32 -104.5t-90 -71.5t-134 -26q-87 0 -155.5 31.5z" />
    <glyph glyph-name="four" unicode="4" horiz-adv-x="628" 
d="M379 149h-338l-12 97l325 441h150v-431h95v-107h-95v-149h-125v149zM379 256v295l-217 -295h217z" />
    <glyph glyph-name="five" unicode="5" horiz-adv-x="612" 
d="M45 94l74 89q41 -41 88 -64t97 -23q61 0 99 35t38 86q0 53 -38 85t-99 32q-78 0 -140 -48l-85 36l10 365h439v-114h-322l-6 -177q61 42 139 42q62 0 114 -25.5t82.5 -74.5t30.5 -116q0 -70 -33 -123t-93 -82t-138 -29q-156 0 -257 106z" />
    <glyph glyph-name="six" unicode="6" horiz-adv-x="636" 
d="M477.5 413q52.5 -26 83.5 -75.5t31 -115.5q0 -67 -33 -120.5t-91.5 -83.5t-131.5 -30q-141 0 -211.5 94t-70.5 250q0 105 38.5 188.5t107.5 131t157 47.5q116 0 206 -77l-61 -95q-35 30 -69 46t-76 16q-72 0 -119.5 -63t-54.5 -164q32 36 79 56.5t99 20.5q64 0 116.5 -26
zM401 111q31 17 47.5 45.5t16.5 60.5q0 55 -39.5 87.5t-97.5 32.5q-50 0 -87 -25.5t-52 -68.5q24 -149 141 -149q40 0 71 17z" />
    <glyph glyph-name="seven" unicode="7" horiz-adv-x="552" 
d="M377 573h-351v114h496v-94l-283 -593h-142z" />
    <glyph glyph-name="eight" unicode="8" horiz-adv-x="637" 
d="M182 11.5q-61 23.5 -96 68t-35 103.5q0 60 38.5 104.5t101.5 67.5q-57 24 -89.5 63.5t-32.5 95.5q0 57 34.5 99t91.5 64t123 22q67 0 124.5 -22.5t91.5 -64.5t34 -98q0 -57 -33 -96.5t-89 -62.5q64 -24 102 -68.5t38 -103.5q0 -60 -35.5 -104t-96.5 -67.5t-136 -23.5
t-136 23.5zM406 429q39 27 39 69q0 40 -36.5 67.5t-90.5 27.5t-90 -27t-36 -68q0 -43 39 -69t87 -29q49 2 88 29zM419.5 123q40.5 28 40.5 72q0 30 -21.5 53.5t-54.5 36.5t-66 15q-33 -2 -66 -15t-54.5 -36.5t-21.5 -53.5q0 -44 40 -72t102 -28q61 0 101.5 28z" />
    <glyph glyph-name="nine" unicode="9" horiz-adv-x="636" 
d="M511.5 605q70.5 -94 70.5 -250q0 -105 -38.5 -188.5t-107.5 -131t-157 -47.5q-116 0 -206 77l61 95q35 -30 69 -46t76 -16q72 0 119.5 63t54.5 164q-32 -36 -79 -56.5t-99 -20.5q-64 0 -116.5 26t-83.5 75.5t-31 115.5q0 67 33 120.5t91.5 83.5t131.5 30q141 0 211.5 -94
zM395 375.5q37 25.5 52 68.5q-24 149 -141 149q-40 0 -71 -17t-47.5 -45.5t-16.5 -60.5q0 -55 39.5 -87.5t97.5 -32.5q50 0 87 25.5z" />
    <glyph glyph-name="colon" unicode=":" horiz-adv-x="321" 
d="M104.5 390.5q-23.5 23.5 -23.5 56.5q0 31 23.5 54t57.5 23q31 0 54 -23t23 -54q0 -33 -22.5 -56.5t-54.5 -23.5q-34 0 -57.5 23.5zM104.5 11.5q-23.5 23.5 -23.5 56.5q0 31 23.5 54t57.5 23q31 0 54 -23t23 -54q0 -33 -22.5 -56.5t-54.5 -23.5q-34 0 -57.5 23.5z" />
    <glyph glyph-name="semicolon" unicode=";" horiz-adv-x="320" 
d="M98 -106q45 46 58 94q-31 0 -54 23.5t-23 55.5t23 55t55 23q38 0 61 -30.5t23 -78.5q0 -41 -22.5 -82.5t-73.5 -95.5zM104 390.5q-23 23.5 -23 56.5q0 31 23.5 54t56.5 23q31 0 54 -23t23 -54q0 -33 -22.5 -56.5t-54.5 -23.5q-34 0 -57 23.5z" />
    <glyph glyph-name="less" unicode="&#x3c;" horiz-adv-x="596" 
d="M58 295v97l463 211v-102l-361 -157l361 -157v-103z" />
    <glyph glyph-name="equal" unicode="=" horiz-adv-x="703" 
d="M114 501h475v-104h-475v104zM114 275h475v-104h-475v104z" />
    <glyph glyph-name="greater" unicode="&#x3e;" horiz-adv-x="596" 
d="M75 187l361 157l-361 157v102l463 -211v-97l-463 -211v103z" />
    <glyph glyph-name="question" unicode="?" horiz-adv-x="534" 
d="M189 394q75 4 123 32.5t48 68.5q0 38 -31 65t-81 27q-78 0 -141 -72l-73 74q45 51 103 80.5t129 29.5q64 0 114 -25t78 -69t28 -98q0 -67 -51.5 -121.5t-132.5 -72.5v-92h-113v173zM188 11.5q-23 23.5 -23 56.5q0 31 23 54t57 23q31 0 54 -23t23 -54q0 -33 -22.5 -56.5
t-54.5 -23.5q-34 0 -57 23.5z" />
    <glyph glyph-name="at" unicode="@" horiz-adv-x="921" 
d="M254.5 -65.5q-87.5 50.5 -138.5 136.5t-51 188q0 111 57 207t153.5 152.5t208.5 56.5q103 0 188.5 -48t135.5 -128.5t50 -173.5q0 -81 -28.5 -137.5t-73.5 -84.5t-93 -28t-79 22t-42 60q-29 -38 -68 -59.5t-85 -21.5q-74 0 -120.5 49.5t-46.5 129.5q0 67 32 124.5
t84.5 91t110.5 33.5q47 0 80.5 -20.5t53.5 -53.5l12 60l102 -8l-23 -116q-12 -61 -20 -105.5t-8 -61.5q0 -28 15.5 -43.5t42.5 -15.5q29 0 55 20t42.5 62t16.5 103q0 85 -44.5 156.5t-121.5 113.5t-170 42q-102 0 -188.5 -51t-137.5 -138t-51 -188q0 -92 46 -169.5
t124.5 -123.5t173.5 -46q61 0 111.5 14.5t102.5 46.5l20 -29q-56 -36 -112.5 -52.5t-123.5 -16.5q-105 0 -192.5 50.5zM521 210q38 47 38 116q0 43 -23 67t-66 24q-39 0 -71 -21.5t-51 -57t-19 -76.5q0 -45 26 -72t69 -27q59 0 97 47z" />
    <glyph glyph-name="A" unicode="A" horiz-adv-x="763" 
d="M546 130h-328l-54 -130h-139l287 687h139l287 -687h-138zM503 232l-121 289l-121 -289h242z" />
    <glyph glyph-name="B" unicode="B" horiz-adv-x="715" 
d="M95 687h337q59 0 105 -22t71.5 -61.5t25.5 -88.5q0 -100 -97 -152q60 -29 93 -74.5t33 -101.5q0 -54 -28 -96.5t-78 -66.5t-113 -24h-349v687zM401 406q46 0 75.5 24.5t29.5 61.5q0 38 -29.5 62.5t-75.5 24.5h-182v-173h182zM420 108q50 0 82.5 27.5t32.5 70.5
t-32.5 70.5t-82.5 27.5h-201v-196h201z" />
    <glyph glyph-name="C" unicode="C" horiz-adv-x="704" 
d="M231 36.5q-83 48.5 -132 130.5t-49 177t49 176.5t132 130t179 48.5q74 0 141.5 -29.5t118.5 -81.5l-89 -83q-33 38 -77.5 59t-93.5 21q-62 0 -115.5 -33t-85.5 -88.5t-32 -119.5q0 -65 32 -120.5t85.5 -88.5t115.5 -33q49 0 93.5 21t78.5 59l88 -82q-50 -53 -117.5 -82.5
t-142.5 -29.5q-96 0 -179 48.5z" />
    <glyph glyph-name="D" unicode="D" horiz-adv-x="773" 
d="M95 687h241q112 0 200 -44t137.5 -122t49.5 -177t-49.5 -177.5t-137.5 -122.5t-200 -44h-241v687zM349 113q72 0 128 29.5t87.5 82t31.5 119.5t-31.5 119t-87.5 81.5t-128 29.5h-130v-461h130z" />
    <glyph glyph-name="E" unicode="E" horiz-adv-x="668" 
d="M220 573v-166h354v-114h-354v-179h392v-114h-517v687h517v-114h-392z" />
    <glyph glyph-name="F" unicode="F" horiz-adv-x="651" 
d="M220 573v-174h354v-114h-354v-285h-125v687h517v-114h-392z" />
    <glyph glyph-name="G" unicode="G" horiz-adv-x="752" 
d="M392 378h294v-278q-50 -52 -124 -82t-150 -30q-96 0 -179.5 48.5t-133 130.5t-49.5 177t49.5 176.5t133 130t179.5 48.5q76 0 150 -30t124 -81l-89 -83q-32 37 -83 58.5t-102 21.5q-62 0 -116.5 -33t-86.5 -88.5t-32 -119.5q0 -65 32 -120.5t86.5 -88.5t116.5 -33
q39 0 79.5 13t72.5 36v125h-172v102z" />
    <glyph glyph-name="H" unicode="H" horiz-adv-x="781" 
d="M687 687v-687h-125v293h-343v-293h-124v687h124v-280h343v280h125z" />
    <glyph glyph-name="I" unicode="I" horiz-adv-x="314" 
d="M95 687h124v-687h-124v687z" />
    <glyph glyph-name="J" unicode="J" horiz-adv-x="561" 
d="M120 20q-63 32 -96 82l84 82q18 -36 54 -59.5t75 -23.5q50 0 83 36.5t33 94.5v455h124v-463q0 -68 -29.5 -122t-81.5 -84t-119 -30q-64 0 -127 32z" />
    <glyph glyph-name="K" unicode="K" horiz-adv-x="717" 
d="M95 687h124v-336l301 336h154l-275 -303l294 -384h-153l-228 296l-93 -100v-196h-124v687z" />
    <glyph glyph-name="L" unicode="L" horiz-adv-x="601" 
d="M572 114v-114h-477v687h124v-573h353z" />
    <glyph glyph-name="M" unicode="M" horiz-adv-x="891" 
d="M95 687h124l227 -419l226 419h125v-687h-125v459l-226 -419l-227 419v-459h-124v687z" />
    <glyph glyph-name="N" unicode="N" horiz-adv-x="801" 
d="M95 687h124l363 -483v483h124v-687h-124l-363 483v-483h-124v687z" />
    <glyph glyph-name="O" unicode="O" horiz-adv-x="821" 
d="M231 36.5q-83 48.5 -132 130.5t-49 177t49 176.5t132 130t179 48.5t179 -48.5t132.5 -130t49.5 -176.5t-49.5 -177t-132.5 -130.5t-179 -48.5t-179 48.5zM526 135q54 33 85.5 88.5t31.5 120.5q0 64 -31.5 119.5t-85.5 88.5t-116 33t-115.5 -33t-85.5 -88.5t-32 -119.5
q0 -65 32 -120.5t85.5 -88.5t115.5 -33t116 33z" />
    <glyph glyph-name="P" unicode="P" horiz-adv-x="692" 
d="M95 687h299q72 0 131 -29t92.5 -81t33.5 -118t-33.5 -118t-92.5 -81t-131 -29h-175v-231h-124v687zM379 346q65 0 104.5 30.5t39.5 82.5t-39.5 82.5t-104.5 30.5h-160v-226h160z" />
    <glyph glyph-name="Q" unicode="Q" horiz-adv-x="829" 
d="M752 233q-19 -54 -53 -99l66 -57l-66 -77l-71 62q-47 -35 -102.5 -54.5t-115.5 -19.5q-96 0 -179 48.5t-132 130.5t-49 177t49 176.5t132 130t179 48.5t179 -48.5t132.5 -130t49.5 -176.5q0 -57 -19 -111zM536 142l-91 79l66 77l95 -83q37 61 37 129q0 64 -31.5 119.5
t-85.5 88.5t-116 33t-115.5 -33t-85.5 -88.5t-32 -119.5q0 -65 32 -120.5t85.5 -88.5t115.5 -33q68 0 126 40z" />
    <glyph glyph-name="R" unicode="R" horiz-adv-x="700" 
d="M600 317.5q-51 -59.5 -135 -78.5l168 -239h-142l-162 231h-110v-231h-124v687h299q72 0 131 -29t92.5 -81t33.5 -118q0 -82 -51 -141.5zM219 346h160q65 0 104.5 30.5t39.5 82.5t-39.5 82.5t-104.5 30.5h-160v-226z" />
    <glyph glyph-name="S" unicode="S" horiz-adv-x="638" 
d="M171.5 17.5q-74.5 28.5 -132.5 82.5l73 89q103 -93 226 -93q60 0 94 26t34 65q0 28 -16.5 45.5t-49 30t-93.5 26.5q-80 19 -131 41.5t-80 61t-29 100.5q0 59 31.5 106.5t87.5 74t127 26.5q149 0 260 -96l-68 -91q-45 39 -95 59.5t-101 20.5t-83.5 -26t-32.5 -63
q0 -27 16.5 -45t50 -30t92.5 -26q119 -27 179 -71.5t60 -131.5q0 -62 -30.5 -109.5t-88.5 -74t-139 -26.5q-87 0 -161.5 28.5z" />
    <glyph glyph-name="T" unicode="T" horiz-adv-x="623" 
d="M249 573h-220v114h564v-114h-219v-573h-125v573z" />
    <glyph glyph-name="U" unicode="U" horiz-adv-x="762" 
d="M225 27q-69 39 -108 108.5t-39 157.5v394h125v-390q0 -56 23 -101t63.5 -70t91.5 -25q52 0 92.5 25t63.5 70t23 101v390h124v-394q0 -88 -38.5 -157.5t-107.5 -108.5t-157 -39q-87 0 -156 39z" />
    <glyph glyph-name="V" unicode="V" horiz-adv-x="765" 
d="M739 687l-287 -687h-139l-287 687h138l219 -521l218 521h138z" />
    <glyph glyph-name="W" unicode="W" horiz-adv-x="1087" 
d="M29 687h137l147 -492l163 492h135l162 -492l148 492h136l-217 -687h-124l-172 510l-173 -510h-124z" />
    <glyph glyph-name="X" unicode="X" horiz-adv-x="713" 
d="M430 344l255 -344h-148l-181 244l-182 -244h-146l255 343l-255 344h148l181 -244l182 244h146z" />
    <glyph glyph-name="Y" unicode="Y" horiz-adv-x="712" 
d="M293 258l-272 429h147l189 -311l192 311h142l-271 -429v-258h-127v258z" />
    <glyph glyph-name="Z" unicode="Z" horiz-adv-x="645" 
d="M45 95l379 478h-371v114h542v-95l-379 -478h383v-114h-553z" />
    <glyph glyph-name="bracketleft" unicode="[" horiz-adv-x="382" 
d="M91 716h260v-83h-162v-683h162v-83h-260v849z" />
    <glyph glyph-name="backslash" unicode="\" horiz-adv-x="486" 
d="M4 743h131l347 -817h-131z" />
    <glyph glyph-name="bracketright" unicode="]" horiz-adv-x="382" 
d="M32 -50h161v683h-161v83h259v-849h-259v83z" />
    <glyph glyph-name="asciicircum" unicode="^" horiz-adv-x="507" 
d="M211 687h87l153 -274h-91l-107 195l-107 -195h-90z" />
    <glyph glyph-name="underscore" unicode="_" horiz-adv-x="746" 
d="M75 -69h596v-80h-596v80z" />
    <glyph glyph-name="grave" unicode="`" horiz-adv-x="283" 
d="M26 705l114 22l117 -152h-85z" />
    <glyph glyph-name="a" unicode="a" horiz-adv-x="569" 
d="M444.5 469.5q59.5 -59.5 59.5 -158.5v-311h-119v61q-28 -34 -72 -53.5t-90 -19.5q-55 0 -98.5 20.5t-68.5 58t-25 86.5q0 50 28 89t76 61t106 22q69 0 144 -27v13q0 51 -30.5 84.5t-95.5 33.5q-62 0 -140 -39l-42 85q110 54 206 54q102 0 161.5 -59.5zM336.5 100
q39.5 23 48.5 62v59q-60 19 -126 19q-47 0 -79 -23.5t-32 -59.5t29 -58t73 -22q47 0 86.5 23z" />
    <glyph glyph-name="b" unicode="b" horiz-adv-x="659" 
d="M503 494.5q54 -34.5 85 -96t31 -139.5t-31 -140t-85 -96.5t-122 -34.5q-59 0 -106 26t-77 74v-88h-122v699h122v-269q30 47 77.5 73t105.5 26q68 0 122 -34.5zM456 139q42 47 42 120t-42 119.5t-108 46.5q-64 0 -105 -46.5t-41 -119.5q0 -48 18.5 -86t52 -59.5
t75.5 -21.5q66 0 108 47z" />
    <glyph glyph-name="c" unicode="c" horiz-adv-x="534" 
d="M175.5 25q-63.5 37 -101.5 99.5t-38 134.5t38 134t102 99t138 37q58 0 108 -22.5t88 -61.5l-82 -72q-21 24 -52 38t-63 14q-42 0 -78 -22.5t-57 -61t-21 -82.5q0 -45 21 -83.5t57 -61t78 -22.5q33 0 64.5 14.5t53.5 39.5l82 -71q-39 -41 -90 -64t-110 -23
q-74 0 -137.5 37z" />
    <glyph glyph-name="d" unicode="d" horiz-adv-x="656" 
d="M580 699v-699h-122v82q-30 -45 -76.5 -69.5t-102.5 -24.5q-68 0 -122.5 34.5t-85 96.5t-30.5 140t30.5 139.5t85 96t122.5 34.5q56 0 102.5 -24.5t76.5 -68.5v263h122zM416 139q41 47 41 120t-41 119.5t-105 46.5q-65 0 -107 -46.5t-42 -119.5t42 -120t107 -47
q64 0 105 47z" />
    <glyph glyph-name="e" unicode="e" horiz-adv-x="590" 
d="M385 101q40 15 65 39l70 -72q-33 -35 -93 -57.5t-117 -22.5q-74 0 -136.5 35t-99 97t-36.5 140q0 77 35 138t96 96t134 35q119 0 186.5 -82t67.5 -224h-401q10 -62 50.5 -99.5t99.5 -37.5q39 0 79 15zM209 396.5q-40 -34.5 -52 -92.5h282q-9 57 -43.5 92t-91.5 35
q-55 0 -95 -34.5z" />
    <glyph glyph-name="f" unicode="f" horiz-adv-x="351" 
d="M218 517h117v-101h-117v-416h-119v416h-75v101h75v54q0 65 41 107t105 42q29 0 58.5 -11t51.5 -30l-35 -78q-9 9 -22.5 14t-28.5 5q-22 0 -36.5 -17t-14.5 -43v-43z" />
    <glyph glyph-name="g" unicode="g" horiz-adv-x="644" 
d="M569 517v-462q0 -66 -34.5 -117.5t-96 -80.5t-139.5 -29q-65 0 -124 19t-98 50l45 89q27 -25 69.5 -39.5t88.5 -14.5q76 0 121 34t45 93v66q-31 -42 -77 -64.5t-100 -22.5q-66 0 -119 31.5t-83 87.5t-30 127t30 126.5t83 87t119 31.5q55 0 102 -23.5t75 -64.5v76h123z
M406 182q40 40 40 102t-40 101.5t-102 39.5q-61 0 -101 -39.5t-40 -101.5t39.5 -102t101.5 -40t102 40z" />
    <glyph glyph-name="h" unicode="h" 
d="M458 503.5q44 -25.5 68.5 -71t24.5 -103.5v-329h-119v305q0 53 -30 86.5t-78 33.5q-53 0 -89.5 -32.5t-36.5 -79.5v-313h-122v699h122v-252q24 37 66.5 59.5t93.5 22.5q56 0 100 -25.5z" />
    <glyph glyph-name="i" unicode="i" horiz-adv-x="274" 
d="M76 517h122v-517h-122v517zM87.5 616q-20.5 21 -20.5 49t20.5 48.5t49.5 20.5q28 0 48.5 -20.5t20.5 -48.5t-20.5 -49t-48.5 -21q-29 0 -49.5 21z" />
    <glyph glyph-name="j" unicode="j" horiz-adv-x="261" 
d="M-9 -172.5q-27 5.5 -45 13.5l15 93q10 -4 26.5 -7t30.5 -3q22 0 36.5 17t14.5 43v533h122v-542q0 -68 -41.5 -110.5t-107.5 -42.5q-24 0 -51 5.5zM79.5 616q-20.5 21 -20.5 49t20.5 48.5t49.5 20.5q28 0 48.5 -20.5t20.5 -48.5t-20.5 -49t-48.5 -21q-29 0 -49.5 21z" />
    <glyph glyph-name="k" unicode="k" horiz-adv-x="577" 
d="M76 699h122v-426l223 244h144l-212 -231l206 -286h-143l-145 206l-73 -76v-130h-122v699z" />
    <glyph glyph-name="l" unicode="l" horiz-adv-x="274" 
d="M76 699h122v-699h-122v699z" />
    <glyph glyph-name="m" unicode="m" horiz-adv-x="927" 
d="M770.5 503.5q43.5 -25.5 68 -71t24.5 -103.5v-329h-119v309q0 51 -28 83.5t-72 32.5q-50 0 -82 -30.5t-32 -77.5v-317h-118v309q0 51 -28.5 83.5t-72.5 32.5q-49 0 -81 -30.5t-32 -77.5v-317h-122v517h122v-70q20 38 58 60t86 22q61 0 108 -33t67 -90q11 56 53.5 89.5
t103.5 33.5q53 0 96.5 -25.5z" />
    <glyph glyph-name="n" unicode="n" 
d="M458 503.5q44 -25.5 68.5 -71t24.5 -103.5v-329h-119v305q0 53 -30 86.5t-78 33.5q-53 0 -89.5 -32.5t-36.5 -79.5v-313h-122v517h122v-70q24 37 66.5 59.5t93.5 22.5q56 0 100 -25.5z" />
    <glyph glyph-name="o" unicode="o" horiz-adv-x="627" 
d="M175 24.5q-64 36.5 -101.5 99t-37.5 135.5t37.5 135t101.5 98.5t139 36.5t138.5 -36.5t100.5 -98.5t37 -135t-37 -135.5t-100.5 -99t-138.5 -36.5t-139 36.5zM392 114.5q36 22.5 57.5 61t21.5 83.5t-21 83t-57.5 60.5t-78.5 22.5q-43 0 -79 -22.5t-57.5 -60.5t-21.5 -83
t21.5 -83.5t57.5 -61t79 -22.5q42 0 78 22.5z" />
    <glyph glyph-name="p" unicode="p" horiz-adv-x="655" 
d="M499 494.5q54 -34.5 84.5 -96t30.5 -139.5t-30.5 -140t-84.5 -96.5t-122 -34.5q-56 0 -102 24t-77 68v-252h-122v689h122v-80q31 44 77 68t102 24q68 0 122 -34.5zM451 139q42 47 42 120t-42 119.5t-107 46.5q-64 0 -105 -46.5t-41 -119.5t41 -120t105 -47q65 0 107 47z
" />
    <glyph glyph-name="q" unicode="q" horiz-adv-x="660" 
d="M584 517v-689h-122v260q-30 -48 -77 -74t-106 -26q-68 0 -122.5 34.5t-85 96.5t-30.5 140t30.5 139.5t85 96t122.5 34.5q58 0 105.5 -26t77.5 -73v87h122zM416 139q41 47 41 120t-41 119.5t-105 46.5q-65 0 -107 -46.5t-42 -119.5t42 -120t107 -47q64 0 105 47z" />
    <glyph glyph-name="r" unicode="r" horiz-adv-x="418" 
d="M272 499.5q49 29.5 111 29.5v-104q-83 0 -134 -45t-51 -119v-261h-122v517h122v-98q25 51 74 80.5z" />
    <glyph glyph-name="s" unicode="s" horiz-adv-x="494" 
d="M135 8.5q-60 20.5 -107 56.5l52 80q42 -30 88.5 -46.5t88.5 -16.5q41 0 64.5 16t23.5 43q0 28 -26.5 42t-82.5 29q-64 17 -102.5 34.5t-60 46.5t-21.5 74q0 47 24.5 84t69 57.5t101.5 20.5q51 0 102 -16.5t96 -45.5l-48 -82q-37 24 -76 37.5t-74 13.5t-58 -15.5
t-23 -41.5q0 -17 11 -27t31 -17.5t68 -22.5q57 -16 94 -32t62.5 -47t25.5 -81q0 -74 -56 -119t-147 -45q-60 0 -120 20.5z" />
    <glyph glyph-name="t" unicode="t" horiz-adv-x="377" 
d="M353 29q-22 -19 -51.5 -30t-59.5 -11q-64 0 -104.5 42t-40.5 107v279h-75v101h75v142h118v-142h117v-101h-117v-264q0 -26 15 -43t37 -17q15 0 28.5 5t22.5 14z" />
    <glyph glyph-name="u" unicode="u" 
d="M540 517v-517h-122v70q-24 -37 -66.5 -59.5t-93.5 -22.5q-56 0 -100 25.5t-68.5 71t-24.5 103.5v329h119v-305q0 -53 30 -86.5t78 -33.5q53 0 89.5 32.5t36.5 79.5v313h122z" />
    <glyph glyph-name="v" unicode="v" horiz-adv-x="579" 
d="M11 517h130l150 -376l147 376h129l-219 -517h-114z" />
    <glyph glyph-name="w" unicode="w" horiz-adv-x="824" 
d="M16 517h122l108 -353l115 353h102l115 -353l108 353h122l-175 -517h-111l-110 354l-110 -354h-111z" />
    <glyph glyph-name="x" unicode="x" horiz-adv-x="545" 
d="M398 0l-126 173l-127 -173h-133l194 264l-185 253h134l118 -161l118 161h133l-185 -252l194 -265h-135z" />
    <glyph glyph-name="y" unicode="y" horiz-adv-x="572" 
d="M103.5 -173q-30.5 7 -53.5 20l26 88q35 -19 66 -19q46 0 66 34l22 46l-219 521h129l151 -386l142 386h126l-219 -553q-57 -142 -177 -144q-29 0 -59.5 7z" />
    <glyph glyph-name="z" unicode="z" horiz-adv-x="509" 
d="M35 89l275 321h-269v107h429v-89l-275 -321h277v-107h-437v89z" />
    <glyph glyph-name="braceleft" unicode="{" horiz-adv-x="381" 
d="M210.5 -138q-48.5 21 -69.5 57t-21 92l1 127q0 47 -22.5 68t-74.5 21v77q53 0 75 21t22 69l-1 126q0 57 21.5 93t69.5 56t131 28l10 -77q-57 -8 -85 -19.5t-38.5 -31t-10.5 -57.5l1 -133q0 -87 -77 -113q39 -14 58 -41.5t19 -72.5l-1 -132q0 -38 10.5 -58.5t38.5 -31.5
t85 -19l-10 -77q-83 7 -131.5 28z" />
    <glyph glyph-name="bar" unicode="|" horiz-adv-x="315" 
d="M114 743h87v-817h-87v817z" />
    <glyph glyph-name="braceright" unicode="}" horiz-adv-x="381" 
d="M29 -89q57 8 85 19t38.5 31.5t10.5 58.5l-1 132q0 45 19 72.5t58 41.5q-77 26 -77 113l1 133q0 38 -10.5 57.5t-38.5 31t-85 19.5l10 77q83 -8 131 -28t69.5 -56t21.5 -93l-1 -126q0 -48 22 -69t75 -21v-77q-52 0 -74.5 -21t-22.5 -68l1 -127q0 -56 -21 -92t-69.5 -57
t-131.5 -28z" />
    <glyph glyph-name="asciitilde" unicode="~" horiz-adv-x="529" 
d="M292.5 304.5q-17.5 8.5 -42.5 24.5q-18 12 -28.5 17.5t-21.5 5.5q-17 0 -28 -13.5t-17 -43.5l-63 9q15 128 106 128q21 0 38.5 -8.5t42.5 -24.5q18 -12 28.5 -17.5t20.5 -5.5q18 0 29 14t16 44l64 -10q-15 -128 -106 -128q-21 0 -38.5 8.5z" />
    <glyph glyph-name="exclamdown" unicode="&#xa1;" horiz-adv-x="326" 
d="M219.5 505.5q23.5 -23.5 23.5 -56.5q0 -31 -23.5 -54t-57.5 -23q-31 0 -54 23t-23 54q0 33 22.5 56.5t54.5 23.5q34 0 57.5 -23.5zM233 -170h-141l28 462h84z" />
    <glyph glyph-name="cent" unicode="&#xa2;" horiz-adv-x="610" 
d="M386 -10v-64h-90v67q-62 12 -113.5 51t-81 95.5t-29.5 119.5t29.5 119.5t81 95t113.5 50.5v65h90v-62q94 -13 160 -82l-82 -72q-31 35 -78 47v-323q49 13 81 49l82 -71q-67 -72 -163 -85zM221.5 163q28.5 -43 74.5 -61v313q-46 -18 -74.5 -61t-28.5 -95q0 -53 28.5 -96z
" />
    <glyph glyph-name="sterling" unicode="&#xa3;" horiz-adv-x="690" 
d="M629 102v-102h-557v53l79 49v155h-67v75h67v131q0 68 29.5 122t81.5 84t119 30q69 0 132 -32t92 -82l-84 -82q-14 36 -50.5 59.5t-79.5 23.5q-50 0 -82.5 -36.5t-32.5 -94.5v-123h176v-75h-176v-155h353z" />
    <glyph glyph-name="yen" unicode="&#xa5;" horiz-adv-x="776" 
d="M493 324h143v-75h-185v-69h185v-75h-185v-105h-126v105h-185v75h185v69h-185v75h143l-230 363h147l188 -311l193 311h141z" />
    <glyph glyph-name="dieresis" unicode="&#xa8;" horiz-adv-x="453" 
d="M80 606.5q-18 18.5 -18 44.5q0 25 18 43.5t44 18.5q25 0 43.5 -19t18.5 -43q0 -26 -18 -44.5t-44 -18.5t-44 18.5zM285 606.5q-18 18.5 -18 44.5q0 25 18 43.5t44 18.5t44 -18.5t18 -43.5q0 -26 -18 -44.5t-44 -18.5t-44 18.5z" />
    <glyph glyph-name="copyright" unicode="&#xa9;" horiz-adv-x="924" 
d="M264 -62.5q-91 53.5 -144.5 144.5t-53.5 198t53.5 197.5t144.5 144t199 53.5q107 0 198 -53.5t144.5 -144t53.5 -197.5t-53.5 -198t-144.5 -144.5t-198 -53.5q-108 0 -199 53.5zM641 -29q82 48 130 130t48 179q0 96 -48 178t-130 130t-178 48q-97 0 -179.5 -48
t-130.5 -130t-48 -178q0 -97 48 -179t130.5 -130t179.5 -48q96 0 178 48zM328.5 46q-63.5 37 -101.5 99.5t-38 134.5t38 134t102 99t138 37q58 0 108 -22t89 -62l-82 -72q-22 24 -52.5 38t-62.5 14q-42 0 -78 -22.5t-57.5 -61t-21.5 -82.5q0 -45 21.5 -83.5t57.5 -61
t78 -22.5q33 0 64 14.5t54 39.5l82 -71q-39 -41 -90 -64t-111 -23q-74 0 -137.5 37z" />
    <glyph glyph-name="guillemotleft" unicode="&#xab;" horiz-adv-x="559" 
d="M31 253l164 201l101 -22l-143 -178l143 -181l-101 -23zM253 253l164 201l101 -22l-143 -178l143 -181l-101 -23z" />
    <glyph glyph-name="registered" unicode="&#xae;" horiz-adv-x="639" 
d="M442.5 642q56.5 -33 90 -89.5t33.5 -122.5t-33.5 -122.5t-90 -90t-122.5 -33.5q-67 0 -123.5 33.5t-90 90t-33.5 122.5t33.5 122.5t90 89.5t123.5 33q66 0 122.5 -33zM424.5 250q47.5 28 75.5 75.5t28 104.5q0 56 -28 103.5t-75.5 75.5t-104.5 28t-104.5 -28t-75.5 -75.5
t-28 -103.5q0 -57 28 -104.5t75.5 -75.5t104.5 -28t104.5 28zM434 416.5q-18 -25.5 -48 -37.5l71 -100h-83l-64 91h-34v-91h-79v300h138q51 0 84 -29t33 -75q0 -33 -18 -58.5zM276 450h54q16 0 25.5 7t9.5 18q0 12 -9.5 19t-25.5 7h-54v-51z" />
    <glyph glyph-name="macron" unicode="&#xaf;" horiz-adv-x="484" 
d="M75 661h334v-75h-334v75z" />
    <glyph glyph-name="acute" unicode="&#xb4;" horiz-adv-x="285" 
d="M143 727l114 -22l-146 -130h-85z" />
    <glyph glyph-name="paragraph" unicode="&#xb6;" horiz-adv-x="710" 
d="M293 287q-71 0 -124.5 25t-83 70t-29.5 103q0 59 28.5 105t79.5 71t116 25h316v-736h-92v650h-119v-650h-92v337z" />
    <glyph glyph-name="periodcentered" unicode="&#xb7;" horiz-adv-x="325" 
d="M111.5 224q-20.5 21 -20.5 51t20.5 51t51.5 21q29 0 50 -21t21 -51t-21 -51t-50 -21q-31 0 -51.5 21z" />
    <glyph glyph-name="cedilla" unicode="&#xb8;" horiz-adv-x="285" 
d="M215.5 -63q20.5 -19 20.5 -48q0 -38 -29.5 -61t-75.5 -23q-26 0 -51 8t-41 21l24 52q28 -23 62 -23q19 0 31.5 9t12.5 24q0 13 -8.5 21t-25.5 8t-32 -10l-20 20l33 76h66l-23 -55h4q32 0 52.5 -19z" />
    <glyph glyph-name="guillemotright" unicode="&#xbb;" horiz-adv-x="558" 
d="M40 73l143 181l-143 178l101 22l164 -201l-164 -203zM262 73l143 181l-143 178l101 22l164 -201l-164 -203z" />
    <glyph glyph-name="questiondown" unicode="&#xbf;" horiz-adv-x="534" 
d="M346 505.5q23 -23.5 23 -56.5q0 -31 -23.5 -54t-56.5 -23q-31 0 -54 23t-23 54q0 33 22.5 56.5t54.5 23.5q34 0 57 -23.5zM345 123q-75 -4 -123 -32.5t-48 -68.5q0 -38 31 -65t80 -27q77 0 142 72l73 -74q-45 -51 -103 -80.5t-129 -29.5q-65 0 -115 25t-77.5 69t-27.5 98
q0 67 51.5 121.5t132.5 72.5v92h113v-173z" />
    <glyph glyph-name="Agrave" unicode="&#xc0;" horiz-adv-x="763" 
d="M546 130h-328l-54 -130h-139l287 687h139l287 -687h-138zM503 232l-121 289l-121 -289h242zM195 875l114 22l117 -152h-85z" />
    <glyph glyph-name="Aacute" unicode="&#xc1;" horiz-adv-x="763" 
d="M546 130h-328l-54 -130h-139l287 687h139l287 -687h-138zM503 232l-121 289l-121 -289h242zM457 897l114 -22l-146 -130h-85z" />
    <glyph glyph-name="Acircumflex" unicode="&#xc2;" horiz-adv-x="763" 
d="M546 130h-328l-54 -130h-139l287 687h139l287 -687h-138zM503 232l-121 289l-121 -289h242zM330 889h104l105 -144h-80l-77 79l-76 -79h-79z" />
    <glyph glyph-name="Atilde" unicode="&#xc3;" horiz-adv-x="763" 
d="M546 130h-328l-54 -130h-139l287 687h139l287 -687h-138zM503 232l-121 289l-121 -289h242zM409.5 751.5q-17.5 8.5 -42.5 24.5q-18 12 -28.5 17.5t-21.5 5.5q-17 0 -28 -13.5t-17 -43.5l-63 9q15 128 106 128q21 0 38.5 -8.5t42.5 -24.5q18 -12 28.5 -17.5t20.5 -5.5
q18 0 29 14t16 44l64 -10q-15 -128 -106 -128q-21 0 -38.5 8.5z" />
    <glyph glyph-name="Adieresis" unicode="&#xc4;" horiz-adv-x="763" 
d="M546 130h-328l-54 -130h-139l287 687h139l287 -687h-138zM503 232l-121 289l-121 -289h242zM236 776.5q-18 18.5 -18 44.5q0 25 18 43.5t44 18.5q25 0 43.5 -19t18.5 -43q0 -26 -18 -44.5t-44 -18.5t-44 18.5zM441 776.5q-18 18.5 -18 44.5q0 25 18 43.5t44 18.5
t44 -18.5t18 -43.5q0 -26 -18 -44.5t-44 -18.5t-44 18.5z" />
    <glyph glyph-name="Aring" unicode="&#xc5;" horiz-adv-x="763" 
d="M546 130h-328l-54 -130h-139l287 687h139l287 -687h-138zM503 232l-121 289l-121 -289h242zM304 785.5q-32 32.5 -32 78.5t32 78t78 32t78 -32t32 -78t-32 -78.5t-78 -32.5t-78 32.5zM421 825.5q16 16.5 16 38.5q0 23 -16 39t-39 16q-22 0 -38.5 -16t-16.5 -39
q0 -22 16.5 -38.5t38.5 -16.5q23 0 39 16.5z" />
    <glyph glyph-name="AE" unicode="&#xc6;" horiz-adv-x="1070" 
d="M419 687h595v-114h-392v-166h355v-114h-355v-179h392v-114h-517v130h-256l-75 -130h-143zM497 232v341l-197 -341h197z" />
    <glyph glyph-name="Ccedilla" unicode="&#xc7;" horiz-adv-x="704" 
d="M503.5 123q44.5 21 78.5 59l88 -82q-46 -48 -105.5 -77t-126.5 -34l-14 -33h4q32 0 52.5 -19t20.5 -48q0 -38 -29.5 -61t-75.5 -23q-26 0 -51 8t-41 21l24 52q28 -23 62 -23q19 0 31.5 9t12.5 24q0 13 -8.5 21t-25.5 8t-32 -10l-20 20l24 55q-88 10 -162 60t-117 128
t-43 166q0 95 49 176.5t132 130t179 48.5q74 0 141.5 -29.5t118.5 -81.5l-89 -83q-33 38 -77.5 59t-93.5 21q-62 0 -115.5 -33t-85.5 -88.5t-32 -119.5q0 -65 32 -120.5t85.5 -88.5t115.5 -33q49 0 93.5 21z" />
    <glyph glyph-name="Egrave" unicode="&#xc8;" horiz-adv-x="668" 
d="M220 573v-166h354v-114h-354v-179h392v-114h-517v687h517v-114h-392zM167 875l114 22l117 -152h-85z" />
    <glyph glyph-name="Eacute" unicode="&#xc9;" horiz-adv-x="668" 
d="M220 573v-166h354v-114h-354v-179h392v-114h-517v687h517v-114h-392zM428 897l114 -22l-146 -130h-85z" />
    <glyph glyph-name="Ecircumflex" unicode="&#xca;" horiz-adv-x="668" 
d="M220 573v-166h354v-114h-354v-179h392v-114h-517v687h517v-114h-392zM302 889h104l105 -144h-80l-77 79l-76 -79h-79z" />
    <glyph glyph-name="Edieresis" unicode="&#xcb;" horiz-adv-x="668" 
d="M220 573v-166h354v-114h-354v-179h392v-114h-517v687h517v-114h-392zM207 776.5q-18 18.5 -18 44.5q0 25 18 43.5t44 18.5q25 0 43.5 -19t18.5 -43q0 -26 -18 -44.5t-44 -18.5t-44 18.5zM412 776.5q-18 18.5 -18 44.5q0 25 18 43.5t44 18.5t44 -18.5t18 -43.5
q0 -26 -18 -44.5t-44 -18.5t-44 18.5z" />
    <glyph glyph-name="Igrave" unicode="&#xcc;" horiz-adv-x="314" 
d="M95 687h124v-687h-124v687zM-30 875l114 22l117 -152h-85z" />
    <glyph glyph-name="Iacute" unicode="&#xcd;" horiz-adv-x="314" 
d="M95 687h124v-687h-124v687zM232 897l114 -22l-146 -130h-85z" />
    <glyph glyph-name="Icircumflex" unicode="&#xce;" horiz-adv-x="314" 
d="M95 687h124v-687h-124v687zM105 889h104l105 -144h-80l-77 79l-76 -79h-79z" />
    <glyph glyph-name="Idieresis" unicode="&#xcf;" horiz-adv-x="314" 
d="M95 687h124v-687h-124v687zM10 776.5q-18 18.5 -18 44.5q0 25 18 43.5t44 18.5q25 0 43.5 -19t18.5 -43q0 -26 -18 -44.5t-44 -18.5t-44 18.5zM215 776.5q-18 18.5 -18 44.5q0 25 18 43.5t44 18.5t44 -18.5t18 -43.5q0 -26 -18 -44.5t-44 -18.5t-44 18.5z" />
    <glyph glyph-name="Eth" unicode="&#xd0;" horiz-adv-x="806" 
d="M570 643q88 -44 137.5 -122t49.5 -177t-49.5 -177.5t-137.5 -122.5t-200 -44h-242v291h-86v114h86v282h242q112 0 200 -44zM511 142.5q56 29.5 87.5 82t31.5 119.5t-31.5 119t-87.5 81.5t-128 29.5h-130v-169h158l-1 -114h-157v-178h130q72 0 128 29.5z" />
    <glyph glyph-name="Ntilde" unicode="&#xd1;" horiz-adv-x="801" 
d="M95 687h124l363 -483v483h124v-687h-124l-363 483v-483h-124v687zM428.5 751.5q-17.5 8.5 -42.5 24.5q-18 12 -28.5 17.5t-21.5 5.5q-17 0 -28 -13.5t-17 -43.5l-63 9q15 128 106 128q21 0 38.5 -8.5t42.5 -24.5q18 -12 28.5 -17.5t20.5 -5.5q18 0 29 14t16 44l64 -10
q-15 -128 -106 -128q-21 0 -38.5 8.5z" />
    <glyph glyph-name="Ograve" unicode="&#xd2;" horiz-adv-x="821" 
d="M231 36.5q-83 48.5 -132 130.5t-49 177t49 176.5t132 130t179 48.5t179 -48.5t132.5 -130t49.5 -176.5t-49.5 -177t-132.5 -130.5t-179 -48.5t-179 48.5zM526 135q54 33 85.5 88.5t31.5 120.5q0 64 -31.5 119.5t-85.5 88.5t-116 33t-115.5 -33t-85.5 -88.5t-32 -119.5
q0 -65 32 -120.5t85.5 -88.5t115.5 -33t116 33zM224 875l114 22l117 -152h-85z" />
    <glyph glyph-name="Oacute" unicode="&#xd3;" horiz-adv-x="821" 
d="M231 36.5q-83 48.5 -132 130.5t-49 177t49 176.5t132 130t179 48.5t179 -48.5t132.5 -130t49.5 -176.5t-49.5 -177t-132.5 -130.5t-179 -48.5t-179 48.5zM526 135q54 33 85.5 88.5t31.5 120.5q0 64 -31.5 119.5t-85.5 88.5t-116 33t-115.5 -33t-85.5 -88.5t-32 -119.5
q0 -65 32 -120.5t85.5 -88.5t115.5 -33t116 33zM485 897l114 -22l-146 -130h-85z" />
    <glyph glyph-name="Ocircumflex" unicode="&#xd4;" horiz-adv-x="821" 
d="M231 36.5q-83 48.5 -132 130.5t-49 177t49 176.5t132 130t179 48.5t179 -48.5t132.5 -130t49.5 -176.5t-49.5 -177t-132.5 -130.5t-179 -48.5t-179 48.5zM526 135q54 33 85.5 88.5t31.5 120.5q0 64 -31.5 119.5t-85.5 88.5t-116 33t-115.5 -33t-85.5 -88.5t-32 -119.5
q0 -65 32 -120.5t85.5 -88.5t115.5 -33t116 33zM359 889h104l105 -144h-80l-77 79l-76 -79h-79z" />
    <glyph glyph-name="Otilde" unicode="&#xd5;" horiz-adv-x="821" 
d="M231 36.5q-83 48.5 -132 130.5t-49 177t49 176.5t132 130t179 48.5t179 -48.5t132.5 -130t49.5 -176.5t-49.5 -177t-132.5 -130.5t-179 -48.5t-179 48.5zM526 135q54 33 85.5 88.5t31.5 120.5q0 64 -31.5 119.5t-85.5 88.5t-116 33t-115.5 -33t-85.5 -88.5t-32 -119.5
q0 -65 32 -120.5t85.5 -88.5t115.5 -33t116 33zM438.5 751.5q-17.5 8.5 -42.5 24.5q-18 12 -28.5 17.5t-21.5 5.5q-17 0 -28 -13.5t-17 -43.5l-63 9q15 128 106 128q21 0 38.5 -8.5t42.5 -24.5q18 -12 28.5 -17.5t20.5 -5.5q18 0 29 14t16 44l64 -10q-15 -128 -106 -128
q-21 0 -38.5 8.5z" />
    <glyph glyph-name="Odieresis" unicode="&#xd6;" horiz-adv-x="821" 
d="M231 36.5q-83 48.5 -132 130.5t-49 177t49 176.5t132 130t179 48.5t179 -48.5t132.5 -130t49.5 -176.5t-49.5 -177t-132.5 -130.5t-179 -48.5t-179 48.5zM526 135q54 33 85.5 88.5t31.5 120.5q0 64 -31.5 119.5t-85.5 88.5t-116 33t-115.5 -33t-85.5 -88.5t-32 -119.5
q0 -65 32 -120.5t85.5 -88.5t115.5 -33t116 33zM264 776.5q-18 18.5 -18 44.5q0 25 18 43.5t44 18.5q25 0 43.5 -19t18.5 -43q0 -26 -18 -44.5t-44 -18.5t-44 18.5zM469 776.5q-18 18.5 -18 44.5q0 25 18 43.5t44 18.5t44 -18.5t18 -43.5q0 -26 -18 -44.5t-44 -18.5
t-44 18.5z" />
    <glyph glyph-name="multiply" unicode="&#xd7;" horiz-adv-x="545" 
d="M402 128l-131 131l-130 -130l-74 74l130 130l-131 131l77 77l131 -131l129 129l74 -74l-129 -129l131 -131z" />
    <glyph glyph-name="Oslash" unicode="&#xd8;" horiz-adv-x="832" 
d="M751 474.5q26 -62.5 26 -130.5q0 -95 -49 -177t-132 -130.5t-179 -48.5q-107 0 -200 61l-42 -49h-115l91 106q-45 49 -70 110.5t-25 127.5q0 95 49.5 176.5t132.5 130t179 48.5q104 0 193 -57l39 45h115l-86 -101q47 -49 73 -111.5zM231 199l302 353q-53 33 -116 33
q-62 0 -116 -33t-86 -88.5t-32 -119.5q0 -79 48 -145zM532.5 135q53.5 33 85 88.5t31.5 120.5q0 41 -13.5 79.5t-37.5 69.5l-304 -354q58 -37 123 -37q62 0 115.5 33z" />
    <glyph glyph-name="Ugrave" unicode="&#xd9;" horiz-adv-x="762" 
d="M225 27q-69 39 -108 108.5t-39 157.5v394h125v-390q0 -56 23 -101t63.5 -70t91.5 -25q52 0 92.5 25t63.5 70t23 101v390h124v-394q0 -88 -38.5 -157.5t-107.5 -108.5t-157 -39q-87 0 -156 39zM194 875l114 22l117 -152h-85z" />
    <glyph glyph-name="Uacute" unicode="&#xda;" horiz-adv-x="762" 
d="M225 27q-69 39 -108 108.5t-39 157.5v394h125v-390q0 -56 23 -101t63.5 -70t91.5 -25q52 0 92.5 25t63.5 70t23 101v390h124v-394q0 -88 -38.5 -157.5t-107.5 -108.5t-157 -39q-87 0 -156 39zM456 897l114 -22l-146 -130h-85z" />
    <glyph glyph-name="Ucircumflex" unicode="&#xdb;" horiz-adv-x="762" 
d="M225 27q-69 39 -108 108.5t-39 157.5v394h125v-390q0 -56 23 -101t63.5 -70t91.5 -25q52 0 92.5 25t63.5 70t23 101v390h124v-394q0 -88 -38.5 -157.5t-107.5 -108.5t-157 -39q-87 0 -156 39zM329 889h104l105 -144h-80l-77 79l-76 -79h-79z" />
    <glyph glyph-name="Udieresis" unicode="&#xdc;" horiz-adv-x="762" 
d="M225 27q-69 39 -108 108.5t-39 157.5v394h125v-390q0 -56 23 -101t63.5 -70t91.5 -25q52 0 92.5 25t63.5 70t23 101v390h124v-394q0 -88 -38.5 -157.5t-107.5 -108.5t-157 -39q-87 0 -156 39zM235 776.5q-18 18.5 -18 44.5q0 25 18 43.5t44 18.5q25 0 43.5 -19t18.5 -43
q0 -26 -18 -44.5t-44 -18.5t-44 18.5zM440 776.5q-18 18.5 -18 44.5q0 25 18 43.5t44 18.5t44 -18.5t18 -43.5q0 -26 -18 -44.5t-44 -18.5t-44 18.5z" />
    <glyph glyph-name="Yacute" unicode="&#xdd;" horiz-adv-x="712" 
d="M293 258l-272 429h147l189 -311l192 311h142l-271 -429v-258h-127v258zM431 897l114 -22l-146 -130h-85z" />
    <glyph glyph-name="Thorn" unicode="&#xde;" horiz-adv-x="692" 
d="M86 687h124v-113h175q73 0 131.5 -29.5t92 -81.5t33.5 -117q0 -66 -33.5 -118t-92 -81t-131.5 -29h-174v-118h-125v687zM371 232q64 0 104 31t40 83t-39.5 82.5t-104.5 30.5h-160v-227h160z" />
    <glyph glyph-name="germandbls" unicode="&#xdf;" horiz-adv-x="607" 
d="M75 521q0 56 30 100t82.5 68.5t119.5 24.5t119.5 -24.5t82 -68.5t29.5 -100q0 -119 -92 -158q60 -22 90.5 -66.5t30.5 -109.5q0 -54 -28 -96.5t-77.5 -66.5t-112.5 -24h-77v108h52q51 0 83.5 27.5t32.5 70.5t-32.5 70.5t-83.5 27.5h-52v102h33q46 0 76 27t30 65
q0 41 -29.5 67t-76.5 26q-46 0 -76 -27t-30 -71v-493h-124v521z" />
    <glyph glyph-name="agrave" unicode="&#xe0;" horiz-adv-x="569" 
d="M444.5 469.5q59.5 -59.5 59.5 -158.5v-311h-119v61q-28 -34 -72 -53.5t-90 -19.5q-55 0 -98.5 20.5t-68.5 58t-25 86.5q0 50 28 89t76 61t106 22q69 0 144 -27v13q0 51 -30.5 84.5t-95.5 33.5q-62 0 -140 -39l-42 85q110 54 206 54q102 0 161.5 -59.5zM336.5 100
q39.5 23 48.5 62v59q-60 19 -126 19q-47 0 -79 -23.5t-32 -59.5t29 -58t73 -22q47 0 86.5 23zM96 705l114 22l117 -152h-85z" />
    <glyph glyph-name="aacute" unicode="&#xe1;" horiz-adv-x="569" 
d="M444.5 469.5q59.5 -59.5 59.5 -158.5v-311h-119v61q-28 -34 -72 -53.5t-90 -19.5q-55 0 -98.5 20.5t-68.5 58t-25 86.5q0 50 28 89t76 61t106 22q69 0 144 -27v13q0 51 -30.5 84.5t-95.5 33.5q-62 0 -140 -39l-42 85q110 54 206 54q102 0 161.5 -59.5zM336.5 100
q39.5 23 48.5 62v59q-60 19 -126 19q-47 0 -79 -23.5t-32 -59.5t29 -58t73 -22q47 0 86.5 23zM358 727l114 -22l-146 -130h-85z" />
    <glyph glyph-name="acircumflex" unicode="&#xe2;" horiz-adv-x="569" 
d="M444.5 469.5q59.5 -59.5 59.5 -158.5v-311h-119v61q-28 -34 -72 -53.5t-90 -19.5q-55 0 -98.5 20.5t-68.5 58t-25 86.5q0 50 28 89t76 61t106 22q69 0 144 -27v13q0 51 -30.5 84.5t-95.5 33.5q-62 0 -140 -39l-42 85q110 54 206 54q102 0 161.5 -59.5zM336.5 100
q39.5 23 48.5 62v59q-60 19 -126 19q-47 0 -79 -23.5t-32 -59.5t29 -58t73 -22q47 0 86.5 23zM231 719h104l105 -144h-80l-77 79l-76 -79h-79z" />
    <glyph glyph-name="atilde" unicode="&#xe3;" horiz-adv-x="569" 
d="M444.5 469.5q59.5 -59.5 59.5 -158.5v-311h-119v61q-28 -34 -72 -53.5t-90 -19.5q-55 0 -98.5 20.5t-68.5 58t-25 86.5q0 50 28 89t76 61t106 22q69 0 144 -27v13q0 51 -30.5 84.5t-95.5 33.5q-62 0 -140 -39l-42 85q110 54 206 54q102 0 161.5 -59.5zM336.5 100
q39.5 23 48.5 62v59q-60 19 -126 19q-47 0 -79 -23.5t-32 -59.5t29 -58t73 -22q47 0 86.5 23zM310.5 581.5q-17.5 8.5 -42.5 24.5q-18 12 -28.5 17.5t-21.5 5.5q-17 0 -28 -13.5t-17 -43.5l-63 9q15 128 106 128q21 0 38.5 -8.5t42.5 -24.5q18 -12 28.5 -17.5t20.5 -5.5
q18 0 29 14t16 44l64 -10q-15 -128 -106 -128q-21 0 -38.5 8.5z" />
    <glyph glyph-name="adieresis" unicode="&#xe4;" horiz-adv-x="569" 
d="M444.5 469.5q59.5 -59.5 59.5 -158.5v-311h-119v61q-28 -34 -72 -53.5t-90 -19.5q-55 0 -98.5 20.5t-68.5 58t-25 86.5q0 50 28 89t76 61t106 22q69 0 144 -27v13q0 51 -30.5 84.5t-95.5 33.5q-62 0 -140 -39l-42 85q110 54 206 54q102 0 161.5 -59.5zM336.5 100
q39.5 23 48.5 62v59q-60 19 -126 19q-47 0 -79 -23.5t-32 -59.5t29 -58t73 -22q47 0 86.5 23zM136 606.5q-18 18.5 -18 44.5q0 25 18 43.5t44 18.5q25 0 43.5 -19t18.5 -43q0 -26 -18 -44.5t-44 -18.5t-44 18.5zM341 606.5q-18 18.5 -18 44.5q0 25 18 43.5t44 18.5t44 -18.5
t18 -43.5q0 -26 -18 -44.5t-44 -18.5t-44 18.5z" />
    <glyph glyph-name="aring" unicode="&#xe5;" horiz-adv-x="569" 
d="M444.5 469.5q59.5 -59.5 59.5 -158.5v-311h-119v61q-28 -34 -72 -53.5t-90 -19.5q-55 0 -98.5 20.5t-68.5 58t-25 86.5q0 50 28 89t76 61t106 22q69 0 144 -27v13q0 51 -30.5 84.5t-95.5 33.5q-62 0 -140 -39l-42 85q110 54 206 54q102 0 161.5 -59.5zM336.5 100
q39.5 23 48.5 62v59q-60 19 -126 19q-47 0 -79 -23.5t-32 -59.5t29 -58t73 -22q47 0 86.5 23zM205 615.5q-32 32.5 -32 78.5t32 78t78 32t78 -32t32 -78t-32 -78.5t-78 -32.5t-78 32.5zM322 655.5q16 16.5 16 38.5q0 23 -16 39t-39 16q-22 0 -38.5 -16t-16.5 -39
q0 -22 16.5 -38.5t38.5 -16.5q23 0 39 16.5z" />
    <glyph glyph-name="ae" unicode="&#xe6;" horiz-adv-x="938" 
d="M733 101q40 15 65 39l70 -72q-34 -35 -93.5 -57.5t-116.5 -22.5q-62 0 -117 25.5t-93 70.5q-32 -45 -86 -70.5t-120 -25.5q-97 0 -154 44.5t-57 120.5q0 50 28 89t76.5 61t106.5 22q69 0 144 -27v13q0 51 -30.5 84.5t-95.5 33.5q-64 0 -140 -39l-42 85q56 28 103 41
t95 13q61 0 106.5 -22.5t71.5 -63.5q36 41 87 63.5t109 22.5q79 0 136.5 -37t88 -106t30.5 -163h-401q10 -62 50.5 -99.5t99.5 -37.5q39 0 79 15zM557 396.5q-40 -34.5 -52 -92.5h282q-9 57 -44 92t-91 35q-55 0 -95 -34.5zM348.5 109q37.5 32 37.5 78v33q-58 20 -126 20
q-47 0 -79 -23.5t-32 -59.5q0 -37 29 -58.5t78 -21.5q55 0 92.5 32z" />
    <glyph glyph-name="ccedilla" unicode="&#xe7;" horiz-adv-x="534" 
d="M430.5 14.5q-46.5 -22.5 -99.5 -25.5l-14 -33h4q32 0 52.5 -19t20.5 -48q0 -38 -29.5 -61t-75.5 -23q-26 0 -51 8t-41 21l24 52q28 -23 62 -23q19 0 31.5 9t12.5 24q0 13 -8.5 21t-25.5 8t-32 -10l-20 20l25 57q-64 11 -116.5 50t-83 96t-30.5 121q0 72 38 134t102 99
t138 37q58 0 108 -22.5t88 -61.5l-82 -72q-21 24 -52 38t-63 14q-42 0 -78 -22.5t-57 -61t-21 -82.5q0 -45 21 -83.5t57 -61t78 -22.5q33 0 64.5 14.5t53.5 39.5l82 -71q-36 -38 -82.5 -60.5z" />
    <glyph glyph-name="egrave" unicode="&#xe8;" horiz-adv-x="590" 
d="M385 101q40 15 65 39l70 -72q-33 -35 -93 -57.5t-117 -22.5q-74 0 -136.5 35t-99 97t-36.5 140q0 77 35 138t96 96t134 35q119 0 186.5 -82t67.5 -224h-401q10 -62 50.5 -99.5t99.5 -37.5q39 0 79 15zM209 396.5q-40 -34.5 -52 -92.5h282q-9 57 -43.5 92t-91.5 35
q-55 0 -95 -34.5zM116 705l114 22l117 -152h-85z" />
    <glyph glyph-name="eacute" unicode="&#xe9;" horiz-adv-x="590" 
d="M385 101q40 15 65 39l70 -72q-33 -35 -93 -57.5t-117 -22.5q-74 0 -136.5 35t-99 97t-36.5 140q0 77 35 138t96 96t134 35q119 0 186.5 -82t67.5 -224h-401q10 -62 50.5 -99.5t99.5 -37.5q39 0 79 15zM209 396.5q-40 -34.5 -52 -92.5h282q-9 57 -43.5 92t-91.5 35
q-55 0 -95 -34.5zM377 727l114 -22l-146 -130h-85z" />
    <glyph glyph-name="ecircumflex" unicode="&#xea;" horiz-adv-x="590" 
d="M385 101q40 15 65 39l70 -72q-33 -35 -93 -57.5t-117 -22.5q-74 0 -136.5 35t-99 97t-36.5 140q0 77 35 138t96 96t134 35q119 0 186.5 -82t67.5 -224h-401q10 -62 50.5 -99.5t99.5 -37.5q39 0 79 15zM209 396.5q-40 -34.5 -52 -92.5h282q-9 57 -43.5 92t-91.5 35
q-55 0 -95 -34.5zM251 719h104l105 -144h-80l-77 79l-76 -79h-79z" />
    <glyph glyph-name="edieresis" unicode="&#xeb;" horiz-adv-x="590" 
d="M385 101q40 15 65 39l70 -72q-33 -35 -93 -57.5t-117 -22.5q-74 0 -136.5 35t-99 97t-36.5 140q0 77 35 138t96 96t134 35q119 0 186.5 -82t67.5 -224h-401q10 -62 50.5 -99.5t99.5 -37.5q39 0 79 15zM209 396.5q-40 -34.5 -52 -92.5h282q-9 57 -43.5 92t-91.5 35
q-55 0 -95 -34.5zM156 606.5q-18 18.5 -18 44.5q0 25 18 43.5t44 18.5q25 0 43.5 -19t18.5 -43q0 -26 -18 -44.5t-44 -18.5t-44 18.5zM361 606.5q-18 18.5 -18 44.5q0 25 18 43.5t44 18.5t44 -18.5t18 -43.5q0 -26 -18 -44.5t-44 -18.5t-44 18.5z" />
    <glyph glyph-name="igrave" unicode="&#xec;" horiz-adv-x="274" 
d="M76 517h122v-517h-122v517zM-49 705l114 22l117 -152h-85z" />
    <glyph glyph-name="iacute" unicode="&#xed;" horiz-adv-x="274" 
d="M76 517h122v-517h-122v517zM212 727l114 -22l-146 -130h-85z" />
    <glyph glyph-name="icircumflex" unicode="&#xee;" horiz-adv-x="274" 
d="M76 517h122v-517h-122v517zM86 719h104l105 -144h-80l-77 79l-76 -79h-79z" />
    <glyph glyph-name="idieresis" unicode="&#xef;" horiz-adv-x="274" 
d="M76 517h122v-517h-122v517zM-9 606.5q-18 18.5 -18 44.5q0 25 18 43.5t44 18.5q25 0 43.5 -19t18.5 -43q0 -26 -18 -44.5t-44 -18.5t-44 18.5zM196 606.5q-18 18.5 -18 44.5q0 25 18 43.5t44 18.5t44 -18.5t18 -43.5q0 -26 -18 -44.5t-44 -18.5t-44 18.5z" />
    <glyph glyph-name="eth" unicode="&#xf0;" horiz-adv-x="613" 
d="M527 450.5q42 -78.5 42 -173.5q0 -84 -33.5 -150t-94 -102.5t-137.5 -36.5t-138 33.5t-95 92.5t-34 135q0 71 29 127.5t81 88t118 31.5q92 0 158 -76q-36 72 -125 148l-111 -49l-32 73l72 32l-50 34l-25 17l113 47q48 -38 65 -52l94 42l32 -73l-60 -27q89 -83 131 -161.5
zM408 135.5q40 42.5 40 108.5q0 64 -40.5 107t-105.5 43q-64 0 -104 -41.5t-40 -106.5q0 -68 41 -110.5t105 -42.5t104 42.5z" />
    <glyph glyph-name="ntilde" unicode="&#xf1;" 
d="M458 503.5q44 -25.5 68.5 -71t24.5 -103.5v-329h-119v305q0 53 -30 86.5t-78 33.5q-53 0 -89.5 -32.5t-36.5 -79.5v-313h-122v517h122v-70q24 37 66.5 59.5t93.5 22.5q56 0 100 -25.5zM338.5 581.5q-17.5 8.5 -42.5 24.5q-18 12 -28.5 17.5t-21.5 5.5q-17 0 -28 -13.5
t-17 -43.5l-63 9q15 128 106 128q21 0 38.5 -8.5t42.5 -24.5q18 -12 28.5 -17.5t20.5 -5.5q18 0 29 14t16 44l64 -10q-15 -128 -106 -128q-21 0 -38.5 8.5z" />
    <glyph glyph-name="ograve" unicode="&#xf2;" horiz-adv-x="627" 
d="M175 24.5q-64 36.5 -101.5 99t-37.5 135.5t37.5 135t101.5 98.5t139 36.5t138.5 -36.5t100.5 -98.5t37 -135t-37 -135.5t-100.5 -99t-138.5 -36.5t-139 36.5zM392 114.5q36 22.5 57.5 61t21.5 83.5t-21 83t-57.5 60.5t-78.5 22.5q-43 0 -79 -22.5t-57.5 -60.5t-21.5 -83
t21.5 -83.5t57.5 -61t79 -22.5q42 0 78 22.5zM127 705l114 22l117 -152h-85z" />
    <glyph glyph-name="oacute" unicode="&#xf3;" horiz-adv-x="627" 
d="M175 24.5q-64 36.5 -101.5 99t-37.5 135.5t37.5 135t101.5 98.5t139 36.5t138.5 -36.5t100.5 -98.5t37 -135t-37 -135.5t-100.5 -99t-138.5 -36.5t-139 36.5zM392 114.5q36 22.5 57.5 61t21.5 83.5t-21 83t-57.5 60.5t-78.5 22.5q-43 0 -79 -22.5t-57.5 -60.5t-21.5 -83
t21.5 -83.5t57.5 -61t79 -22.5q42 0 78 22.5zM389 727l114 -22l-146 -130h-85z" />
    <glyph glyph-name="ocircumflex" unicode="&#xf4;" horiz-adv-x="627" 
d="M175 24.5q-64 36.5 -101.5 99t-37.5 135.5t37.5 135t101.5 98.5t139 36.5t138.5 -36.5t100.5 -98.5t37 -135t-37 -135.5t-100.5 -99t-138.5 -36.5t-139 36.5zM392 114.5q36 22.5 57.5 61t21.5 83.5t-21 83t-57.5 60.5t-78.5 22.5q-43 0 -79 -22.5t-57.5 -60.5t-21.5 -83
t21.5 -83.5t57.5 -61t79 -22.5q42 0 78 22.5zM262 719h104l105 -144h-80l-77 79l-76 -79h-79z" />
    <glyph glyph-name="otilde" unicode="&#xf5;" horiz-adv-x="627" 
d="M175 24.5q-64 36.5 -101.5 99t-37.5 135.5t37.5 135t101.5 98.5t139 36.5t138.5 -36.5t100.5 -98.5t37 -135t-37 -135.5t-100.5 -99t-138.5 -36.5t-139 36.5zM392 114.5q36 22.5 57.5 61t21.5 83.5t-21 83t-57.5 60.5t-78.5 22.5q-43 0 -79 -22.5t-57.5 -60.5t-21.5 -83
t21.5 -83.5t57.5 -61t79 -22.5q42 0 78 22.5zM341.5 581.5q-17.5 8.5 -42.5 24.5q-18 12 -28.5 17.5t-21.5 5.5q-17 0 -28 -13.5t-17 -43.5l-63 9q15 128 106 128q21 0 38.5 -8.5t42.5 -24.5q18 -12 28.5 -17.5t20.5 -5.5q18 0 29 14t16 44l64 -10q-15 -128 -106 -128
q-21 0 -38.5 8.5z" />
    <glyph glyph-name="odieresis" unicode="&#xf6;" horiz-adv-x="627" 
d="M175 24.5q-64 36.5 -101.5 99t-37.5 135.5t37.5 135t101.5 98.5t139 36.5t138.5 -36.5t100.5 -98.5t37 -135t-37 -135.5t-100.5 -99t-138.5 -36.5t-139 36.5zM392 114.5q36 22.5 57.5 61t21.5 83.5t-21 83t-57.5 60.5t-78.5 22.5q-43 0 -79 -22.5t-57.5 -60.5t-21.5 -83
t21.5 -83.5t57.5 -61t79 -22.5q42 0 78 22.5zM167 606.5q-18 18.5 -18 44.5q0 25 18 43.5t44 18.5q25 0 43.5 -19t18.5 -43q0 -26 -18 -44.5t-44 -18.5t-44 18.5zM372 606.5q-18 18.5 -18 44.5q0 25 18 43.5t44 18.5t44 -18.5t18 -43.5q0 -26 -18 -44.5t-44 -18.5t-44 18.5z
" />
    <glyph glyph-name="divide" unicode="&#xf7;" horiz-adv-x="599" 
d="M249 463.5q-21 21.5 -21 51.5q0 28 21.5 49t51.5 21q29 0 50 -21t21 -49q0 -30 -21 -51.5t-50 -21.5q-31 0 -52 21.5zM62 386h475v-104h-475v104zM249 104.5q-21 21.5 -21 51.5q0 28 21.5 49t51.5 21q29 0 50 -21t21 -49q0 -30 -21 -51.5t-50 -21.5q-31 0 -52 21.5z" />
    <glyph glyph-name="oslash" unicode="&#xf8;" horiz-adv-x="643" 
d="M527 437q33 -36 51 -82t18 -96q0 -73 -37 -135.5t-100.5 -99t-138.5 -36.5q-78 0 -145 40l-24 -28h-99l65 75q-35 38 -54.5 85t-19.5 99q0 73 37.5 135t101 98.5t138.5 36.5q82 0 150 -43l27 31h99zM191 162l208 241q-38 22 -79 22q-43 0 -79 -22.5t-57.5 -60.5
t-21.5 -83q0 -53 29 -97zM452 349l-205 -238q35 -19 73 -19q42 0 78 22.5t57.5 61t21.5 83.5q0 49 -25 90z" />
    <glyph glyph-name="ugrave" unicode="&#xf9;" 
d="M540 517v-517h-122v70q-24 -37 -66.5 -59.5t-93.5 -22.5q-56 0 -100 25.5t-68.5 71t-24.5 103.5v329h119v-305q0 -53 30 -86.5t78 -33.5q53 0 89.5 32.5t36.5 79.5v313h122zM109 705l114 22l117 -152h-85z" />
    <glyph glyph-name="uacute" unicode="&#xfa;" 
d="M540 517v-517h-122v70q-24 -37 -66.5 -59.5t-93.5 -22.5q-56 0 -100 25.5t-68.5 71t-24.5 103.5v329h119v-305q0 -53 30 -86.5t78 -33.5q53 0 89.5 32.5t36.5 79.5v313h122zM371 727l114 -22l-146 -130h-85z" />
    <glyph glyph-name="ucircumflex" unicode="&#xfb;" 
d="M540 517v-517h-122v70q-24 -37 -66.5 -59.5t-93.5 -22.5q-56 0 -100 25.5t-68.5 71t-24.5 103.5v329h119v-305q0 -53 30 -86.5t78 -33.5q53 0 89.5 32.5t36.5 79.5v313h122zM244 719h104l105 -144h-80l-77 79l-76 -79h-79z" />
    <glyph glyph-name="udieresis" unicode="&#xfc;" 
d="M540 517v-517h-122v70q-24 -37 -66.5 -59.5t-93.5 -22.5q-56 0 -100 25.5t-68.5 71t-24.5 103.5v329h119v-305q0 -53 30 -86.5t78 -33.5q53 0 89.5 32.5t36.5 79.5v313h122zM149 606.5q-18 18.5 -18 44.5q0 25 18 43.5t44 18.5q25 0 43.5 -19t18.5 -43q0 -26 -18 -44.5
t-44 -18.5t-44 18.5zM354 606.5q-18 18.5 -18 44.5q0 25 18 43.5t44 18.5t44 -18.5t18 -43.5q0 -26 -18 -44.5t-44 -18.5t-44 18.5z" />
    <glyph glyph-name="yacute" unicode="&#xfd;" horiz-adv-x="572" 
d="M103.5 -173q-30.5 7 -53.5 20l26 88q35 -19 66 -19q46 0 66 34l22 46l-219 521h129l151 -386l142 386h126l-219 -553q-57 -142 -177 -144q-29 0 -59.5 7zM365 727l114 -22l-146 -130h-85z" />
    <glyph glyph-name="thorn" unicode="&#xfe;" horiz-adv-x="656" 
d="M499.5 494.5q54.5 -34.5 85 -96t30.5 -139.5t-30.5 -140t-85 -96.5t-122.5 -34.5q-56 0 -102 24t-76 68v-252h-123v871h123v-262q30 44 76 68t102 24q68 0 122.5 -34.5zM452 139q42 47 42 120t-42 119.5t-107 46.5q-64 0 -105 -46.5t-41 -119.5t41 -120t105 -47
q65 0 107 47z" />
    <glyph glyph-name="ydieresis" unicode="&#xff;" horiz-adv-x="572" 
d="M103.5 -173q-30.5 7 -53.5 20l26 88q35 -19 66 -19q46 0 66 34l22 46l-219 521h129l151 -386l142 386h126l-219 -553q-57 -142 -177 -144q-29 0 -59.5 7zM144 606.5q-18 18.5 -18 44.5q0 25 18 43.5t44 18.5q25 0 43.5 -19t18.5 -43q0 -26 -18 -44.5t-44 -18.5t-44 18.5z
M349 606.5q-18 18.5 -18 44.5q0 25 18 43.5t44 18.5t44 -18.5t18 -43.5q0 -26 -18 -44.5t-44 -18.5t-44 18.5z" />
    <glyph glyph-name="Amacron" unicode="&#x100;" horiz-adv-x="763" 
d="M546 130h-328l-54 -130h-139l287 687h139l287 -687h-138zM503 232l-121 289l-121 -289h242zM215 831h334v-75h-334v75z" />
    <glyph glyph-name="amacron" unicode="&#x101;" horiz-adv-x="569" 
d="M444.5 469.5q59.5 -59.5 59.5 -158.5v-311h-119v61q-28 -34 -72 -53.5t-90 -19.5q-55 0 -98.5 20.5t-68.5 58t-25 86.5q0 50 28 89t76 61t106 22q69 0 144 -27v13q0 51 -30.5 84.5t-95.5 33.5q-62 0 -140 -39l-42 85q110 54 206 54q102 0 161.5 -59.5zM336.5 100
q39.5 23 48.5 62v59q-60 19 -126 19q-47 0 -79 -23.5t-32 -59.5t29 -58t73 -22q47 0 86.5 23zM116 661h334v-75h-334v75z" />
    <glyph glyph-name="Abreve" unicode="&#x102;" horiz-adv-x="763" 
d="M546 130h-328l-54 -130h-139l287 687h139l287 -687h-138zM503 232l-121 289l-121 -289h242zM299 769.5q-40 16.5 -73 48.5l58 58q20 -20 46 -31.5t52 -11.5t52 11.5t46 31.5l58 -58q-32 -32 -72.5 -48.5t-83.5 -16.5t-83 16.5z" />
    <glyph glyph-name="abreve" unicode="&#x103;" horiz-adv-x="569" 
d="M444.5 469.5q59.5 -59.5 59.5 -158.5v-311h-119v61q-28 -34 -72 -53.5t-90 -19.5q-55 0 -98.5 20.5t-68.5 58t-25 86.5q0 50 28 89t76 61t106 22q69 0 144 -27v13q0 51 -30.5 84.5t-95.5 33.5q-62 0 -140 -39l-42 85q110 54 206 54q102 0 161.5 -59.5zM336.5 100
q39.5 23 48.5 62v59q-60 19 -126 19q-47 0 -79 -23.5t-32 -59.5t29 -58t73 -22q47 0 86.5 23zM200 599.5q-40 16.5 -73 48.5l58 58q20 -20 46 -31.5t52 -11.5t52 11.5t46 31.5l58 -58q-32 -32 -72.5 -48.5t-83.5 -16.5t-83 16.5z" />
    <glyph glyph-name="Aogonek" unicode="&#x104;" horiz-adv-x="763" 
d="M807 -142q-38 -31 -88 -31q-49 0 -79.5 30t-30.5 80q0 36 21 63h-30l-54 130h-328l-54 -130h-139l287 687h139l287 -687q-22 0 -36 -13.5t-14 -35.5t13.5 -34t37.5 -12t40 16zM503 232l-121 289l-121 -289h242z" />
    <glyph glyph-name="aogonek" unicode="&#x105;" horiz-adv-x="569" 
d="M573 -142q-38 -31 -88 -31q-49 0 -79.5 30t-30.5 80q0 36 21 63h-11v61q-28 -34 -72 -53.5t-90 -19.5q-55 0 -98.5 20.5t-68.5 58t-25 86.5q0 50 28 89t76 61t106 22q69 0 144 -27v13q0 51 -30.5 84.5t-95.5 33.5q-62 0 -140 -39l-42 85q110 54 206 54q102 0 161.5 -59.5
t59.5 -158.5v-311q-22 0 -36 -13.5t-14 -35.5t13.5 -34t37.5 -12t40 16zM336.5 100q39.5 23 48.5 62v59q-60 19 -126 19q-47 0 -79 -23.5t-32 -59.5t29 -58t73 -22q47 0 86.5 23z" />
    <glyph glyph-name="Cacute" unicode="&#x106;" horiz-adv-x="704" 
d="M231 36.5q-83 48.5 -132 130.5t-49 177t49 176.5t132 130t179 48.5q74 0 141.5 -29.5t118.5 -81.5l-89 -83q-33 38 -77.5 59t-93.5 21q-62 0 -115.5 -33t-85.5 -88.5t-32 -119.5q0 -65 32 -120.5t85.5 -88.5t115.5 -33q49 0 93.5 21t78.5 59l88 -82q-50 -53 -117.5 -82.5
t-142.5 -29.5q-96 0 -179 48.5zM485 897l114 -22l-146 -130h-85z" />
    <glyph glyph-name="cacute" unicode="&#x107;" horiz-adv-x="534" 
d="M175.5 25q-63.5 37 -101.5 99.5t-38 134.5t38 134t102 99t138 37q58 0 108 -22.5t88 -61.5l-82 -72q-21 24 -52 38t-63 14q-42 0 -78 -22.5t-57 -61t-21 -82.5q0 -45 21 -83.5t57 -61t78 -22.5q33 0 64.5 14.5t53.5 39.5l82 -71q-39 -41 -90 -64t-110 -23
q-74 0 -137.5 37zM368 727l114 -22l-146 -130h-85z" />
    <glyph glyph-name="Ccaron" unicode="&#x10c;" horiz-adv-x="704" 
d="M231 36.5q-83 48.5 -132 130.5t-49 177t49 176.5t132 130t179 48.5q74 0 141.5 -29.5t118.5 -81.5l-89 -83q-33 38 -77.5 59t-93.5 21q-62 0 -115.5 -33t-85.5 -88.5t-32 -119.5q0 -65 32 -120.5t85.5 -88.5t115.5 -33q49 0 93.5 21t78.5 59l88 -82q-50 -53 -117.5 -82.5
t-142.5 -29.5q-96 0 -179 48.5zM255 889h79l76 -78l77 78h80l-105 -144h-104z" />
    <glyph glyph-name="ccaron" unicode="&#x10d;" horiz-adv-x="534" 
d="M175.5 25q-63.5 37 -101.5 99.5t-38 134.5t38 134t102 99t138 37q58 0 108 -22.5t88 -61.5l-82 -72q-21 24 -52 38t-63 14q-42 0 -78 -22.5t-57 -61t-21 -82.5q0 -45 21 -83.5t57 -61t78 -22.5q33 0 64.5 14.5t53.5 39.5l82 -71q-39 -41 -90 -64t-110 -23
q-74 0 -137.5 37zM138 719h79l76 -78l77 78h80l-105 -144h-104z" />
    <glyph glyph-name="Dcaron" unicode="&#x10e;" horiz-adv-x="773" 
d="M95 687h241q112 0 200 -44t137.5 -122t49.5 -177t-49.5 -177.5t-137.5 -122.5t-200 -44h-241v687zM349 113q72 0 128 29.5t87.5 82t31.5 119.5t-31.5 119t-87.5 81.5t-128 29.5h-130v-461h130zM181 889h79l76 -78l77 78h80l-105 -144h-104z" />
    <glyph glyph-name="dcaron" unicode="&#x10f;" horiz-adv-x="747" 
d="M580 699v-699h-122v82q-30 -45 -76.5 -69.5t-102.5 -24.5q-68 0 -122.5 34.5t-85 96.5t-30.5 140t30.5 139.5t85 96t122.5 34.5q56 0 102.5 -24.5t76.5 -68.5v263h122zM416 139q41 47 41 120t-41 119.5t-105 46.5q-65 0 -107 -46.5t-42 -119.5t42 -120t107 -47
q64 0 105 47zM670 500q37 35 46 75q-25 0 -42.5 18t-17.5 44q0 25 18.5 43.5t43.5 18.5q29 0 47.5 -24.5t18.5 -62.5q0 -31 -18 -63.5t-59 -76.5z" />
    <glyph glyph-name="Dcroat" unicode="&#x110;" horiz-adv-x="806" 
d="M570 643q88 -44 137.5 -122t49.5 -177t-49.5 -177.5t-137.5 -122.5t-200 -44h-242v291h-86v114h86v282h242q112 0 200 -44zM511 142.5q56 29.5 87.5 82t31.5 119.5t-31.5 119t-87.5 81.5t-128 29.5h-130v-169h158l-1 -114h-157v-178h130q72 0 128 29.5z" />
    <glyph glyph-name="dcroat" unicode="&#x111;" horiz-adv-x="656" 
d="M644 577h-64v-577h-122v82q-30 -45 -76.5 -69.5t-102.5 -24.5q-68 0 -122.5 34.5t-85 96.5t-30.5 140t30.5 139.5t85 96t122.5 34.5q56 0 102.5 -24.5t76.5 -68.5v141h-156v66h156v56h122v-56h64v-66zM416 139q41 47 41 120t-41 119.5t-105 46.5q-65 0 -107 -46.5
t-42 -119.5t42 -120t107 -47q64 0 105 47z" />
    <glyph glyph-name="Emacron" unicode="&#x112;" horiz-adv-x="668" 
d="M220 573v-166h354v-114h-354v-179h392v-114h-517v687h517v-114h-392zM186 831h334v-75h-334v75z" />
    <glyph glyph-name="emacron" unicode="&#x113;" horiz-adv-x="590" 
d="M385 101q40 15 65 39l70 -72q-33 -35 -93 -57.5t-117 -22.5q-74 0 -136.5 35t-99 97t-36.5 140q0 77 35 138t96 96t134 35q119 0 186.5 -82t67.5 -224h-401q10 -62 50.5 -99.5t99.5 -37.5q39 0 79 15zM209 396.5q-40 -34.5 -52 -92.5h282q-9 57 -43.5 92t-91.5 35
q-55 0 -95 -34.5zM135 661h334v-75h-334v75z" />
    <glyph glyph-name="Edotaccent" unicode="&#x116;" horiz-adv-x="668" 
d="M220 573v-166h354v-114h-354v-179h392v-114h-517v687h517v-114h-392zM309 776.5q-18 18.5 -18 44.5q0 25 18 43.5t44 18.5q25 0 43.5 -19t18.5 -43q0 -26 -18 -44.5t-44 -18.5t-44 18.5z" />
    <glyph glyph-name="edotaccent" unicode="&#x117;" horiz-adv-x="590" 
d="M385 101q40 15 65 39l70 -72q-33 -35 -93 -57.5t-117 -22.5q-74 0 -136.5 35t-99 97t-36.5 140q0 77 35 138t96 96t134 35q119 0 186.5 -82t67.5 -224h-401q10 -62 50.5 -99.5t99.5 -37.5q39 0 79 15zM209 396.5q-40 -34.5 -52 -92.5h282q-9 57 -43.5 92t-91.5 35
q-55 0 -95 -34.5zM258 606.5q-18 18.5 -18 44.5q0 25 18 43.5t44 18.5q25 0 43.5 -19t18.5 -43q0 -26 -18 -44.5t-44 -18.5t-44 18.5z" />
    <glyph glyph-name="Eogonek" unicode="&#x118;" horiz-adv-x="662" 
d="M220 573v-166h354v-114h-354v-179h392v-114h-98q-22 0 -36 -13.5t-14 -35.5t13.5 -34t36.5 -12q12 0 23 4.5t17 11.5l28 -63q-36 -31 -87 -31q-49 0 -79.5 30t-30.5 80q0 36 21 63h-311v687h517v-114h-392z" />
    <glyph glyph-name="eogonek" unicode="&#x119;" horiz-adv-x="590" 
d="M385 101q40 15 65 39l70 -72q-39 -42 -114 -65q-10 -13 -10 -30q0 -22 13.5 -34.5t37.5 -12.5t40 16l28 -62q-37 -32 -88 -32q-49 0 -79.5 30t-30.5 80q0 12 4 30h-11q-74 0 -136.5 35t-99 97t-36.5 140q0 77 35 138t96 96t134 35q119 0 186.5 -82t67.5 -224h-401
q10 -62 50.5 -99.5t99.5 -37.5q39 0 79 15zM209 396.5q-40 -34.5 -52 -92.5h282q-9 57 -43.5 92t-91.5 35q-55 0 -95 -34.5z" />
    <glyph glyph-name="Ecaron" unicode="&#x11a;" horiz-adv-x="668" 
d="M220 573v-166h354v-114h-354v-179h392v-114h-517v687h517v-114h-392zM198 889h79l76 -78l77 78h80l-105 -144h-104z" />
    <glyph glyph-name="ecaron" unicode="&#x11b;" horiz-adv-x="590" 
d="M385 101q40 15 65 39l70 -72q-33 -35 -93 -57.5t-117 -22.5q-74 0 -136.5 35t-99 97t-36.5 140q0 77 35 138t96 96t134 35q119 0 186.5 -82t67.5 -224h-401q10 -62 50.5 -99.5t99.5 -37.5q39 0 79 15zM209 396.5q-40 -34.5 -52 -92.5h282q-9 57 -43.5 92t-91.5 35
q-55 0 -95 -34.5zM147 719h79l76 -78l77 78h80l-105 -144h-104z" />
    <glyph glyph-name="Gbreve" unicode="&#x11e;" horiz-adv-x="752" 
d="M392 378h294v-278q-50 -52 -124 -82t-150 -30q-96 0 -179.5 48.5t-133 130.5t-49.5 177t49.5 176.5t133 130t179.5 48.5q76 0 150 -30t124 -81l-89 -83q-32 37 -83 58.5t-102 21.5q-62 0 -116.5 -33t-86.5 -88.5t-32 -119.5q0 -65 32 -120.5t86.5 -88.5t116.5 -33
q39 0 79.5 13t72.5 36v125h-172v102zM330 769.5q-40 16.5 -73 48.5l58 58q20 -20 46 -31.5t52 -11.5t52 11.5t46 31.5l58 -58q-32 -32 -72.5 -48.5t-83.5 -16.5t-83 16.5z" />
    <glyph glyph-name="gbreve" unicode="&#x11f;" horiz-adv-x="644" 
d="M569 517v-462q0 -66 -34.5 -117.5t-96 -80.5t-139.5 -29q-65 0 -124 19t-98 50l45 89q27 -25 69.5 -39.5t88.5 -14.5q76 0 121 34t45 93v66q-31 -42 -77 -64.5t-100 -22.5q-66 0 -119 31.5t-83 87.5t-30 127t30 126.5t83 87t119 31.5q55 0 102 -23.5t75 -64.5v76h123z
M406 182q40 40 40 102t-40 101.5t-102 39.5q-61 0 -101 -39.5t-40 -101.5t39.5 -102t101.5 -40t102 40zM224 599.5q-40 16.5 -73 48.5l58 58q20 -20 46 -31.5t52 -11.5t52 11.5t46 31.5l58 -58q-32 -32 -72.5 -48.5t-83.5 -16.5t-83 16.5z" />
    <glyph glyph-name="uni0122" unicode="&#x122;" horiz-adv-x="752" 
d="M392 378h294v-278q-50 -52 -124 -82t-150 -30q-96 0 -179.5 48.5t-133 130.5t-49.5 177t49.5 176.5t133 130t179.5 48.5q76 0 150 -30t124 -81l-89 -83q-32 37 -83 58.5t-102 21.5q-62 0 -116.5 -33t-86.5 -88.5t-32 -119.5q0 -65 32 -120.5t86.5 -88.5t116.5 -33
q39 0 79.5 13t72.5 36v125h-172v102zM365 -257q37 35 46 75q-25 0 -42.5 18t-17.5 44q0 25 18.5 43.5t43.5 18.5q29 0 47.5 -24.5t18.5 -62.5q0 -31 -18 -63.5t-59 -76.5z" />
    <glyph glyph-name="uni0123" unicode="&#x123;" horiz-adv-x="638" 
d="M253.5 613.5q-18.5 24.5 -18.5 62.5q0 31 18 63.5t58 76.5l38 -28q-37 -35 -46 -75q25 0 42 -18t17 -44q0 -25 -18 -43.5t-43 -18.5q-29 0 -47.5 24.5zM569 517v-462q0 -66 -34.5 -117.5t-96 -80.5t-139.5 -29q-65 0 -124 19t-98 50l45 89q27 -25 69.5 -39.5t88.5 -14.5
q76 0 121 34t45 93v66q-31 -42 -77 -64.5t-100 -22.5q-66 0 -119 31.5t-83 87.5t-30 127t30 126.5t83 87t119 31.5q55 0 102 -23.5t75 -64.5v76h123zM406 182q40 40 40 102t-40 101.5t-102 39.5q-61 0 -101 -39.5t-40 -101.5t39.5 -102t101.5 -40t102 40z" />
    <glyph glyph-name="Imacron" unicode="&#x12a;" horiz-adv-x="314" 
d="M95 687h124v-687h-124v687zM-10 831h334v-75h-334v75z" />
    <glyph glyph-name="imacron" unicode="&#x12b;" horiz-adv-x="274" 
d="M76 517h122v-517h-122v517zM-30 661h334v-75h-334v75z" />
    <glyph glyph-name="Iogonek" unicode="&#x12e;" horiz-adv-x="314" 
d="M288 -142q-38 -31 -88 -31q-49 0 -79.5 30t-30.5 80q0 36 21 63h-16v687h124v-687q-22 0 -36 -13.5t-14 -35.5t13.5 -34t37.5 -12t40 16z" />
    <glyph glyph-name="iogonek" unicode="&#x12f;" horiz-adv-x="274" 
d="M93 606.5q-18 18.5 -18 44.5q0 25 18 43.5t44 18.5q25 0 43.5 -19t18.5 -43q0 -26 -18 -44.5t-44 -18.5t-44 18.5zM267 -142q-38 -31 -88 -31q-49 0 -79.5 30t-30.5 80q0 36 21 63h-14v517h122v-517q-22 0 -36 -13.5t-14 -35.5t13.5 -34t37.5 -12t40 16z" />
    <glyph glyph-name="Idotaccent" unicode="&#x130;" horiz-adv-x="314" 
d="M95 687h124v-687h-124v687zM113 776.5q-18 18.5 -18 44.5q0 25 18 43.5t44 18.5q25 0 43.5 -19t18.5 -43q0 -26 -18 -44.5t-44 -18.5t-44 18.5z" />
    <glyph glyph-name="dotlessi" unicode="&#x131;" horiz-adv-x="274" 
d="M76 517h122v-517h-122v517z" />
    <glyph glyph-name="uni0136" unicode="&#x136;" horiz-adv-x="717" 
d="M95 687h124v-336l301 336h154l-275 -303l294 -384h-153l-228 296l-93 -100v-196h-124v687zM346 -257q37 35 46 75q-25 0 -42.5 18t-17.5 44q0 25 18.5 43.5t43.5 18.5q29 0 47.5 -24.5t18.5 -62.5q0 -31 -18 -63.5t-59 -76.5z" />
    <glyph glyph-name="uni0137" unicode="&#x137;" horiz-adv-x="577" 
d="M76 699h122v-426l223 244h144l-212 -231l206 -286h-143l-145 206l-73 -76v-130h-122v699zM243 -257q37 35 46 75q-25 0 -42.5 18t-17.5 44q0 25 18.5 43.5t43.5 18.5q29 0 47.5 -24.5t18.5 -62.5q0 -31 -18 -63.5t-59 -76.5z" />
    <glyph glyph-name="Lacute" unicode="&#x139;" horiz-adv-x="601" 
d="M572 114v-114h-477v687h124v-573h353zM233 897l114 -22l-146 -130h-85z" />
    <glyph glyph-name="lacute" unicode="&#x13a;" horiz-adv-x="274" 
d="M76 699h122v-699h-122v699zM212 909l114 -22l-146 -130h-85z" />
    <glyph glyph-name="Lcaron" unicode="&#x13d;" horiz-adv-x="601" 
d="M572 114v-114h-477v687h124v-573h353zM300 500q37 35 46 75q-25 0 -42.5 18t-17.5 44q0 25 18.5 43.5t43.5 18.5q29 0 47.5 -24.5t18.5 -62.5q0 -31 -18 -63.5t-59 -76.5z" />
    <glyph glyph-name="lcaron" unicode="&#x13e;" horiz-adv-x="358" 
d="M76 699h122v-699h-122v699zM280 500q37 35 46 75q-25 0 -42.5 18t-17.5 44q0 25 18.5 43.5t43.5 18.5q29 0 47.5 -24.5t18.5 -62.5q0 -31 -18 -63.5t-59 -76.5z" />
    <glyph glyph-name="Lslash" unicode="&#x141;" horiz-adv-x="642" 
d="M612 114v-114h-477v263l-101 -51v111l101 51v313h124v-250l101 51v-112l-101 -51v-211h353z" />
    <glyph glyph-name="lslash" unicode="&#x142;" horiz-adv-x="338" 
d="M307 352l-72 -36v-316h-122v255l-85 -43v111l85 43v333h122v-271l72 36v-112z" />
    <glyph glyph-name="Nacute" unicode="&#x143;" horiz-adv-x="801" 
d="M95 687h124l363 -483v483h124v-687h-124l-363 483v-483h-124v687zM475 897l114 -22l-146 -130h-85z" />
    <glyph glyph-name="nacute" unicode="&#x144;" 
d="M458 503.5q44 -25.5 68.5 -71t24.5 -103.5v-329h-119v305q0 53 -30 86.5t-78 33.5q-53 0 -89.5 -32.5t-36.5 -79.5v-313h-122v517h122v-70q24 37 66.5 59.5t93.5 22.5q56 0 100 -25.5zM385 727l114 -22l-146 -130h-85z" />
    <glyph glyph-name="uni0145" unicode="&#x145;" horiz-adv-x="801" 
d="M95 687h124l363 -483v483h124v-687h-124l-363 483v-483h-124v687zM353 -257q37 35 46 75q-25 0 -42.5 18t-17.5 44q0 25 18.5 43.5t43.5 18.5q29 0 47.5 -24.5t18.5 -62.5q0 -31 -18 -63.5t-59 -76.5z" />
    <glyph glyph-name="uni0146" unicode="&#x146;" 
d="M458 503.5q44 -25.5 68.5 -71t24.5 -103.5v-329h-119v305q0 53 -30 86.5t-78 33.5q-53 0 -89.5 -32.5t-36.5 -79.5v-313h-122v517h122v-70q24 37 66.5 59.5t93.5 22.5q56 0 100 -25.5zM263 -257q37 35 46 75q-25 0 -42.5 18t-17.5 44q0 25 18.5 43.5t43.5 18.5
q29 0 47.5 -24.5t18.5 -62.5q0 -31 -18 -63.5t-59 -76.5z" />
    <glyph glyph-name="Ncaron" unicode="&#x147;" horiz-adv-x="801" 
d="M95 687h124l363 -483v483h124v-687h-124l-363 483v-483h-124v687zM245 889h79l76 -78l77 78h80l-105 -144h-104z" />
    <glyph glyph-name="ncaron" unicode="&#x148;" 
d="M458 503.5q44 -25.5 68.5 -71t24.5 -103.5v-329h-119v305q0 53 -30 86.5t-78 33.5q-53 0 -89.5 -32.5t-36.5 -79.5v-313h-122v517h122v-70q24 37 66.5 59.5t93.5 22.5q56 0 100 -25.5zM155 719h79l76 -78l77 78h80l-105 -144h-104z" />
    <glyph glyph-name="Omacron" unicode="&#x14c;" horiz-adv-x="821" 
d="M231 36.5q-83 48.5 -132 130.5t-49 177t49 176.5t132 130t179 48.5t179 -48.5t132.5 -130t49.5 -176.5t-49.5 -177t-132.5 -130.5t-179 -48.5t-179 48.5zM526 135q54 33 85.5 88.5t31.5 120.5q0 64 -31.5 119.5t-85.5 88.5t-116 33t-115.5 -33t-85.5 -88.5t-32 -119.5
q0 -65 32 -120.5t85.5 -88.5t115.5 -33t116 33zM243 831h334v-75h-334v75z" />
    <glyph glyph-name="omacron" unicode="&#x14d;" horiz-adv-x="627" 
d="M175 24.5q-64 36.5 -101.5 99t-37.5 135.5t37.5 135t101.5 98.5t139 36.5t138.5 -36.5t100.5 -98.5t37 -135t-37 -135.5t-100.5 -99t-138.5 -36.5t-139 36.5zM392 114.5q36 22.5 57.5 61t21.5 83.5t-21 83t-57.5 60.5t-78.5 22.5q-43 0 -79 -22.5t-57.5 -60.5t-21.5 -83
t21.5 -83.5t57.5 -61t79 -22.5q42 0 78 22.5zM147 661h334v-75h-334v75z" />
    <glyph glyph-name="Ohungarumlaut" unicode="&#x150;" horiz-adv-x="821" 
d="M231 36.5q-83 48.5 -132 130.5t-49 177t49 176.5t132 130t179 48.5t179 -48.5t132.5 -130t49.5 -176.5t-49.5 -177t-132.5 -130.5t-179 -48.5t-179 48.5zM526 135q54 33 85.5 88.5t31.5 120.5q0 64 -31.5 119.5t-85.5 88.5t-116 33t-115.5 -33t-85.5 -88.5t-32 -119.5
q0 -65 32 -120.5t85.5 -88.5t115.5 -33t116 33zM372 897l114 -22l-146 -130h-85zM596 896l113 -22l-146 -129h-85z" />
    <glyph glyph-name="ohungarumlaut" unicode="&#x151;" horiz-adv-x="627" 
d="M175 24.5q-64 36.5 -101.5 99t-37.5 135.5t37.5 135t101.5 98.5t139 36.5t138.5 -36.5t100.5 -98.5t37 -135t-37 -135.5t-100.5 -99t-138.5 -36.5t-139 36.5zM392 114.5q36 22.5 57.5 61t21.5 83.5t-21 83t-57.5 60.5t-78.5 22.5q-43 0 -79 -22.5t-57.5 -60.5t-21.5 -83
t21.5 -83.5t57.5 -61t79 -22.5q42 0 78 22.5zM276 727l114 -22l-146 -130h-85zM500 726l113 -22l-146 -129h-85z" />
    <glyph glyph-name="OE" unicode="&#x152;" horiz-adv-x="1049" 
d="M98 513q49 80 132 127t179 47h584v-114h-392v-166h355v-114h-355v-179h392v-114h-584q-97 0 -179.5 44.5t-131.5 122t-49 171.5q0 95 49 175zM207.5 222.5q31.5 -51.5 85 -80t116.5 -28.5h67v459h-67q-62 0 -115.5 -31.5t-85.5 -85.5t-32 -118t31.5 -115.5z" />
    <glyph glyph-name="oe" unicode="&#x153;" horiz-adv-x="1026" 
d="M821 101q40 15 65 39l70 -72q-33 -35 -93 -57.5t-117 -22.5q-65 0 -121.5 27.5t-94.5 75.5q-38 -48 -95 -75.5t-121 -27.5q-75 0 -139 36.5t-101.5 99t-37.5 135.5t37.5 135t101.5 98.5t139 36.5q64 0 120 -27t95 -74q36 48 91 74.5t119 26.5q119 0 186.5 -82t67.5 -224
h-401q10 -62 50.5 -99.5t99.5 -37.5q39 0 79 15zM645 396.5q-40 -34.5 -52 -92.5h282q-9 57 -43.5 92t-91.5 35q-55 0 -95 -34.5zM392 114.5q36 22.5 57.5 61t21.5 83.5t-21 83t-57.5 60.5t-78.5 22.5q-43 0 -79 -22.5t-57.5 -60.5t-21.5 -83t21.5 -83.5t57.5 -61t79 -22.5
q42 0 78 22.5z" />
    <glyph glyph-name="Racute" unicode="&#x154;" horiz-adv-x="700" 
d="M600 317.5q-51 -59.5 -135 -78.5l168 -239h-142l-162 231h-110v-231h-124v687h299q72 0 131 -29t92.5 -81t33.5 -118q0 -82 -51 -141.5zM219 346h160q65 0 104.5 30.5t39.5 82.5t-39.5 82.5t-104.5 30.5h-160v-226zM412 897l114 -22l-146 -130h-85z" />
    <glyph glyph-name="racute" unicode="&#x155;" horiz-adv-x="418" 
d="M272 499.5q49 29.5 111 29.5v-104q-83 0 -134 -45t-51 -119v-261h-122v517h122v-98q25 51 74 80.5zM296 727l114 -22l-146 -130h-85z" />
    <glyph glyph-name="uni0156" unicode="&#x156;" horiz-adv-x="700" 
d="M600 317.5q-51 -59.5 -135 -78.5l168 -239h-142l-162 231h-110v-231h-124v687h299q72 0 131 -29t92.5 -81t33.5 -118q0 -82 -51 -141.5zM219 346h160q65 0 104.5 30.5t39.5 82.5t-39.5 82.5t-104.5 30.5h-160v-226zM292 -257q37 35 46 75q-25 0 -42.5 18t-17.5 44
q0 25 18.5 43.5t43.5 18.5q29 0 47.5 -24.5t18.5 -62.5q0 -31 -18 -63.5t-59 -76.5z" />
    <glyph glyph-name="uni0157" unicode="&#x157;" horiz-adv-x="418" 
d="M272 499.5q49 29.5 111 29.5v-104q-83 0 -134 -45t-51 -119v-261h-122v517h122v-98q25 51 74 80.5zM173 -257q37 35 46 75q-25 0 -42.5 18t-17.5 44q0 25 18.5 43.5t43.5 18.5q29 0 47.5 -24.5t18.5 -62.5q0 -31 -18 -63.5t-59 -76.5z" />
    <glyph glyph-name="Rcaron" unicode="&#x158;" horiz-adv-x="700" 
d="M600 317.5q-51 -59.5 -135 -78.5l168 -239h-142l-162 231h-110v-231h-124v687h299q72 0 131 -29t92.5 -81t33.5 -118q0 -82 -51 -141.5zM219 346h160q65 0 104.5 30.5t39.5 82.5t-39.5 82.5t-104.5 30.5h-160v-226zM182 889h79l76 -78l77 78h80l-105 -144h-104z" />
    <glyph glyph-name="rcaron" unicode="&#x159;" horiz-adv-x="418" 
d="M272 499.5q49 29.5 111 29.5v-104q-83 0 -134 -45t-51 -119v-261h-122v517h122v-98q25 51 74 80.5zM66 719h79l76 -78l77 78h80l-105 -144h-104z" />
    <glyph glyph-name="Sacute" unicode="&#x15a;" horiz-adv-x="638" 
d="M171.5 17.5q-74.5 28.5 -132.5 82.5l73 89q103 -93 226 -93q60 0 94 26t34 65q0 28 -16.5 45.5t-49 30t-93.5 26.5q-80 19 -131 41.5t-80 61t-29 100.5q0 59 31.5 106.5t87.5 74t127 26.5q149 0 260 -96l-68 -91q-45 39 -95 59.5t-101 20.5t-83.5 -26t-32.5 -63
q0 -27 16.5 -45t50 -30t92.5 -26q119 -27 179 -71.5t60 -131.5q0 -62 -30.5 -109.5t-88.5 -74t-139 -26.5q-87 0 -161.5 28.5zM394 897l114 -22l-146 -130h-85z" />
    <glyph glyph-name="sacute" unicode="&#x15b;" horiz-adv-x="494" 
d="M135 8.5q-60 20.5 -107 56.5l52 80q42 -30 88.5 -46.5t88.5 -16.5q41 0 64.5 16t23.5 43q0 28 -26.5 42t-82.5 29q-64 17 -102.5 34.5t-60 46.5t-21.5 74q0 47 24.5 84t69 57.5t101.5 20.5q51 0 102 -16.5t96 -45.5l-48 -82q-37 24 -76 37.5t-74 13.5t-58 -15.5
t-23 -41.5q0 -17 11 -27t31 -17.5t68 -22.5q57 -16 94 -32t62.5 -47t25.5 -81q0 -74 -56 -119t-147 -45q-60 0 -120 20.5zM322 727l114 -22l-146 -130h-85z" />
    <glyph glyph-name="Scedilla" unicode="&#x15e;" horiz-adv-x="638" 
d="M526.5 50q-64.5 -57 -179.5 -61l-14 -33h4q32 0 52.5 -19t20.5 -48q0 -38 -29.5 -61t-75.5 -23q-26 0 -51 8t-41 21l24 52q28 -23 62 -23q19 0 31.5 9t12.5 24q0 13 -8.5 21t-25.5 8t-32 -10l-20 20l25 57q-142 15 -243 108l73 89q103 -93 226 -93q60 0 94 26t34 65
q0 28 -16.5 45.5t-49 30t-93.5 26.5q-80 19 -131 41.5t-80 61t-29 100.5q0 59 31.5 106.5t87.5 74t127 26.5q149 0 260 -96l-68 -91q-45 39 -95 59.5t-101 20.5t-83.5 -26t-32.5 -63q0 -27 16.5 -45t50 -30t92.5 -26q119 -27 179 -71.5t60 -131.5q0 -92 -64.5 -149z" />
    <glyph glyph-name="scedilla" unicode="&#x15f;" horiz-adv-x="494" 
d="M407.5 38q-50.5 -44 -133.5 -49l-14 -33h4q32 0 52.5 -19t20.5 -48q0 -38 -29.5 -61t-75.5 -23q-26 0 -51 8t-41 21l24 52q28 -23 62 -23q19 0 31.5 9t12.5 24q0 13 -8.5 21t-25.5 8t-32 -10l-20 20l24 56q-48 7 -95 26t-85 48l52 80q42 -30 88.5 -46.5t88.5 -16.5
q41 0 64.5 16t23.5 43q0 28 -26.5 42t-82.5 29q-64 17 -102.5 34.5t-60 46.5t-21.5 74q0 47 24.5 84t69 57.5t101.5 20.5q51 0 102 -16.5t96 -45.5l-48 -82q-37 24 -76 37.5t-74 13.5t-58 -15.5t-23 -41.5q0 -17 11 -27t31 -17.5t68 -22.5q57 -16 94 -32t62.5 -47t25.5 -81
q0 -70 -50.5 -114z" />
    <glyph glyph-name="Scaron" unicode="&#x160;" horiz-adv-x="638" 
d="M171.5 17.5q-74.5 28.5 -132.5 82.5l73 89q103 -93 226 -93q60 0 94 26t34 65q0 28 -16.5 45.5t-49 30t-93.5 26.5q-80 19 -131 41.5t-80 61t-29 100.5q0 59 31.5 106.5t87.5 74t127 26.5q149 0 260 -96l-68 -91q-45 39 -95 59.5t-101 20.5t-83.5 -26t-32.5 -63
q0 -27 16.5 -45t50 -30t92.5 -26q119 -27 179 -71.5t60 -131.5q0 -62 -30.5 -109.5t-88.5 -74t-139 -26.5q-87 0 -161.5 28.5zM164 889h79l76 -78l77 78h80l-105 -144h-104z" />
    <glyph glyph-name="scaron" unicode="&#x161;" horiz-adv-x="494" 
d="M135 8.5q-60 20.5 -107 56.5l52 80q42 -30 88.5 -46.5t88.5 -16.5q41 0 64.5 16t23.5 43q0 28 -26.5 42t-82.5 29q-64 17 -102.5 34.5t-60 46.5t-21.5 74q0 47 24.5 84t69 57.5t101.5 20.5q51 0 102 -16.5t96 -45.5l-48 -82q-37 24 -76 37.5t-74 13.5t-58 -15.5
t-23 -41.5q0 -17 11 -27t31 -17.5t68 -22.5q57 -16 94 -32t62.5 -47t25.5 -81q0 -74 -56 -119t-147 -45q-60 0 -120 20.5zM92 719h79l76 -78l77 78h80l-105 -144h-104z" />
    <glyph glyph-name="uni0162" unicode="&#x162;" horiz-adv-x="623" 
d="M343 0l-18 -44h4q32 0 52.5 -19t20.5 -48q0 -38 -29.5 -61t-75.5 -23q-26 0 -51 8t-41 21l24 52q28 -23 62 -23q19 0 31.5 9t12.5 24q0 13 -8.5 21t-25.5 8t-32 -10l-20 20l28 65h-28v573h-220v114h564v-114h-219v-573h-31z" />
    <glyph glyph-name="uni0163" unicode="&#x163;" horiz-adv-x="377" 
d="M314.5 -63q20.5 -19 20.5 -48q0 -38 -29.5 -61t-75.5 -23q-26 0 -51 8t-41 21l24 52q28 -23 62 -23q19 0 31.5 9t12.5 24q0 13 -8.5 21t-25.5 8t-32 -10l-20 20l25 57q-50 11 -80 50.5t-30 94.5v279h-75v101h75v142h118v-142h117v-101h-117v-264q0 -26 15 -43t37 -17
q15 0 28.5 5t22.5 14l35 -82q-33 -28 -80 -38l-15 -35h4q32 0 52.5 -19z" />
    <glyph glyph-name="Tcaron" unicode="&#x164;" horiz-adv-x="623" 
d="M249 573h-220v114h564v-114h-219v-573h-125v573zM156 889h79l76 -78l77 78h80l-105 -144h-104z" />
    <glyph glyph-name="tcaron" unicode="&#x165;" horiz-adv-x="504" 
d="M353 29q-22 -19 -51.5 -30t-59.5 -11q-64 0 -104.5 42t-40.5 107v279h-75v101h75v142h118v-142h117v-101h-117v-264q0 -26 15 -43t37 -17q15 0 28.5 5t22.5 14zM427 500q37 35 46 75q-25 0 -42.5 18t-17.5 44q0 25 18.5 43.5t43.5 18.5q29 0 47.5 -24.5t18.5 -62.5
q0 -31 -18 -63.5t-59 -76.5z" />
    <glyph glyph-name="Umacron" unicode="&#x16a;" horiz-adv-x="762" 
d="M225 27q-69 39 -108 108.5t-39 157.5v394h125v-390q0 -56 23 -101t63.5 -70t91.5 -25q52 0 92.5 25t63.5 70t23 101v390h124v-394q0 -88 -38.5 -157.5t-107.5 -108.5t-157 -39q-87 0 -156 39zM214 831h334v-75h-334v75z" />
    <glyph glyph-name="umacron" unicode="&#x16b;" 
d="M540 517v-517h-122v70q-24 -37 -66.5 -59.5t-93.5 -22.5q-56 0 -100 25.5t-68.5 71t-24.5 103.5v329h119v-305q0 -53 30 -86.5t78 -33.5q53 0 89.5 32.5t36.5 79.5v313h122zM129 661h334v-75h-334v75z" />
    <glyph glyph-name="Uring" unicode="&#x16e;" horiz-adv-x="762" 
d="M225 27q-69 39 -108 108.5t-39 157.5v394h125v-390q0 -56 23 -101t63.5 -70t91.5 -25q52 0 92.5 25t63.5 70t23 101v390h124v-394q0 -88 -38.5 -157.5t-107.5 -108.5t-157 -39q-87 0 -156 39zM303 785.5q-32 32.5 -32 78.5t32 78t78 32t78 -32t32 -78t-32 -78.5
t-78 -32.5t-78 32.5zM420 825.5q16 16.5 16 38.5q0 23 -16 39t-39 16q-22 0 -38.5 -16t-16.5 -39q0 -22 16.5 -38.5t38.5 -16.5q23 0 39 16.5z" />
    <glyph glyph-name="uring" unicode="&#x16f;" 
d="M540 517v-517h-122v70q-24 -37 -66.5 -59.5t-93.5 -22.5q-56 0 -100 25.5t-68.5 71t-24.5 103.5v329h119v-305q0 -53 30 -86.5t78 -33.5q53 0 89.5 32.5t36.5 79.5v313h122zM218 615.5q-32 32.5 -32 78.5t32 78t78 32t78 -32t32 -78t-32 -78.5t-78 -32.5t-78 32.5z
M335 655.5q16 16.5 16 38.5q0 23 -16 39t-39 16q-22 0 -38.5 -16t-16.5 -39q0 -22 16.5 -38.5t38.5 -16.5q23 0 39 16.5z" />
    <glyph glyph-name="Uhungarumlaut" unicode="&#x170;" horiz-adv-x="762" 
d="M225 27q-69 39 -108 108.5t-39 157.5v394h125v-390q0 -56 23 -101t63.5 -70t91.5 -25q52 0 92.5 25t63.5 70t23 101v390h124v-394q0 -88 -38.5 -157.5t-107.5 -108.5t-157 -39q-87 0 -156 39zM343 897l114 -22l-146 -130h-85zM567 896l113 -22l-146 -129h-85z" />
    <glyph glyph-name="uhungarumlaut" unicode="&#x171;" 
d="M540 517v-517h-122v70q-24 -37 -66.5 -59.5t-93.5 -22.5q-56 0 -100 25.5t-68.5 71t-24.5 103.5v329h119v-305q0 -53 30 -86.5t78 -33.5q53 0 89.5 32.5t36.5 79.5v313h122zM258 727l114 -22l-146 -130h-85zM482 726l113 -22l-146 -129h-85z" />
    <glyph glyph-name="Uogonek" unicode="&#x172;" horiz-adv-x="762" 
d="M684 687v-394q0 -88 -38.5 -157.5t-107.5 -108.5t-157 -39q-22 0 -36 -13.5t-14 -35.5t13.5 -34t37.5 -12t40 16l28 -63q-38 -31 -88 -31q-49 0 -79.5 30t-30.5 80q0 23 9 42.5t24 33.5q-95 28 -151 106t-56 186v394h125v-390q0 -56 23 -101t63.5 -70t91.5 -25
q52 0 92.5 25t63.5 70t23 101v390h124z" />
    <glyph glyph-name="uogonek" unicode="&#x173;" 
d="M593 -142q-38 -31 -88 -31q-49 0 -79.5 30t-30.5 80q0 37 23 65v68q-24 -37 -66.5 -59.5t-93.5 -22.5q-56 0 -100 25.5t-68.5 71t-24.5 103.5v329h119v-305q0 -53 30 -86.5t78 -33.5q53 0 89.5 32.5t36.5 79.5v313h122v-517h-16q-22 0 -36 -13.5t-14 -35.5t13.5 -34
t37.5 -12t40 16z" />
    <glyph glyph-name="Wcircumflex" unicode="&#x174;" horiz-adv-x="1087" 
d="M29 687h137l147 -492l163 492h135l162 -492l148 492h136l-217 -687h-124l-172 510l-173 -510h-124zM492 889h104l105 -144h-80l-77 79l-76 -79h-79z" />
    <glyph glyph-name="wcircumflex" unicode="&#x175;" horiz-adv-x="824" 
d="M16 517h122l108 -353l115 353h102l115 -353l108 353h122l-175 -517h-111l-110 354l-110 -354h-111zM360 719h104l105 -144h-80l-77 79l-76 -79h-79z" />
    <glyph glyph-name="Ycircumflex" unicode="&#x176;" horiz-adv-x="712" 
d="M293 258l-272 429h147l189 -311l192 311h142l-271 -429v-258h-127v258zM305 889h104l105 -144h-80l-77 79l-76 -79h-79z" />
    <glyph glyph-name="ycircumflex" unicode="&#x177;" horiz-adv-x="572" 
d="M103.5 -173q-30.5 7 -53.5 20l26 88q35 -19 66 -19q46 0 66 34l22 46l-219 521h129l151 -386l142 386h126l-219 -553q-57 -142 -177 -144q-29 0 -59.5 7zM239 719h104l105 -144h-80l-77 79l-76 -79h-79z" />
    <glyph glyph-name="Ydieresis" unicode="&#x178;" horiz-adv-x="712" 
d="M293 258l-272 429h147l189 -311l192 311h142l-271 -429v-258h-127v258zM210 776.5q-18 18.5 -18 44.5q0 25 18 43.5t44 18.5q25 0 43.5 -19t18.5 -43q0 -26 -18 -44.5t-44 -18.5t-44 18.5zM415 776.5q-18 18.5 -18 44.5q0 25 18 43.5t44 18.5t44 -18.5t18 -43.5
q0 -26 -18 -44.5t-44 -18.5t-44 18.5z" />
    <glyph glyph-name="Zacute" unicode="&#x179;" horiz-adv-x="645" 
d="M45 95l379 478h-371v114h542v-95l-379 -478h383v-114h-553zM400 897l114 -22l-146 -130h-85z" />
    <glyph glyph-name="zacute" unicode="&#x17a;" horiz-adv-x="509" 
d="M35 89l275 321h-269v107h429v-89l-275 -321h277v-107h-437v89zM334 727l114 -22l-146 -130h-85z" />
    <glyph glyph-name="Zdotaccent" unicode="&#x17b;" horiz-adv-x="645" 
d="M45 95l379 478h-371v114h542v-95l-379 -478h383v-114h-553zM281 776.5q-18 18.5 -18 44.5q0 25 18 43.5t44 18.5q25 0 43.5 -19t18.5 -43q0 -26 -18 -44.5t-44 -18.5t-44 18.5z" />
    <glyph glyph-name="zdotaccent" unicode="&#x17c;" horiz-adv-x="509" 
d="M35 89l275 321h-269v107h429v-89l-275 -321h277v-107h-437v89zM215 606.5q-18 18.5 -18 44.5q0 25 18 43.5t44 18.5q25 0 43.5 -19t18.5 -43q0 -26 -18 -44.5t-44 -18.5t-44 18.5z" />
    <glyph glyph-name="Zcaron" unicode="&#x17d;" horiz-adv-x="645" 
d="M45 95l379 478h-371v114h542v-95l-379 -478h383v-114h-553zM170 889h79l76 -78l77 78h80l-105 -144h-104z" />
    <glyph glyph-name="zcaron" unicode="&#x17e;" horiz-adv-x="509" 
d="M35 89l275 321h-269v107h429v-89l-275 -321h277v-107h-437v89zM104 719h79l76 -78l77 78h80l-105 -144h-104z" />
    <glyph glyph-name="uni0237" unicode="&#x237;" horiz-adv-x="261" 
d="M-9 -172.5q-27 5.5 -45 13.5l15 93q10 -4 26.5 -7t30.5 -3q22 0 36.5 17t14.5 43v533h122v-542q0 -68 -41.5 -110.5t-107.5 -42.5q-24 0 -51 5.5z" />
    <glyph glyph-name="circumflex" unicode="&#x2c6;" horiz-adv-x="373" 
d="M134 719h104l105 -144h-80l-77 79l-76 -79h-79z" />
    <glyph glyph-name="caron" unicode="&#x2c7;" horiz-adv-x="373" 
d="M31 719h79l76 -78l77 78h80l-105 -144h-104z" />
    <glyph glyph-name="breve" unicode="&#x2d8;" horiz-adv-x="398" 
d="M115 599.5q-40 16.5 -73 48.5l58 58q20 -20 46 -31.5t52 -11.5t52 11.5t46 31.5l58 -58q-32 -32 -72.5 -48.5t-83.5 -16.5t-83 16.5z" />
    <glyph glyph-name="dotaccent" unicode="&#x2d9;" horiz-adv-x="247" 
d="M80 606.5q-18 18.5 -18 44.5q0 25 18 43.5t44 18.5q25 0 43.5 -19t18.5 -43q0 -26 -18 -44.5t-44 -18.5t-44 18.5z" />
    <glyph glyph-name="ring" unicode="&#x2da;" horiz-adv-x="326" 
d="M85 615.5q-32 32.5 -32 78.5t32 78t78 32t78 -32t32 -78t-32 -78.5t-78 -32.5t-78 32.5zM202 655.5q16 16.5 16 38.5q0 23 -16 39t-39 16q-22 0 -38.5 -16t-16.5 -39q0 -22 16.5 -38.5t38.5 -16.5q23 0 39 16.5z" />
    <glyph glyph-name="ogonek" unicode="&#x2db;" horiz-adv-x="287" 
d="M87.5 -143q-30.5 30 -30.5 80q0 29 14.5 53t37.5 37l77 -27q-22 0 -36 -13.5t-14 -35.5t13.5 -34t37.5 -12t40 16l28 -63q-38 -31 -88 -31q-49 0 -79.5 30z" />
    <glyph glyph-name="tilde" unicode="&#x2dc;" horiz-adv-x="454" 
d="M255.5 581.5q-17.5 8.5 -42.5 24.5q-18 12 -28.5 17.5t-21.5 5.5q-17 0 -28 -13.5t-17 -43.5l-63 9q15 128 106 128q21 0 38.5 -8.5t42.5 -24.5q18 -12 28.5 -17.5t20.5 -5.5q18 0 29 14t16 44l64 -10q-15 -128 -106 -128q-21 0 -38.5 8.5z" />
    <glyph glyph-name="hungarumlaut" unicode="&#x2dd;" horiz-adv-x="508" 
d="M142 727l114 -22l-146 -130h-85zM366 726l113 -22l-146 -129h-85z" />
    <glyph glyph-name="uni0307" unicode="&#x307;" horiz-adv-x="0" 
d="M-179.5 616q-20.5 21 -20.5 49t20.5 48.5t49.5 20.5q28 0 48.5 -20.5t20.5 -48.5t-20.5 -49t-48.5 -21q-29 0 -49.5 21z" />
    <glyph glyph-name="uni0326" unicode="&#x326;" horiz-adv-x="0" 
d="M-167 -257q37 35 46 75q-25 0 -42.5 18t-17.5 44q0 25 18.5 43.5t43.5 18.5q29 0 47.5 -24.5t18.5 -62.5q0 -31 -18 -63.5t-59 -76.5z" />
    <glyph glyph-name="Wgrave" unicode="&#x1e80;" horiz-adv-x="1087" 
d="M29 687h137l147 -492l163 492h135l162 -492l148 492h136l-217 -687h-124l-172 510l-173 -510h-124zM357 875l114 22l117 -152h-85z" />
    <glyph glyph-name="wgrave" unicode="&#x1e81;" horiz-adv-x="824" 
d="M16 517h122l108 -353l115 353h102l115 -353l108 353h122l-175 -517h-111l-110 354l-110 -354h-111zM225 705l114 22l117 -152h-85z" />
    <glyph glyph-name="Wacute" unicode="&#x1e82;" horiz-adv-x="1087" 
d="M29 687h137l147 -492l163 492h135l162 -492l148 492h136l-217 -687h-124l-172 510l-173 -510h-124zM619 897l114 -22l-146 -130h-85z" />
    <glyph glyph-name="wacute" unicode="&#x1e83;" horiz-adv-x="824" 
d="M16 517h122l108 -353l115 353h102l115 -353l108 353h122l-175 -517h-111l-110 354l-110 -354h-111zM487 727l114 -22l-146 -130h-85z" />
    <glyph glyph-name="Wdieresis" unicode="&#x1e84;" horiz-adv-x="1087" 
d="M29 687h137l147 -492l163 492h135l162 -492l148 492h136l-217 -687h-124l-172 510l-173 -510h-124zM397 776.5q-18 18.5 -18 44.5q0 25 18 43.5t44 18.5q25 0 43.5 -19t18.5 -43q0 -26 -18 -44.5t-44 -18.5t-44 18.5zM602 776.5q-18 18.5 -18 44.5q0 25 18 43.5t44 18.5
t44 -18.5t18 -43.5q0 -26 -18 -44.5t-44 -18.5t-44 18.5z" />
    <glyph glyph-name="wdieresis" unicode="&#x1e85;" horiz-adv-x="824" 
d="M16 517h122l108 -353l115 353h102l115 -353l108 353h122l-175 -517h-111l-110 354l-110 -354h-111zM266 606.5q-18 18.5 -18 44.5q0 25 18 43.5t44 18.5q25 0 43.5 -19t18.5 -43q0 -26 -18 -44.5t-44 -18.5t-44 18.5zM471 606.5q-18 18.5 -18 44.5q0 25 18 43.5t44 18.5
t44 -18.5t18 -43.5q0 -26 -18 -44.5t-44 -18.5t-44 18.5z" />
    <glyph glyph-name="uni1EB8" unicode="&#x1eb8;" horiz-adv-x="670" 
d="M220 573v-166h354v-114h-354v-179h392v-114h-517v687h517v-114h-392zM300 -179.5q-18 18.5 -18 44.5q0 25 18 43.5t44 18.5q25 0 43.5 -19t18.5 -43q0 -26 -18 -44.5t-44 -18.5t-44 18.5z" />
    <glyph glyph-name="uni1EB9" unicode="&#x1eb9;" horiz-adv-x="590" 
d="M385 101q40 15 65 39l70 -72q-33 -35 -93 -57.5t-117 -22.5q-74 0 -136.5 35t-99 97t-36.5 140q0 77 35 138t96 96t134 35q119 0 186.5 -82t67.5 -224h-401q10 -62 50.5 -99.5t99.5 -37.5q39 0 79 15zM209 396.5q-40 -34.5 -52 -92.5h282q-9 57 -43.5 92t-91.5 35
q-55 0 -95 -34.5zM255 -180.5q-18 18.5 -18 44.5q0 25 18 43.5t44 18.5q25 0 43.5 -19t18.5 -43q0 -26 -18 -44.5t-44 -18.5t-44 18.5z" />
    <glyph glyph-name="uni1EBC" unicode="&#x1ebc;" horiz-adv-x="668" 
d="M220 573v-166h354v-114h-354v-179h392v-114h-517v687h517v-114h-392zM381.5 751.5q-17.5 8.5 -42.5 24.5q-18 12 -28.5 17.5t-21.5 5.5q-17 0 -28 -13.5t-17 -43.5l-63 9q15 128 106 128q21 0 38.5 -8.5t42.5 -24.5q18 -12 28.5 -17.5t20.5 -5.5q18 0 29 14t16 44l64 -10
q-15 -128 -106 -128q-21 0 -38.5 8.5z" />
    <glyph glyph-name="uni1EBD" unicode="&#x1ebd;" horiz-adv-x="590" 
d="M385 101q40 15 65 39l70 -72q-33 -35 -93 -57.5t-117 -22.5q-74 0 -136.5 35t-99 97t-36.5 140q0 77 35 138t96 96t134 35q119 0 186.5 -82t67.5 -224h-401q10 -62 50.5 -99.5t99.5 -37.5q39 0 79 15zM209 396.5q-40 -34.5 -52 -92.5h282q-9 57 -43.5 92t-91.5 35
q-55 0 -95 -34.5zM330.5 581.5q-17.5 8.5 -42.5 24.5q-18 12 -28.5 17.5t-21.5 5.5q-17 0 -28 -13.5t-17 -43.5l-63 9q15 128 106 128q21 0 38.5 -8.5t42.5 -24.5q18 -12 28.5 -17.5t20.5 -5.5q18 0 29 14t16 44l64 -10q-15 -128 -106 -128q-21 0 -38.5 8.5z" />
    <glyph glyph-name="Ygrave" unicode="&#x1ef2;" horiz-adv-x="712" 
d="M293 258l-272 429h147l189 -311l192 311h142l-271 -429v-258h-127v258zM170 875l114 22l117 -152h-85z" />
    <glyph glyph-name="ygrave" unicode="&#x1ef3;" horiz-adv-x="572" 
d="M103.5 -173q-30.5 7 -53.5 20l26 88q35 -19 66 -19q46 0 66 34l22 46l-219 521h129l151 -386l142 386h126l-219 -553q-57 -142 -177 -144q-29 0 -59.5 7zM104 705l114 22l117 -152h-85z" />
    <glyph glyph-name="uni2002" unicode="&#x2002;" horiz-adv-x="500" 
 />
    <glyph glyph-name="uni2003" unicode="&#x2003;" horiz-adv-x="1000" 
 />
    <glyph glyph-name="uni2004" unicode="&#x2004;" horiz-adv-x="333" 
 />
    <glyph glyph-name="uni2005" unicode="&#x2005;" horiz-adv-x="250" 
 />
    <glyph glyph-name="uni2006" unicode="&#x2006;" horiz-adv-x="166" 
 />
    <glyph glyph-name="endash" unicode="&#x2013;" horiz-adv-x="626" 
d="M75 327h476v-105h-476v105z" />
    <glyph glyph-name="emdash" unicode="&#x2014;" horiz-adv-x="931" 
d="M75 327h781v-105h-781v105z" />
    <glyph glyph-name="quoteleft" unicode="&#x2018;" horiz-adv-x="294" 
d="M210 649q-45 -44 -58 -93q31 0 53.5 -23.5t22.5 -55.5t-23 -55.5t-55 -23.5q-38 0 -61 31t-23 79q0 40 23 82t73 95z" />
    <glyph glyph-name="quoteright" unicode="&#x2019;" horiz-adv-x="294" 
d="M84 436q45 46 58 94q-31 0 -54 23.5t-23 55.5t23 55t55 23q38 0 61 -30.5t23 -78.5q0 -41 -22.5 -82.5t-73.5 -95.5z" />
    <glyph glyph-name="quotedblleft" unicode="&#x201c;" horiz-adv-x="534" 
d="M210 649q-45 -44 -58 -93q31 0 53.5 -23.5t22.5 -55.5t-23 -55.5t-55 -23.5q-38 0 -61 31t-23 79q0 40 23 82t73 95zM450 649q-45 -44 -58 -93q31 0 53.5 -23.5t22.5 -55.5t-23 -55.5t-55 -23.5q-38 0 -61 31t-23 79q0 40 23 82t73 95z" />
    <glyph glyph-name="quotedblright" unicode="&#x201d;" horiz-adv-x="533" 
d="M84 436q45 46 58 94q-31 0 -54 23.5t-23 55.5t23 55t55 23q38 0 61 -30.5t23 -78.5q0 -41 -22.5 -82.5t-73.5 -95.5zM324 436q45 46 58 94q-31 0 -54 23.5t-23 55.5t23 55t55 23q38 0 61 -30.5t23 -78.5q0 -41 -22.5 -82.5t-73.5 -95.5z" />
    <glyph glyph-name="quotedblbase" unicode="&#x201e;" horiz-adv-x="533" 
d="M84 -106q45 46 58 94q-31 0 -54 23.5t-23 55.5t23 55t55 23q38 0 61 -30.5t23 -78.5q0 -41 -22.5 -82.5t-73.5 -95.5zM324 -106q45 46 58 94q-31 0 -54 23.5t-23 55.5t23 55t55 23q38 0 61 -30.5t23 -78.5q0 -41 -22.5 -82.5t-73.5 -95.5z" />
    <glyph glyph-name="bullet" unicode="&#x2022;" horiz-adv-x="424" 
d="M145.5 183.5q-30.5 17.5 -48 48t-17.5 66.5q0 35 17.5 65.5t48 48t66.5 17.5q35 0 65.5 -17.5t48 -48t17.5 -65.5q0 -36 -17.5 -66.5t-48 -48t-65.5 -17.5q-36 0 -66.5 17.5z" />
    <glyph glyph-name="ellipsis" unicode="&#x2026;" horiz-adv-x="815" 
d="M112 11.5q-23 23.5 -23 56.5q0 31 23.5 54t56.5 23q31 0 54 -23t23 -54q0 -33 -22.5 -56.5t-54.5 -23.5q-34 0 -57 23.5zM352 11.5q-23 23.5 -23 56.5q0 31 23.5 54t56.5 23q31 0 54 -23t23 -54q0 -33 -22.5 -56.5t-54.5 -23.5q-34 0 -57 23.5zM592 11.5
q-23 23.5 -23 56.5q0 31 23.5 54t56.5 23q31 0 54 -23t23 -54q0 -33 -22.5 -56.5t-54.5 -23.5q-34 0 -57 23.5z" />
    <glyph glyph-name="uni202F" unicode="&#x202f;" horiz-adv-x="273" 
 />
    <glyph glyph-name="perthousand" unicode="&#x2030;" horiz-adv-x="1246" 
d="M137.5 368q-38.5 23 -59.5 62.5t-21 87.5q0 49 21.5 89t59.5 63t87 23t87 -23t59 -63t21 -88q0 -49 -21 -89t-59.5 -62.5t-87.5 -22.5q-48 0 -86.5 23zM621 687h102l-475 -687h-103zM283 447.5q23 27.5 23 70.5q0 44 -23.5 72t-58.5 28t-57.5 -27.5t-22.5 -72.5
q0 -43 23 -70.5t58 -27.5t58 27.5zM554 13q-38 23 -59 62.5t-21 88.5q0 48 21.5 88t59.5 63.5t87 23.5t87 -23.5t59 -63.5t21 -87q0 -49 -21.5 -89t-60 -63t-86.5 -23q-49 0 -87 23zM934 13q-38 23 -59 62.5t-21 88.5q0 48 21.5 88t59.5 63.5t87 23.5t87 -23.5t59 -63.5
t21 -87q0 -49 -21.5 -89t-60 -63t-86.5 -23q-49 0 -87 23zM700 92.5q23 27.5 23 71.5q0 43 -23.5 71t-58.5 28q-36 0 -58.5 -27.5t-22.5 -70.5q0 -44 23 -72t59 -28q35 0 58 27.5zM1079.5 92.5q22.5 27.5 22.5 71.5q0 43 -23 71t-58 28q-36 0 -58.5 -27.5t-22.5 -70.5
q0 -44 23 -72t59 -28q35 0 57.5 27.5z" />
    <glyph glyph-name="guilsinglleft" unicode="&#x2039;" horiz-adv-x="337" 
d="M31 253l164 201l101 -22l-143 -178l143 -181l-101 -23z" />
    <glyph glyph-name="guilsinglright" unicode="&#x203a;" horiz-adv-x="336" 
d="M40 73l143 181l-143 178l101 22l164 -201l-164 -203z" />
    <glyph glyph-name="Euro" unicode="&#x20ac;" horiz-adv-x="820" 
d="M594.5 123q44.5 21 77.5 59l89 -82q-50 -53 -117.5 -82.5t-142.5 -29.5q-78 0 -148.5 32.5t-122 90t-74.5 129.5h-84v71h70q-2 22 -2 33q0 25 3 47h-71v71h89q25 68 76.5 122t120 84.5t143.5 30.5q74 0 141.5 -29.5t118.5 -81.5l-89 -83q-33 37 -77.5 58.5t-93.5 21.5
q-63 0 -117.5 -33.5t-85.5 -89.5h258v-71h-284q-5 -25 -5 -47q0 -11 2 -33h287v-71h-266q30 -62 87 -100t124 -38q49 0 93.5 21z" />
    <glyph glyph-name="trademark" unicode="&#x2122;" horiz-adv-x="812" 
d="M152 500h-80v79h246v-79h-81v-221h-85v221zM361 579h85l83 -138l84 138h85v-300h-85v157l-84 -140l-83 140v-157h-85v300z" />
    <glyph glyph-name="minus" unicode="&#x2212;" horiz-adv-x="701" 
d="M113 386h475v-104h-475v104z" />
    <glyph glyph-name="a.alt" horiz-adv-x="655" 
d="M580 517v-517h-123v80q-30 -44 -76 -68t-102 -24q-68 0 -122.5 34.5t-85 96.5t-30.5 140t30.5 139.5t85 96t122.5 34.5q56 0 102 -24t76 -68v80h123zM416 139q41 47 41 120t-41 119.5t-105 46.5q-65 0 -107 -46.5t-42 -119.5t42 -120t107 -47q64 0 105 47z" />
    <glyph glyph-name="aacute.alt" horiz-adv-x="655" 
d="M580 517v-517h-123v80q-30 -44 -76 -68t-102 -24q-68 0 -122.5 34.5t-85 96.5t-30.5 140t30.5 139.5t85 96t122.5 34.5q56 0 102 -24t76 -68v80h123zM416 139q41 47 41 120t-41 119.5t-105 46.5q-65 0 -107 -46.5t-42 -119.5t42 -120t107 -47q64 0 105 47zM407 727
l114 -22l-146 -130h-85z" />
    <glyph glyph-name="abreve.alt" horiz-adv-x="655" 
d="M580 517v-517h-123v80q-30 -44 -76 -68t-102 -24q-68 0 -122.5 34.5t-85 96.5t-30.5 140t30.5 139.5t85 96t122.5 34.5q56 0 102 -24t76 -68v80h123zM416 139q41 47 41 120t-41 119.5t-105 46.5q-65 0 -107 -46.5t-42 -119.5t42 -120t107 -47q64 0 105 47zM249 599.5
q-40 16.5 -73 48.5l58 58q20 -20 46 -31.5t52 -11.5t52 11.5t46 31.5l58 -58q-32 -32 -72.5 -48.5t-83.5 -16.5t-83 16.5z" />
    <glyph glyph-name="acircumflex.alt" horiz-adv-x="655" 
d="M580 517v-517h-123v80q-30 -44 -76 -68t-102 -24q-68 0 -122.5 34.5t-85 96.5t-30.5 140t30.5 139.5t85 96t122.5 34.5q56 0 102 -24t76 -68v80h123zM416 139q41 47 41 120t-41 119.5t-105 46.5q-65 0 -107 -46.5t-42 -119.5t42 -120t107 -47q64 0 105 47zM280 719h104
l105 -144h-80l-77 79l-76 -79h-79z" />
    <glyph glyph-name="adieresis.alt" horiz-adv-x="655" 
d="M580 517v-517h-123v80q-30 -44 -76 -68t-102 -24q-68 0 -122.5 34.5t-85 96.5t-30.5 140t30.5 139.5t85 96t122.5 34.5q56 0 102 -24t76 -68v80h123zM416 139q41 47 41 120t-41 119.5t-105 46.5q-65 0 -107 -46.5t-42 -119.5t42 -120t107 -47q64 0 105 47zM186 606.5
q-18 18.5 -18 44.5q0 25 18 43.5t44 18.5q25 0 43.5 -19t18.5 -43q0 -26 -18 -44.5t-44 -18.5t-44 18.5zM391 606.5q-18 18.5 -18 44.5q0 25 18 43.5t44 18.5t44 -18.5t18 -43.5q0 -26 -18 -44.5t-44 -18.5t-44 18.5z" />
    <glyph glyph-name="agrave.alt" horiz-adv-x="655" 
d="M580 517v-517h-123v80q-30 -44 -76 -68t-102 -24q-68 0 -122.5 34.5t-85 96.5t-30.5 140t30.5 139.5t85 96t122.5 34.5q56 0 102 -24t76 -68v80h123zM416 139q41 47 41 120t-41 119.5t-105 46.5q-65 0 -107 -46.5t-42 -119.5t42 -120t107 -47q64 0 105 47zM145 705
l114 22l117 -152h-85z" />
    <glyph glyph-name="amacron.alt" horiz-adv-x="655" 
d="M580 517v-517h-123v80q-30 -44 -76 -68t-102 -24q-68 0 -122.5 34.5t-85 96.5t-30.5 140t30.5 139.5t85 96t122.5 34.5q56 0 102 -24t76 -68v80h123zM416 139q41 47 41 120t-41 119.5t-105 46.5q-65 0 -107 -46.5t-42 -119.5t42 -120t107 -47q64 0 105 47zM165 661h334
v-75h-334v75z" />
    <glyph glyph-name="aogonek.alt" horiz-adv-x="655" 
d="M648 -142q-38 -31 -88 -31q-49 0 -79.5 30t-30.5 80q0 36 21 63h-14v80q-30 -44 -76 -68t-102 -24q-68 0 -122.5 34.5t-85 96.5t-30.5 140t30.5 139.5t85 96t122.5 34.5q56 0 102 -24t76 -68v80h123v-517h-1q-22 0 -36 -13.5t-14 -35.5t13.5 -34t37.5 -12t40 16zM416 139
q41 47 41 120t-41 119.5t-105 46.5q-65 0 -107 -46.5t-42 -119.5t42 -120t107 -47q64 0 105 47z" />
    <glyph glyph-name="aring.alt" horiz-adv-x="655" 
d="M580 517v-517h-123v80q-30 -44 -76 -68t-102 -24q-68 0 -122.5 34.5t-85 96.5t-30.5 140t30.5 139.5t85 96t122.5 34.5q56 0 102 -24t76 -68v80h123zM416 139q41 47 41 120t-41 119.5t-105 46.5q-65 0 -107 -46.5t-42 -119.5t42 -120t107 -47q64 0 105 47zM254 615.5
q-32 32.5 -32 78.5t32 78t78 32t78 -32t32 -78t-32 -78.5t-78 -32.5t-78 32.5zM371 655.5q16 16.5 16 38.5q0 23 -16 39t-39 16q-22 0 -38.5 -16t-16.5 -39q0 -22 16.5 -38.5t38.5 -16.5q23 0 39 16.5z" />
    <glyph glyph-name="atilde.alt" horiz-adv-x="655" 
d="M580 517v-517h-123v80q-30 -44 -76 -68t-102 -24q-68 0 -122.5 34.5t-85 96.5t-30.5 140t30.5 139.5t85 96t122.5 34.5q56 0 102 -24t76 -68v80h123zM416 139q41 47 41 120t-41 119.5t-105 46.5q-65 0 -107 -46.5t-42 -119.5t42 -120t107 -47q64 0 105 47zM359.5 581.5
q-17.5 8.5 -42.5 24.5q-18 12 -28.5 17.5t-21.5 5.5q-17 0 -28 -13.5t-17 -43.5l-63 9q15 128 106 128q21 0 38.5 -8.5t42.5 -24.5q18 -12 28.5 -17.5t20.5 -5.5q18 0 29 14t16 44l64 -10q-15 -128 -106 -128q-21 0 -38.5 8.5z" />
  </font>
</defs>
</svg>
