<svg width="64" height="65" viewBox="0 0 64 65" fill="none" xmlns="http://www.w3.org/2000/svg">
<path d="M55.8336 22.5232L59.6874 14.8313L54.6292 9.77595L49.5712 4.72064L41.8752 8.57231L39.1568 0.398926H24.8544L22.1362 8.57231L14.4288 4.72064L9.37051 9.77595L4.31255 14.8313L8.17764 22.5232L0 25.24V39.5349L8.17764 42.2517L4.31255 49.9665L9.37051 55.0218L14.4288 60.0772L22.1362 56.2255L24.8544 64.3989H39.1568L41.8752 56.2255L49.5712 60.0772L54.6292 55.0218L59.6874 49.9665L55.8336 42.2746L64 39.5578V25.24L55.8336 22.5232ZM45.362 37.9185L37.5397 45.7365H26.4718L18.638 37.9185V26.8564L26.4718 19.0384H37.5397L45.362 26.8564V37.9185Z" fill="#0047FF"/>
</svg>